<?xml version="1.0" encoding="utf-8"?>
<!-- Generator: Adobe Illustrator 27.5.0, SVG Export Plug-In . SVG Version: 6.00 Build 0)  -->
<svg version="1.1" id="_x31_" xmlns="http://www.w3.org/2000/svg" xmlns:xlink="http://www.w3.org/1999/xlink" x="0px" y="0px"
	 viewBox="0 0 600 500" style="enable-background:new 0 0 600 500;" xml:space="preserve">
<g>
	<g>
		<path style="fill:#B8B841;" d="M109.475,126.297l3.555-1.494c19.821,37.435-25.632,92.376-68.961,95.967
			C48.103,184.551,76.359,146.236,109.475,126.297z"/>
		<path style="fill:#CECB50;" d="M113.661,126.067c-9.291,8.48-51.753,48.852-69.435,93.518c0.166-1.323,0.366-2.647,0.595-3.974
			c18.68-43.716,59.719-82.535,68.396-90.435C113.37,125.472,113.517,125.769,113.661,126.067z"/>
		<g>
			<path style="fill:#CECB50;" d="M61.992,185.791c0.074,0.199,5.018,13.628,6.714,27.752c-0.286,0.142-0.573,0.284-0.86,0.423
				c-1.643-14.099-6.635-27.656-6.709-27.855L61.992,185.791z"/>
			<path style="fill:#CECB50;" d="M68.318,175.853c-2.938,0.347-6.38,1.505-9.666,2.896c0.252-0.438,0.5-0.877,0.757-1.314
				c3-1.201,6.087-2.169,8.803-2.489L68.318,175.853z"/>
			<path style="fill:#CECB50;" d="M85.38,155.15l0.79-0.458c5.412,9.323,8.128,27.184,9.375,38.682
				c-0.274,0.291-0.547,0.582-0.824,0.869C93.525,182.865,90.839,164.553,85.38,155.15z"/>
			<path style="fill:#CECB50;" d="M96.397,142.314c-0.105,0.023-5.342,1.161-11.708,3.189c0.503-0.485,1.004-0.971,1.513-1.449
				c5.397-1.634,9.619-2.551,10.003-2.634L96.397,142.314z"/>
		</g>
		<path style="fill:#9E9E37;" d="M112.452,131.617l-1.347-2.739c16.295-27.074,48.551-28.356,80.305,24.832
			C164.476,165.446,130,158.14,112.452,131.617z"/>
		<path style="fill:#863D3D;" d="M112.297,126.734l1.405-1.578c0,0,117.671,93.528,134.472,277.505l-5.677,2.908
			C223.243,268.917,171.727,186.059,112.297,126.734z"/>
		<path style="fill:#A3A73C;" d="M113.031,124.803c10.097,19.07,3.25,42.679-11.62,61.732
			C96.923,164.801,107.354,132.023,113.031,124.803z"/>
		<path style="fill:#B8B841;" d="M114.098,128.87l-1.89-2.379c27.934-34.789,78.824-48.421,124.332-4.351
			C193.15,144.783,139.49,150.194,114.098,128.87z"/>
		<path style="fill:#A3A73C;" d="M115.498,122.619c8.252,4.064,15.64,10.014,21.94,17.283c-9.111-2.15-17.084-5.778-23.34-11.031
			l-1.89-2.379C113.27,125.168,114.37,123.879,115.498,122.619z"/>
		<path style="fill:#CECB50;" d="M234.275,120.002c0.549,0.507,1.097,1.028,1.644,1.552c-36.916-12.631-90.967-15.659-121.387,3.5
			l-0.487-0.773c0.024-0.028,0.049-0.057,0.073-0.085c14.475-9.087,35.048-13.876,59.511-13.85
			C193.809,110.365,215.605,113.864,234.275,120.002z"/>
		<g>
			<path style="fill:#CECB50;" d="M191.41,111.983c0.074,0.131,6.752,11.89,17.603,21.788c-0.332,0.11-0.663,0.216-0.995,0.323
				c-10.737-9.927-17.33-21.533-17.404-21.664L191.41,111.983z"/>
			<path style="fill:#CECB50;" d="M145.31,112.87l0.841-0.356c0.069,0.163,6.527,15.047,24.275,29.337
				c-0.441,0.036-0.882,0.069-1.322,0.101C151.744,127.7,145.379,113.033,145.31,112.87z"/>
			<path style="fill:#CECB50;" d="M166.693,110.127c0.14-0.132,8.574-8.046,19.809-14.869c0.457,0.072,0.915,0.153,1.373,0.234
				c-11.578,6.876-20.41,15.163-20.553,15.298L166.693,110.127z"/>
			<path style="fill:#CECB50;" d="M130.608,116.177c0.044-0.075,3.196-5.374,11.154-13.792c0.776-0.386,1.557-0.764,2.344-1.124
				c-9.116,9.338-12.664,15.298-12.71,15.377L130.608,116.177z"/>
		</g>
		<path style="fill:#B8B841;" d="M112.056,127.678l1.646-2.522c38.27,18.105,54.082,83.574,27.623,129.968
			C110.595,218.235,99.201,160.564,112.056,127.678z"/>
		<path style="fill:#CECB50;" d="M141.885,254.111c-0.187,0.338-0.368,0.678-0.56,1.013c-0.081-0.098-0.158-0.201-0.24-0.298
			c-5.562-18.161-29.004-96.897-27.605-129.329l0.222-0.34c0.252,0.119,0.499,0.249,0.749,0.372
			C113.047,157.508,136.109,235.221,141.885,254.111z"/>
		<g>
			<path style="fill:#CECB50;" d="M123.952,187.305c0.149,0.054,13.784,5.156,30.239,23.756c-0.028,0.428-0.058,0.856-0.091,1.284
				c-16.545-18.956-30.311-24.128-30.459-24.182L123.952,187.305z"/>
			<path style="fill:#CECB50;" d="M121.02,176.538c-4.79,5.812-7.929,11.565-9.971,16.366c-0.118-0.494-0.234-0.988-0.347-1.482
				c2.074-4.634,5.131-10.026,9.614-15.465L121.02,176.538z"/>
			<path style="fill:#CECB50;" d="M116.312,151.374l0.263-0.875c0.217,0.065,17.77,5.462,32.424,18.907
				c0.197,0.596,0.389,1.195,0.575,1.798C134.869,157.088,116.533,151.44,116.312,151.374z"/>
			<path style="fill:#CECB50;" d="M114.709,143.144c-2.864,2.987-5.453,6.353-7.676,9.601c0.034-0.597,0.081-1.184,0.124-1.774
				c2.045-2.888,4.362-5.819,6.893-8.459L114.709,143.144z"/>
		</g>
		<path style="fill:#CECB50;" d="M112.187,125.937c-0.215-0.474,0.322-1.179,1.198-1.576c0.876-0.396,1.76-0.334,1.974,0.14
			c0.215,0.474-0.322,1.179-1.198,1.576C113.286,126.474,112.402,126.411,112.187,125.937z"/>
	</g>
	<g>
		<g>
			<path style="fill:#A3A73C;" d="M178.115,420.003c-10.225,0.781-19.973,0.163-29.184-2.028
				c-10.905-14.93-16.999-31.285-21.029-48.252c20.88,8.232,37.733,18.629,51.166,30.866
				C180.834,406.355,180.469,412.843,178.115,420.003z"/>
			<path style="fill:#919131;" d="M127.902,369.723c0.119,0.503,0.247,1.003,0.37,1.504c2.554,2.451,6.029,5.828,9.988,9.788
				l-7.937-2.107c0.113,0.389,0.232,0.777,0.348,1.165l9.043,2.401c3.833,3.857,8.04,8.188,12.246,12.694l-17.1-2.967
				c0.149,0.376,0.303,0.751,0.456,1.126l17.805,3.089c3.879,4.186,7.727,8.497,11.247,12.701l1.094-0.532
				c-2.049-2.447-4.209-4.93-6.421-7.404l8.22-10.202c-0.335-0.245-0.671-0.49-1.01-0.733l-8.054,9.996
				c-2.993-3.324-6.064-6.619-9.078-9.776l3.03-9.224c-0.387-0.22-0.777-0.437-1.167-0.655l-2.892,8.804
				c-7.819-8.145-15.115-15.25-19.391-19.344C128.432,369.94,128.171,369.829,127.902,369.723z"/>
			<path style="fill:#919131;" d="M217.278,421.695c-13.011,1.359-26.102,0.212-39.107-3.804
				c-18.462-26.514-30.087-53.985-38.541-80.75c28.2,14.045,51.922,31.218,72.297,51.466
				C216.034,398.21,217.788,409.21,217.278,421.695z"/>
			<path style="fill:#A3A73C;" d="M184.033,388.485c4.373,5.408,7.063,8.862,7.152,8.978l1.007-0.637
				c-0.129-0.166-5.636-7.239-13.843-17.153c0.141-0.777,1.344-7.462,2.917-17.26c-0.37-0.271-0.74-0.542-1.112-0.812
				c-1.322,8.263-2.398,14.413-2.828,16.836c-3.804-4.579-8.137-9.704-12.757-15.005c0.039-1.057,0.208-5.784,0.359-12.12
				c-0.401-0.251-0.809-0.497-1.212-0.747c-0.12,5.181-0.255,9.382-0.329,11.517c-7.224-8.248-15.074-16.822-22.662-24.382
				c-0.367-0.185-0.726-0.375-1.094-0.558c0.172,0.545,0.354,1.092,0.529,1.638c4.771,4.768,9.643,9.933,14.393,15.16
				c-1.868-0.274-5.322-0.774-9.699-1.386c0.143,0.395,0.294,0.79,0.439,1.184c5.615,0.787,9.578,1.372,10.433,1.499
				c5.333,5.904,10.481,11.839,15.128,17.324c-3.075-0.469-10.406-1.573-19.195-2.802c0.171,0.398,0.341,0.797,0.514,1.195
				c10.181,1.429,18.27,2.668,19.774,2.9c4.449,5.273,8.388,10.067,11.529,13.944c-1.97,0.301-10.777,1.658-21.533,3.468
				c0.184,0.346,0.36,0.692,0.546,1.037c11.991-2.016,21.483-3.455,21.607-3.474L184.033,388.485z"/>
			<path style="fill:#A3A73C;" d="M233.22,423.606c-16.721-4.888-33.121-10.46-46.791-20.728
				c-10.248-37.156-11.005-76.004-9.283-112.936c29.416,29.893,51.353,61.627,66.939,94.924
				C244.135,397.669,240.429,410.584,233.22,423.606z"/>
			<g style="opacity:0.55;">
				<path style="fill:#C9C647;" d="M204.074,365.09c2.284,7.397,3.604,12.018,3.648,12.175l1.191-0.275
					c-0.064-0.225-2.742-9.599-7.129-23.198c0.428-0.659,5.377-8.301,12.508-19.768c-0.25-0.351-0.503-0.702-0.755-1.053
					c-6.087,9.798-10.64,16.894-12.227,19.354c-2.101-6.474-4.566-13.828-7.306-21.565c0.538-1.174,3.152-6.897,6.595-14.668
					c-0.286-0.35-0.572-0.7-0.859-1.05c-2.889,6.528-5.234,11.702-6.317,14.08c-4.415-12.381-9.51-25.623-14.91-37.765
					c-0.458-0.471-0.903-0.945-1.365-1.415c-0.018,0.397-0.032,0.797-0.05,1.195c3.636,8.134,7.137,16.783,10.389,25.354
					c-1.928-0.919-5.873-2.791-11.003-5.19c-0.006,0.414-0.005,0.831-0.01,1.245c6.348,2.971,10.766,5.082,11.59,5.476
					c3.339,8.871,6.403,17.609,9.069,25.538c-3.003-1.431-10.842-5.149-20.435-9.567c0.014,0.423,0.033,0.845,0.049,1.268
					c10.877,5.014,19.374,9.07,20.888,9.793c2.493,7.458,4.616,14.14,6.263,19.459c-1.774-0.232-12.225-1.585-25.256-3.087
					c0.042,0.378,0.093,0.756,0.136,1.134c14.075,1.626,25.063,3.067,25.208,3.086L204.074,365.09z"/>
			</g>
		</g>
		<path style="fill:#FFA943;" d="M353.872,431.367H99.621c0,0,39.924-66.815,151.605-55.871
			C295.511,379.836,353.872,431.367,353.872,431.367z"/>
		<path style="fill:#F6E061;" d="M76.285,431.367h202.844c0,0-95.91-7.163-185.646-5.77C86.81,425.7,76.285,431.367,76.285,431.367z
			"/>
		<path style="fill:#FFA943;" d="M115.409,416.431c-6.312,1.8-39.124,14.937-39.124,14.937h204.246
			C285.212,429.504,179.867,398.053,115.409,416.431z"/>
		<path style="fill:#FFA943;" d="M213.506,374.7c8.804,4.662,44.597,2.808,83.029,16.615c-8.804-4.662-20.477-10.162-31.994-13.359
			C247.512,373.229,221.806,372.597,213.506,374.7z"/>
		<path style="fill:#F0C851;" d="M242.845,431.367l-143.224,0c0,0,27.452-43.088,90.363-36.923
			C214.931,396.889,242.845,431.367,242.845,431.367z"/>
	</g>
	<g>
		<path style="fill:#EDB984;" d="M466.694,280.125c1.684,0.942,4.441,0.856,6.807-0.493c2.408-1.373,2.734-4.09,2.479-5.016
			c-0.257-0.932-2.654-2.879-4.254-0.441c-1.565,2.384-3.265,1.332-3.265,1.332L466.694,280.125z"/>
		<path style="fill:#EDB984;" d="M472.485,277.571c1.967,0.281,4.639-0.825,6.495-3.009c1.896-2.231,1.254-4.967,0.673-5.757
			c-0.583-0.793-3.619-1.731-4.332,1.199c-0.698,2.866-2.716,2.499-2.716,2.499L472.485,277.571z"/>
		<path style="fill:#E79B69;" d="M467.38,263.778c0.245,1.972,2.012,4.26,4.606,5.479c2.65,1.245,5.122-0.092,5.732-0.86
			c0.613-0.77,0.722-3.946-2.293-3.866c-2.948,0.078-3.124-1.966-3.124-1.966L467.38,263.778z"/>
		<path style="fill:#C4B9A7;" d="M345.357,131.95h-136.7c-4.829,0-8.128,3.915-7.367,8.744l44.378,281.93
			c0.76,4.829,5.291,8.744,10.12,8.744h136.7c4.829,0,8.127-3.915,7.367-8.744l-44.378-281.93
			C354.716,135.865,350.185,131.95,345.357,131.95z"/>
		<polygon style="fill:#C4B9A7;" points="213.168,126.368 203.641,133.817 208.769,144.677 218.297,137.228 		"/>
		<path style="fill:#EFE5CE;" d="M357.806,124.78H217.833c-4.945,0-8.322,4.008-7.544,8.953l45.441,288.681
			c0.778,4.945,5.418,8.953,10.362,8.953h139.973c4.945,0,8.322-4.008,7.544-8.953l-45.441-288.681
			C367.39,128.789,362.75,124.78,357.806,124.78z"/>
		<polygon style="fill:#93D2F9;" points="214.381,139.544 257.993,416.603 409.516,416.603 365.905,139.544 		"/>
		<polygon style="fill:#85CBED;" points="365.905,139.544 214.382,139.544 224.094,201.246 377.639,214.092 		"/>
		<path style="fill:#D9F2FF;" d="M397.657,348.936c-2.826,2.036-5.562,4.398-6.916,7.592c-1.425,3.362-0.803,7.849,2.276,9.812
			c-1.3-0.603-3.009-0.104-3.78,1.104c-0.771,1.207-0.506,2.968,0.587,3.894c-0.079-1.648-4.542-1.434-4.463,0.214
			c0.041,0.345,0.126,0.683,0.237,1.012c-1.422-2.511-3.805-4.476-6.561-5.341c-3.195-1.003-6.824-0.515-9.64,1.297
			c-2.057,1.323-3.711,3.416-4.075,5.834c-0.353,2.351,0.725,4.946,2.808,6.065c-0.374-0.079-0.565,0.902-0.243,1.397
			c-6.508-2.609-13.229-5.26-20.24-5.165c-2.77,0.038-6.268,1.306-6.244,4.076c0.012,1.35,0.927,2.509,1.861,3.484
			c3.551,3.706,8.08,6.466,13.001,7.923l48.352,1.03L397.657,348.936z"/>
		<path style="fill:#D9F2FF;" d="M243.421,271.999c-0.717-1.059-1.364-2.17-1.904-3.355c-2.26-4.959-2.282-11.53,1.345-15.45
			c3.627-3.92,11.154-3.002,12.689,2.267c-0.551-3.236-1.1-6.593-0.342-9.781c0.757-3.188,3.206-6.166,6.275-6.275
			c5.061-0.18,7.518,6.663,7.53,12.086c1.97-2.828,4.966-5.105,8.261-5.068c3.294,0.037,6.588,3.081,6.274,6.593
			c-0.301,3.364-3.201,7.58-0.528,9.376c3.688-8.603,12.945-14.037,21.699-12.738c3.585,0.532,7.551,2.793,7.901,6.651
			c0.312,3.434-2.413,6.504-2.293,9.951c1.235,0.07,2.47,0.14,3.706,0.21c-0.206,1.49,0.365,3.075,1.453,4.03
			c1.526-4.862,8.957-5.675,11.369-1.244c0.468,0.86,0.677,1.799,0.684,2.746H243.421z"/>
		<path style="fill:#D9F2FF;" d="M252.631,376.818c-0.575-1.039-1.093-2.129-1.527-3.292c-1.813-4.867-1.83-11.314,1.078-15.161
			c2.908-3.846,8.945-2.945,10.175,2.224c-0.442-3.175-0.882-6.469-0.275-9.598c0.607-3.128,2.571-6.05,5.032-6.157
			c4.058-0.176,6.029,6.538,6.038,11.86c1.58-2.775,3.983-5.01,6.624-4.973c2.642,0.036,5.283,3.023,5.031,6.47
			c-0.241,3.301-2.566,7.439-0.423,9.201c2.957-8.441,10.381-13.775,17.401-12.5c2.874,0.522,6.055,2.74,6.336,6.526
			c0.25,3.37-1.935,6.382-1.839,9.765c0.99,0.069,1.981,0.138,2.972,0.206c-0.165,1.462,0.293,3.018,1.165,3.955
			c1.224-4.771,7.183-5.569,9.117-1.221c0.375,0.844,0.543,1.765,0.549,2.695C312.406,395.79,282.444,386.207,252.631,376.818z"/>
		<path style="fill:#D9F2FF;" d="M360.355,191.623c0.594-0.682,1.13-1.397,1.578-2.161c1.873-3.194,1.891-7.426-1.114-9.95
			c-3.006-2.525-9.245-1.933-10.516,1.46c0.457-2.084,0.911-4.246,0.284-6.299c-0.627-2.053-2.657-3.971-5.201-4.041
			c-4.194-0.116-6.231,4.291-6.24,7.784c-1.633-1.822-4.116-3.288-6.847-3.264c-2.73,0.024-5.46,1.984-5.2,4.246
			c0.25,2.167,2.653,4.882,0.437,6.038c-3.056-5.54-10.729-9.04-17.984-8.204c-2.971,0.343-6.258,1.799-6.549,4.283
			c-0.259,2.211,2,4.189,1.901,6.409c-1.024,0.045-2.048,0.09-3.072,0.136c0.171,0.959-0.303,1.98-1.204,2.595
			c-1.265-3.131-7.424-3.655-9.423-0.801c-0.388,0.554-0.561,1.158-0.567,1.769H360.355z"/>
		<g>
			<path style="fill:#B2A93B;" d="M289.646,269.207l0.743,1.186c-0.799,0.074-5.063,5.517-12.336,9.961
				c-7.274,4.444-21.233,5.973-21.233,5.973C259.943,277.954,272.69,260.936,289.646,269.207z"/>
			<path style="fill:#B2A93B;" d="M290.984,268.182l-0.1,1.403c-0.901-0.369-9.484,1.92-20.505,1.739
				c-11.021-0.181-26.94-6.438-26.94-6.438C253.006,259.505,279.223,252.03,290.984,268.182z"/>
			<path style="fill:#B2A93B;" d="M288.99,267.778l-1.313,0.894c0.873,0.674,3.52,10.39,9.966,21.095
				c6.446,10.705,21.609,22.766,21.609,22.766C319.062,300.099,311.447,270.149,288.99,267.778z"/>
			<path style="fill:#CCBE40;" d="M287.287,268.95l0.056,0.934c0.303-0.324,3.276,0.49,7.046-0.562
				c3.769-1.052,9.118-6.597,9.118-6.597C300.148,259.918,291.056,257.111,287.287,268.95z"/>
			<path style="fill:#B2A93B;" d="M288.738,268.099l-1.605-0.392c0.216,0.919-4.281,7.681-6.533,17.433
				c-2.252,9.752,1.26,25.89,1.26,25.89C290.063,304.461,304.342,283.971,288.738,268.099z"/>
			<path style="fill:#683E43;" d="M287.957,270.246l-1.126-0.4c0,0-31.108,50.43-23.677,127.142l8.386,5.068
				C254.85,327.375,287.957,270.246,287.957,270.246z"/>
			<path style="fill:#CCBE40;" d="M311.797,306.039c4.165,3.877,7.455,6.494,7.455,6.494c-0.177-11.651-6.875-38.681-26.195-43.989
				C306.262,275.626,310.997,293.557,311.797,306.039z"/>
			<path style="fill:#CCBE40;" d="M246.519,263.35c11.937-3.737,29.196-5.153,38.193,6.994c3.468-0.488,5.733-0.938,6.172-0.758
				l0.1-1.403C280.318,253.533,257.762,258.318,246.519,263.35z"/>
			<path style="fill:#CCBE40;" d="M287.043,285.189c-6.001-7.387-1.539-21.082,1.385-20.005c2.924,1.077,7.611,3.545,7.387,7.848
				C295.35,281.947,287.043,285.189,287.043,285.189z"/>
		</g>
		<path style="fill:#A09535;" d="M314.237,348.28c0.125,0.157,0.245,0.309,0.364,0.458c0.117,0.146,0.228,0.283,0.339,0.42
			c0.111,0.137,0.219,0.27,0.323,0.397c0.109,0.133,0.21,0.254,0.311,0.376c0.096,0.115,0.189,0.228,0.277,0.333
			c0.094,0.112,0.175,0.208,0.259,0.307c0.074,0.088,0.15,0.178,0.216,0.255c0.084,0.098,0.15,0.175,0.219,0.255
			c0.052,0.06,0.106,0.124,0.15,0.173c0.071,0.081,0.118,0.135,0.165,0.188c0.019,0.022,0.044,0.051,0.059,0.068
			c0.052,0.059,0.082,0.092,0.082,0.092c0.068-0.442,0.126-0.927,0.173-1.444c0.016-0.17,0.023-0.361,0.036-0.538
			c0.027-0.361,0.053-0.721,0.068-1.11c0.009-0.228,0.008-0.474,0.012-0.711c0.007-0.366,0.015-0.729,0.011-1.113
			c-0.003-0.266-0.015-0.544-0.024-0.818c-0.011-0.376-0.023-0.75-0.046-1.139c-0.017-0.297-0.044-0.599-0.069-0.902
			c-0.031-0.386-0.063-0.77-0.105-1.164c-0.034-0.316-0.077-0.635-0.12-0.956c-0.052-0.392-0.106-0.783-0.17-1.179
			c-0.053-0.33-0.115-0.659-0.177-0.991c-0.074-0.395-0.154-0.788-0.242-1.184c-0.074-0.335-0.155-0.667-0.239-1.001
			c-0.1-0.395-0.207-0.786-0.321-1.178c-0.097-0.334-0.198-0.664-0.306-0.995c-0.127-0.388-0.264-0.77-0.406-1.152
			c-0.122-0.327-0.245-0.652-0.379-0.974c-0.156-0.376-0.326-0.744-0.499-1.111c-0.147-0.313-0.293-0.625-0.453-0.93
			c-0.19-0.362-0.398-0.711-0.606-1.06c-0.173-0.291-0.341-0.583-0.527-0.864c-0.229-0.345-0.48-0.671-0.73-1
			c-0.197-0.26-0.386-0.526-0.596-0.774c-0.278-0.328-0.583-0.629-0.884-0.935c-0.215-0.219-0.418-0.449-0.645-0.655
			c-0.353-0.319-0.739-0.603-1.122-0.89c-0.211-0.158-0.403-0.334-0.624-0.481c-0.318-0.213-0.67-0.386-1.008-0.576
			c2.317-0.388,5.745-2.9,5.745-2.9c-1.487-1.743-5.58-3.922-8.849,0.074c-0.073-0.044-0.153-0.097-0.223-0.137
			c-0.018-0.01-0.041-0.006-0.06-0.014c-0.07-0.095-0.152-0.174-0.225-0.266c-0.274-0.347-0.548-0.693-0.85-1.005
			c-0.18-0.186-0.375-0.35-0.564-0.524c-0.288-0.265-0.576-0.528-0.883-0.765c-0.214-0.165-0.437-0.314-0.659-0.466
			c-0.308-0.211-0.618-0.417-0.941-0.604c-0.238-0.138-0.481-0.266-0.727-0.392c-0.329-0.169-0.662-0.328-1.002-0.476
			c-0.255-0.11-0.51-0.215-0.77-0.313c-0.351-0.133-0.706-0.254-1.065-0.366c-0.263-0.082-0.524-0.165-0.79-0.237
			c-0.372-0.101-0.748-0.187-1.127-0.269c-0.262-0.057-0.522-0.118-0.786-0.166c-0.401-0.073-0.805-0.129-1.21-0.183
			c-0.245-0.033-0.489-0.073-0.735-0.099c-0.46-0.049-0.919-0.079-1.378-0.106c-0.191-0.011-0.382-0.032-0.572-0.04
			c-0.648-0.027-1.292-0.034-1.929-0.024c-0.119,0.002-0.234,0.012-0.352,0.015c-0.518,0.014-1.032,0.035-1.535,0.07
			c-0.232,0.016-0.453,0.042-0.681,0.062c-0.383,0.034-0.765,0.068-1.136,0.113c-0.245,0.03-0.478,0.065-0.717,0.099
			c-0.339,0.048-0.676,0.096-1.001,0.151c-0.237,0.04-0.463,0.084-0.692,0.127c-0.307,0.058-0.607,0.118-0.898,0.181
			c-0.221,0.049-0.433,0.098-0.644,0.149c-0.137,0.033-0.287,0.063-0.419,0.097c0.024-0.003,0.05-0.005,0.074-0.009
			c-0.747,0.191-1.445,0.392-2.03,0.601c0,0,7.746,4.673,14.025,6.21c-3.892,1.906-6.965,5.323-8.329,7.674
			c0,0,8.324,0.496,13.024-1.381c1.229-0.491,2.337-1.041,3.323-1.587c-6.315,8.736-21.089,32.674-23.666,68.375l4.404,3.802
			c-1.566-30.523,9.259-54.134,16.518-66.334c-1.792,5.597-1.408,14.079-1.408,14.079c3.485-1.934,8.979-6.947,10.533-13.141
			c0.252,0.741,0.523,1.496,0.825,2.267c1.447,3.694,4.309,7.852,6.664,10.932c0,0.001,0,0.003,0,0.004
			c0.066,0.087,0.128,0.165,0.193,0.25c0.129,0.167,0.253,0.328,0.378,0.488C313.986,347.962,314.112,348.122,314.237,348.28z"/>
		<path style="fill:#B2A93B;" d="M273.125,368.589c2.871-4.616,4.522-10.375,4.666-17.155c-5.446,2.126-9.916,5.256-13.279,9.051
			c1.399-6.583,1.309-13.373-2.486-19.679c-5.822,5.021-8.67,10.289-9.862,15.788c-1.317-3.527-3.057-6.892-5.192-9.994
			l4.657,29.585l1.325-0.663l6.225,0.555l1.517,0.506c-0.094,0.156-0.194,0.302-0.284,0.463l6.89,7.036
			c12.186,0.352,19.935-15.104,19.935-15.104S280.28,367.247,273.125,368.589z"/>
		<path style="fill:#CCBE40;" d="M273.125,368.589c2.871-4.616,4.522-10.375,4.666-17.155c-5.446,2.126-9.916,5.256-13.279,9.051
			c0.115-0.544,0.216-1.089,0.311-1.635c-3.391,5.742-4.485,10.711-2.351,12.607c1.968,1.749,6.211,0.457,11.018-2.926
			C273.368,368.551,273.247,368.566,273.125,368.589z"/>
		<path style="fill:#CCBE40;" d="M276.313,368.182c-5.1,3.017-8.118,6.397-7.26,8.66c0.846,2.23,5.227,2.776,10.922,1.713
			c4.621-4.314,7.263-9.577,7.263-9.577S282.212,367.735,276.313,368.182z"/>
		<path style="fill:#CCBE40;" d="M265.314,354.371c0.189-4.601-0.66-9.199-3.288-13.565c-4.299,3.708-6.969,7.551-8.555,11.522
			c-0.687,6.275,0.388,11.116,2.97,11.805C259.17,364.86,262.746,360.729,265.314,354.371z"/>
		<polygon style="fill:#FFA943;" points="257.993,416.603 409.516,416.603 405.427,390.628 251.055,372.525 		"/>
		<polygon style="fill:#EF9533;" points="257.993,416.603 409.516,416.603 408.944,412.967 254.083,391.768 		"/>
		<path style="fill:#A09535;" d="M407.198,401.878l-0.752-4.775l-10.114,9.538l-2.32-16.672l-8.442,19.48l-6.223-16.326
			l-0.756,20.727l-10.868-8.409c0,0,3.694,5.949,7.749,11.163h34.044l-1.623-10.31l-1.747,1.192L407.198,401.878z"/>
		<polygon style="fill:#7A4141;" points="363.612,142.164 406.811,416.603 409.516,416.603 365.905,139.544 214.381,139.544 
			214.794,142.164 		"/>
		<path style="fill:#EDB984;" d="M346.491,189.282l-23.761-10.846c0,0-0.384-30.461,22.426-52.683l10.398,5.235l-9.466,32.89
			l11.078,4.84L346.491,189.282z"/>
		<path style="fill:#E79B69;" d="M347.034,163.582l8.52-32.593l-10.398-5.235c-1.058,1.03-2.05,2.083-3.01,3.146
			c2.718,6.15,2.615,16.715-0.823,27.882c-3.395,11.025-9.148,19.752-14.786,23.394l19.954,9.108l12.389-21.502L347.034,163.582z"/>
		<path style="fill:#CEAF7A;" d="M389.815,122.314c-0.328-1.771-2.401-3.648-6.897-5.238c-4.496-1.59-2.987-4.779-4.908-5.553
			c-1.921-0.775-7.631-3.971-16.679,7.942l20.532,21.831C381.863,141.295,390.143,124.084,389.815,122.314z"/>
		<path style="fill:#BC9A68;" d="M370.133,121.197c-2.81-0.87-5.356-2.013-7.541-3.302c-0.415,0.5-0.831,1.002-1.262,1.569
			l20.532,21.831c0,0,8.281-17.211,7.952-18.981c-0.112-0.602-0.444-1.217-0.986-1.828
			C385.526,123.23,378.052,123.65,370.133,121.197z"/>
		<g>
			<path style="fill:#E79B69;" d="M350.085,116.936c1.939-0.556,4.865,0.19,7.145,2.102c2.28,1.912,2.16,4.626,1.745,5.458
				c-0.415,0.833-3.169,2.161-4.445-0.511c-1.276-2.672-3.211-2.024-3.211-2.024L350.085,116.936z"/>
			<path style="fill:#E79B69;" d="M349.857,116.003c-5.288-0.255-9.574,9.171-10.222,13.923c-0.648,4.752,10.854,9.377,13.575,8.33
				c2.721-1.047,4.725-3.572,3.914-6.66c-0.811-3.088,2.7-3.836,2.768-5.009C360.063,123.654,353.203,116.164,349.857,116.003z"/>
			<path style="fill:#E79B69;" d="M355.839,120.846c2.093,0.172,4.665,1.852,6.179,4.353c1.514,2.502,0.395,4.892-0.317,5.495
				c-0.711,0.603-3.882,0.841-4.138-1.994c-0.256-2.836-2.378-2.924-2.378-2.924L355.839,120.846z"/>
		</g>
		<path style="fill:#E8C787;" d="M366.944,147.296c-26.806-18.638-35.467-40.982-31.593-50.589
			c3.874-9.606,28.828,22.124,38.44,32.999s26.393,26.131,26.208,32.682C399.815,168.941,383.518,158.819,366.944,147.296z"/>
		<path style="fill:#DDB978;" d="M383.055,139.62c-6.729,1.858-15.262,2.299-24.759,1.02c2.644,2.251,5.517,4.479,8.647,6.656
			c16.573,11.523,32.87,21.645,33.055,15.093C400.133,157.677,391.494,148.468,383.055,139.62z"/>
		<path style="fill:#C69C60;" d="M368.519,132.632c-5.634-6.1-11.115-10.2-12.243-9.158c-1.128,1.042,2.524,6.832,8.158,12.932
			c5.634,6.1,11.115,10.2,12.243,9.158C377.805,144.522,374.152,138.732,368.519,132.632z"/>
		<path style="fill:#AF844A;" d="M366.873,130.906c-5.018-5.122-9.58-8.373-10.597-7.433c-0.91,0.841,1.294,4.772,5.136,9.462
			C362.984,132.031,364.831,131.329,366.873,130.906z"/>
		<path style="fill:#EDB984;" d="M434.918,341.557c-0.86-2.022-14.478-49.374-14.478-49.374s-1.208-19.437-4.608-37.039
			l-30.549,4.024l-1.51,36.571c0,0,19.652,48.888,26.115,55.85c6.462,6.962,68.619,58.05,68.619,58.05
			S435.778,343.579,434.918,341.557z"/>
		<path style="fill:#E79B69;" d="M435.261,342.172c-0.186-0.314-0.306-0.528-0.342-0.615c-0.86-2.022-14.478-49.374-14.478-49.374
			s-1.208-19.437-4.608-37.039l-30.549,4.024l-1.51,36.571c0,0,11.817,29.395,20.138,45.842
			C413.343,340.336,423.994,340.498,435.261,342.172z"/>
		<path style="fill:#F4DBAE;" d="M393.234,326.038l38.552-11.337l-7.771-24.885c0,0-1.768-28.466-6.662-32.719l-44.121,7.74
			L393.234,326.038z"/>
		<path style="fill:#F2648F;" d="M348.346,162.607l-4.069,34.196c0,0,15.606,8.767,25.103,12.922
			c8.579,3.753,24.078-26.656,24.078-26.656C370.068,171.554,348.346,162.607,348.346,162.607z"/>
		<path style="fill:#D84A79;" d="M346.354,179.939l-2.078,16.864c0,0,15.606,8.767,25.102,12.922
			c4.488,1.964,10.868-5.424,15.935-12.915C369.059,188.885,353.81,182.795,346.354,179.939z"/>
		<path style="fill:#EDB984;" d="M402.79,269.339l-27.468-4.317c0,0-4.747,12.323-6.913,16.311
			c-11.082,20.4-52.594,85.848-67.26,125.146l0.714,0.088c0,0,89.125-89.766,97.782-109.065
			C405.004,285.557,402.79,269.339,402.79,269.339z"/>
		<path style="fill:#E79B69;" d="M402.789,269.339l-27.468-4.317c0,0-4.747,12.323-6.913,16.311
			c-4.504,8.291-14.035,24.024-24.747,42.419c2.65,10.204,4.736,21.343,6.104,33.114c22.658-24.184,45.69-50.025,49.88-59.363
			C405.004,285.557,402.789,269.339,402.789,269.339z"/>
		<path style="fill:#FFEBC0;" d="M349.753,310.583l33.113,17.992c0,0,27.62-32.153,29.796-39.949
			c2.176-7.796,4.627-26.939,4.627-26.939l-43.642-0.037c0,0-1.428,5.908-2.183,7.851
			C370.708,271.444,349.753,310.583,349.753,310.583z"/>
		<path style="fill:#F2D69E;" d="M373.647,261.65c0,0-0.97,4.011-1.734,6.509c1.579,0.678,3.059,1.551,4.402,2.651
			c11.727,9.605,9.329,32.13-5.021,51.477l11.572,6.288c0,0,27.62-32.153,29.796-39.949c2.176-7.796,4.627-26.939,4.627-26.939
			L373.647,261.65z"/>
		<path style="fill:#F2648F;" d="M371.451,266.334c17.566,7.842,49.783-2.982,49.783-2.982s-6.708-63.313-13.729-70.091
			c-7.021-6.777-27.789-17.684-34.422-16.561c-6.633,1.123-14.823,28.12-6.542,42.851
			C368.625,235.432,371.451,266.334,371.451,266.334z"/>
		<path style="fill:#D84A79;" d="M404.017,189.899c-8.876-6.552-24.585-15.212-30.291-14.246
			c-2.853,0.483-21.369,8.847-8.928,11.785c0.22,4.384,3.026,10.142,7.77,12.089C381.679,203.27,395.766,198.778,404.017,189.899z"
			/>
		<polygon style="fill:#F2D69E;" points="369.433,188.249 367.971,193.929 372.189,192.579 		"/>
		<path style="fill:#D84A79;" d="M407.504,193.262c-0.883-0.853-1.985-1.771-3.248-2.722c-10.326,1.877-17.789,4.909-14.35,32.724
			c1.124,9.092,4.969,38.116,7.449,45.316c12.744-1.49,23.878-5.227,23.878-5.227S414.525,200.039,407.504,193.262z"/>
		<path style="fill:#EDB984;" d="M427.593,198.83c10.16,5.549,23.431,17.789,23.431,17.789l21.98,42.704l-11.801,10.431
			l-27.001-35.794l-18.91-12.652L427.593,198.83z"/>
		<path style="fill:#E79B69;" d="M437.129,227.195c6.306-3.699,15.537-0.337,23.254,7.608l-9.359-18.184
			c0,0-13.271-12.241-23.431-17.789l-12.301,22.478l17.096,11.438C433.438,230.351,435.016,228.435,437.129,227.195z"/>
		<path style="fill:#F2648F;" d="M388.288,181.808c24.517,5.323,48.544,20.154,48.544,20.154l-14.277,29.312
			c0,0-24.043-9.245-30.862-15.741C384.872,209.036,388.288,181.808,388.288,181.808z"/>
		<g>
			<path style="fill:#D84A79;" d="M399.743,220.101c-1.892-0.818-3.729-1.668-5.513-2.541c8.872,6.232,28.324,13.713,28.324,13.713
				l1.771-3.636C417.061,226.43,408.542,223.904,399.743,220.101z"/>
			<path style="fill:#D84A79;" d="M411.139,193.738c9.218,3.985,17.232,8.707,23.181,13.38l2.512-5.157
				c0,0-24.027-14.831-48.544-20.154c0,0-0.226,1.813-0.446,4.606C394.815,187.699,402.86,190.16,411.139,193.738z"/>
		</g>
		<path style="fill:#D84A79;" d="M386.847,180.827c0,0-0.675,10.272,0.663,19.154c1.454-0.317,2.924-0.711,4.399-1.212
			c7.034-2.391,12.687-6.435,16.005-10.915C401.734,185.457,393.59,182.291,386.847,180.827z"/>
		<polygon style="fill:#D27558;" points="376.278,168.344 366.262,180.874 371.408,193.225 384.745,179.54 		"/>
		<path style="fill:#593E37;" d="M385.543,154.246c-0.46-1.155-2.067-1.717-3.11-0.879c0.645-1.046,0.065-2.405-0.911-2.964
			c-0.976-0.559-2.206-0.536-3.375-0.499c-0.455,0.014-1.11,0.271-0.993,0.704c-0.038-3.292-3.563-5.724-6.745-4.653
			c0.206-1.407,0.41-2.856,0.081-4.188c-0.329-1.332-1.324-2.536-2.696-2.648c-2.143-0.174-3.965,2.662-3.256,4.666
			c-0.846-0.346-1.907,0.449-2.229,1.375c-0.323,0.926-0.125,1.898,0.077,2.81c-0.385-0.34-0.834-0.695-1.562-0.412
			c-1.79,0.696-1.743,2.724-1.365,4.489c0.378,1.765,1.831,3.154,3.602,3.442l8.309,20.462c3.537-0.422,6.941-2.968,8.461-6.33
			c0.406-0.897,0.688-1.876,0.569-2.808c-0.12-0.932-0.713-1.799-1.609-2.01c1.102-0.531,2.302-1.159,2.82-2.276
			c0.318-0.686,0.133-1.541-0.32-2.017c0.098-0.039,0.194-0.082,0.276-0.134c1.127-0.709,2.281-1.441,3.122-2.486
			C385.528,156.844,386.002,155.4,385.543,154.246z"/>
		<path style="fill:#EDB984;" d="M358.58,184.35c-1.725-3.749-0.314-29.144,3.401-32.635c3.716-3.49,10.653,1.094,12.822,4.947
			c2.169,3.853-0.875,22.988-1.378,24.051C372.923,181.777,359.991,185.389,358.58,184.35z"/>
		<path style="fill:#593E37;" d="M375.75,169.805l-5.915-6.305c-0.375,7.423-1.806,7.761-1.806,7.761s-8.53-0.563-10.039,0.415
			c-1.51,0.978-1.135,5.252-1.135,5.252s-4.049,6.598,0,8.772c4.049,2.174,11.247-1.725,11.247-1.725s6.298-0.9,7.123-3.524
			C376.05,177.827,375.75,169.805,375.75,169.805z"/>
		<path style="fill:#FFDD92;" d="M479.361,430.035c10.557-2.795,5.565-26.579,5.565-26.579s-8.941-3.816-11.908-0.119
			c-2.967,3.696,5.3,9.319,7.116,13.529C482.837,423.134,479.361,430.035,479.361,430.035z"/>
		<path style="fill:#FFDD92;" d="M278.78,400.982c-1.189,9.656,20.132,13.414,20.132,13.414s6.119-6.128,4.047-9.807
			c-2.073-3.68-9.463,1.293-13.546,1.398C283.333,406.144,278.78,400.982,278.78,400.982z"/>
		<path style="fill:#CECB5D;" d="M547.022,84.757h-126.91c-4.92,0-8.908,3.538-8.908,7.904v54.07c0,4.365,3.988,7.904,8.908,7.904
			h126.91c4.92,0,8.908-3.538,8.908-7.904v-54.07C555.93,88.296,551.942,84.757,547.022,84.757z"/>
		<polygon style="fill:#CECB5D;" points="467.542,141.533 438.717,141.533 415.571,179.965 		"/>
		<path style="fill:#D3CBBA;" d="M314.983,130.676h-31.663c-0.905,0-1.481,0.733-1.287,1.638c0.194,0.904,1.084,1.638,1.989,1.638
			h31.663c0.904,0,1.48-0.733,1.287-1.638C316.777,131.409,315.887,130.676,314.983,130.676z"/>
		<path style="fill:#593E37;" d="M374.438,152.485c-6.298,4.724-4.586,19.643-4.586,19.643l5.599-0.186l2.024-13.946
			L374.438,152.485z"/>
		<path style="fill:#EDB984;" d="M377.266,170.793c1.074-2.102,0.901-4.339-0.387-4.997c-1.288-0.658-3.203,0.512-4.277,2.613
			c-1.074,2.102-0.901,4.339,0.387,4.997C374.277,174.065,376.192,172.895,377.266,170.793z"/>
		<polygon style="fill:#F2D69E;" points="372.301,197.359 369.827,190.386 382.707,176.845 385.91,179.14 		"/>
		<path style="fill:#D27558;" d="M376.506,170.666c0.689-1.348,0.578-2.784-0.248-3.206c-0.826-0.422-2.055,0.328-2.744,1.677
			c-0.689,1.348-0.578,2.784,0.248,3.206C374.588,172.765,375.817,172.015,376.506,170.666z"/>
		<path style="fill:#EDB984;" d="M374.918,172.114c0.377-0.737,0.224-1.569-0.34-1.857c-0.565-0.289-1.328,0.075-1.705,0.812
			c-0.377,0.737-0.224,1.569,0.34,1.857S374.541,172.851,374.918,172.114z"/>
		<g>
			<path style="fill:#8E5252;" d="M465.625,278.159c0,0,11.919-8.707,13.286-8.447c1.232,0.234,11.272,6.67,13.26,7.95l3.35-2.044
				c0,0-15.914-10.008-17.719-10.336c-1.805-0.328-18.047,10.664-18.047,10.664s1.379,9.522,4.825,18.546l4.721-2.88
				C466.786,284.858,465.625,278.159,465.625,278.159z"/>
			<path style="fill:#8E5252;" d="M445.999,299.577c-0.345,9.118,27.828,54.143,27.828,54.143l73.962-48.568
				c0,0-27.994-36.128-40.856-41.816L445.999,299.577z"/>
			<path style="fill:#A36666;" d="M533.648,288.046c-8.886-10.187-19.915-21.702-26.715-24.709l-60.934,36.241
				c-0.058,1.534,0.704,4.1,1.991,7.282c7.942,1.847,16.752,2.883,26.04,2.883C501.599,309.742,525.028,300.679,533.648,288.046z"/>
			<path style="fill:#7A4141;" d="M506.933,263.336l-0.404,0.24c13.713,12.155,32.796,38.788,32.796,38.788l-68.12,47.102
				c1.62,2.654,2.621,4.254,2.621,4.254l73.962-48.568C547.789,305.152,519.795,269.024,506.933,263.336z"/>
			<path style="fill:#7A4141;" d="M479.527,349.977c-10.663-17.106-30.168-48.167-30.763-47.453
				c-0.715,0.857,6.418,22.628,27.349,49.695L479.527,349.977z"/>
			<path style="fill:#7A4141;" d="M506.35,329.102c-3.938-2.953-6.07-10.664-3.773-11.32c2.297-0.656,8.531,7.547,8.695,8.039
				C511.436,326.313,506.35,329.102,506.35,329.102z"/>
			<path style="fill:#FFCC4D;" d="M505.414,326.641c-3.43-2.573-5.289-9.291-3.288-9.863c2.001-0.572,7.433,6.575,7.576,7.004
				C509.845,324.211,505.414,326.641,505.414,326.641z"/>
		</g>
		<path style="opacity:0.59;fill:#EFE5CE;" d="M213.081,165.587h-5.568c-0.737,0-1.24,0.597-1.124,1.334l6.771,43.014
			c0.116,0.737,0.807,1.334,1.544,1.334h5.568L213.081,165.587z"/>
		<path style="opacity:0.59;fill:#EFE5CE;" d="M221.22,216.46h-5.568c-0.737,0-1.24,0.597-1.124,1.334l6.771,43.014
			c0.116,0.737,0.807,1.334,1.544,1.334h5.568L221.22,216.46z"/>
		<polygon style="fill:#FFEBC0;" points="377.11,216.761 387.251,219.575 388.131,223.416 383.722,225.394 377.783,220.868 		"/>
		<path style="fill:#D84A79;" d="M394.819,268.845l-9.022-34.147c0,0,0.427,16.828,3.862,34.452
			C391.382,269.102,393.109,269,394.819,268.845z"/>
		<g>
			<path style="fill:#EDB984;" d="M468.087,280.456c-4.989-0.204-9.215-10.001-9.917-14.809
				c-0.702-4.808,8.695-12.476,11.284-11.193c2.59,1.283,5.908,8.024,5.2,11.042c-0.708,3.017,2.622,4.07,2.709,5.249
				C477.58,273.693,471.243,280.586,468.087,280.456z"/>
		</g>
		<g>
			<g>
				<path style="fill:#FFFADE;" d="M438.061,96.386c0.249,0.32,0.356,0.533,0.356,0.711c0,0.356-0.392,0.534-0.784,0.783
					c-0.533,0.356-2.385,1.922-2.918,2.206c-0.107,0.071-0.213,0.106-0.284,0.106c-0.356,0-0.533-0.427-0.748-0.676
					c-0.32-0.32-0.925-1.316-2.17-1.316c-1.245,0-2.277,1.21-2.277,6.333c0,5.088,1.493,6.654,2.384,6.654
					c0.889,0,1.352-0.285,1.742-1.53c0.215-0.676,0.571-0.854,0.925-0.854c0.32,0,0.64,0.142,0.891,0.178
					c0.497,0.178,3.13,0.748,4.126,0.925c0.392,0.072,0.497,0.428,0.497,0.854c0,0.178,0,0.356-0.034,0.534
					c-0.036,0.392-0.143,0.783-0.287,1.245c-0.64,1.957-2.454,5.942-7.897,5.942c-3.737,0-9.643-3.025-9.643-13.804
					c0-10.78,5.658-12.347,8.895-12.347C435.961,92.329,437.314,95.424,438.061,96.386z"/>
				<path style="fill:#FFFADE;" d="M453.783,104.106c1.032,0,2.776,0,4.234-0.036c0.855,0,1.744,0,2.669-0.035v-1.068
					c0-0.605-0.036-1.353-0.036-1.957c0-1.209,0.215-7.578,0.215-8.04c0.033-0.286,0.213-0.32,0.389-0.32
					c0.143,0,0.284,0.035,0.392,0.035c0.143,0.036,0.32,0.036,0.533,0.036c0.179,0,0.428,0,0.607,0.072
					c0.248,0.071,0.356,0.178,0.356,0.355c0,0.072-0.036,0.178-0.072,0.285c-0.036,0.391-0.179,1.459-0.32,3.06
					c-0.143,1.601-0.249,9.214-0.249,10.781c0,1.601-0.215,6.901-0.215,7.542c0,0.356-0.036,0.926-0.036,1.424
					c0,0.426,0.036,0.783,0.072,1.031c0.036,0.106,0.036,0.178,0.036,0.214c0,0.284-0.213,0.214-0.356,0.248
					c-0.177,0.036-0.889,0.072-1.281,0.072c-0.249,0-0.284-0.178-0.284-0.356c0,0.961,0.036-3.273,0.036-5.194
					c-0.036-0.747,0-2.383,0-3.807v-2.632l-2.882,0.071c-1.531,0.036-3.309,0.036-4.129,0.036h-3.343c-0.676,0-1.352,0-2.1-0.036
					c0,0.284,0,0.604-0.036,0.925c-0.036,0.57-0.072,1.352-0.072,2.171c0,0.818-0.036,2.349-0.036,3.842
					c0,1.494,0.036,2.989,0.179,3.701c0.036,0.213,0.072,0.391,0.072,0.533c0,0.854-0.712,0.712-1.245,0.712
					c-0.676-0.036-1.852,0-2.848,0.106c-0.996,0.107-0.817-0.711-0.817-2.241c0-1.459-0.072-10.139-0.072-12.31
					c0-2.277,0.072-8.326,0.072-9.214c0-1.068,0.32-1.104,0.676-1.104c0.248,0,0.497,0.036,0.781,0.036
					c0.251,0,0.499-0.036,0.82-0.071c0.177-0.036,0.392-0.036,0.604-0.036c0.604,0,1.209,0.071,1.708,0.071
					c0.676,0,0.533,0.64,0.533,1.068c0,0.427-0.036,2.277-0.143,4.234l-0.141,3.522l-0.108,2.099l2.136,0.072
					C451.329,104.035,452.751,104.106,453.783,104.106z"/>
				<path style="fill:#FFFADE;" d="M486.44,105.28c0,2.419-0.674,13.058-10.245,13.058c-4.803,0-7.151-3.415-8.396-6.867
					c-0.712-2.029-1.14-4.306-1.245-6.903c0-6.403,4.554-12.203,9.213-12.203c1.957,0,3.665-0.07,4.91,0.748
					C485.41,96.279,486.44,103.394,486.44,105.28z M483.489,105.28c0-5.799-2.741-10.816-6.974-10.816
					c-1.316,0-2.313-0.106-3.309,0.996c-1.032,1.032-4.375,3.914-4.375,9.5c0,5.585,1.885,11.385,7.187,11.385
					C481.353,116.345,483.489,111.115,483.489,105.28z"/>
				<path style="fill:#FFFADE;" d="M508.711,105.28c0,2.419-0.674,13.058-10.245,13.058c-4.803,0-7.151-3.415-8.396-6.867
					c-0.712-2.029-1.14-4.306-1.245-6.903c0-6.403,4.554-12.203,9.213-12.203c1.957,0,3.665-0.07,4.91,0.748
					C507.681,96.279,508.711,103.394,508.711,105.28z M505.76,105.28c0-5.799-2.741-10.816-6.974-10.816
					c-1.316,0-2.313-0.106-3.309,0.996c-1.032,1.032-4.375,3.914-4.375,9.5c0,5.585,1.885,11.385,7.187,11.385
					C503.624,116.345,505.76,111.115,505.76,105.28z"/>
				<path style="fill:#FFFADE;" d="M521.166,94.856c-3.453,0-4.982,1.815-4.982,3.95c0,2.17,2.029,3.486,3.806,4.447
					c1.816,0.854,7.615,1.993,7.615,8.041c0,6.119-5.763,6.973-8.859,6.973c-3.061,0-5.515-2.171-5.799-2.455
					c-0.284-0.249-0.284-0.462-0.179-0.64c0.108-0.178,0.499-1.067,0.784-1.067c0.036,0,0.072,0,0.072,0
					c0.213,0,0.177,0.035,0.712,0.569c0.569,0.57,2.774,1.637,4.055,1.637s5.302-0.142,5.302-4.198c0-2.028-2.812-3.095-5.55-4.696
					c-2.705-1.53-5.302-3.451-5.302-7.365c0-4.696,4.662-7.187,8.219-7.187c3.486,0,5.799,2.241,6.155,2.491
					c0.248,0.178,0.356,0.32,0.356,0.498c0,0.106-0.036,0.178-0.143,0.284c-0.177,0.178-0.64,1.068-0.925,1.068
					c-0.141,0-0.284-0.072-0.461-0.178l-0.251-0.214C525.4,96.528,523.157,94.856,521.166,94.856z"/>
				<path style="fill:#FFFADE;" d="M531.655,104.178c0-2.74-0.177-2.989-0.177-5.124c0-2.135,0.072-4.234,0.107-5.23
					c0-0.676,0.284-0.783,0.674-0.783c0.179,0,0.356,0.036,0.535,0.036c0.533,0,1.173,0.106,2.774,0.106
					c1.532,0,3.95-0.32,5.338-0.32c1.458,0,3.273,0.142,3.95,0.142c0.676,0,0.745,0.32,0.745,0.996c0,0.748,0.143,1.601,0.143,2.705
					c0,0.32,0,0.711-0.108,1.316c-0.036,0.427-0.249,0.533-0.497,0.533c-0.249,0-0.569-0.142-0.784-0.178
					c-0.533-0.106-1.601-0.106-3.094-0.106c-0.889,0-1.816-0.072-2.705-0.072c-0.32,0-0.64,0-0.961,0.036
					c-0.533,0.036-1.209,0.072-1.885,0.072c-0.855,0-1.672-0.036-1.885-0.036c-0.392,0-0.356,0.178-0.356,0.712
					c0,0.569-0.107,2.17-0.107,3.416v2.099c0,0.391,0,0.747,0.036,1.138c0.284,0.035,0.605,0.035,0.961,0.035
					c0.604,0.036,1.493,0.036,2.49,0.036c1.317,0,2.917-0.142,3.773-0.142c0.853,0,1.352,0.106,1.742,0.106
					c0.392,0,0.464,0.178,0.464,0.428c0,0.248-0.072,0.426-0.072,1.103s0.036,0.996,0.036,1.885c0,0.464-0.107,0.57-0.32,0.57
					c-0.141,0-0.392-0.106-0.64-0.106c-0.569,0-1.317-0.072-3.558-0.072c-2.277,0-3.806,0.284-4.198,0.284
					c-0.248,0-0.392,0-0.464-0.035c-0.105,0-0.177,0-0.213-0.036v3.558c0.108,0,0.249,0,0.392-0.036
					c0.249,0,0.604-0.036,0.996-0.036c0.817,0,2.597-0.035,4.198-0.035c1.173,0,3.058,0.07,4.482,0.07
					c0.64,0,1.173-0.036,1.493-0.036c0.607,0,0.712,0.32,0.712,0.748c0,0.213-0.036,0.498-0.036,0.711
					c0,0.712-0.036,1.459-0.036,2.491c0,0.996-0.569,0.783-1.706,0.783c-1.176,0-4.59-0.071-6.263-0.071
					c-1.708,0-5.158,0.142-5.622,0.142c-0.072,0-0.141,0.036-0.213,0.036c-0.32,0-0.284-0.285-0.284-0.606
					c-0.036-0.391-0.036-0.889-0.036-1.316c0-0.427-0.072-0.782-0.072-1.529v-4.874
					C531.407,107.557,531.655,106.917,531.655,104.178z"/>
			</g>
			<g>
				<path style="fill:#FFFADE;" d="M426.125,133.785c0.225,0.535,0.536,1.381,0.789,2.142c0.14,0.423,0.311,0.874,0.451,1.353
					l0.225-0.704l0.424-1.213c0.225-0.676,1.297-3.552,1.577-4.144c0.227-0.648,0.789-2.255,1.017-3.241
					c0.225-0.959,0.704-0.818,1.07-0.818c0.199,0,0.875-0.028,1.522-0.028c0.481,0,0.96,0.028,1.214,0.057
					c0.45,0.056,0.591,0.141,0.591,0.282c0,0.084-0.027,0.14-0.055,0.254c-0.142,0.338-0.706,2.199-1.157,3.27
					c-0.365,1.072-1.973,5.046-2.424,6.315c-0.536,1.269-2.51,6.231-2.622,6.71c-0.17,0.479-0.339,1.663-0.424,2.058
					c-0.112,0.423-0.197,0.593-0.451,0.564l-1.662,0.028c-0.424,0-1.778,0.027-2.228,0.027c-0.282,0-0.365-0.056-0.365-0.169
					c0-0.085,0.083-0.198,0.112-0.31l1.015-2.735c0.085-0.479,0.593-1.578,0.733-2.086c0.199-0.479,0.424-0.761,0.282-1.071
					c-0.14-0.282-0.536-1.748-0.844-2.453c-0.31-0.761-0.507-1.663-0.818-2.537c-0.339-0.818-1.946-5.582-2.172-6.316
					c-0.225-0.761-0.536-1.183-0.536-1.494s0.424-0.338,0.846-0.366c0.422-0.028,0.93,0,1.41,0.028
					c0.451,0.084,0.28,0.282,0.394,0.592l0.704,2.34C425.054,131.079,425.675,132.742,426.125,133.785z"/>
				<path style="fill:#FFFADE;" d="M452.228,136.576c0,1.917-0.534,10.347-8.118,10.347c-3.805,0-5.666-2.706-6.653-5.441
					c-0.564-1.607-0.903-3.412-0.986-5.47c0-5.074,3.609-9.67,7.301-9.67c1.551,0,2.904-0.056,3.891,0.592
					C451.412,129.443,452.228,135.081,452.228,136.576z M449.89,136.576c0-4.595-2.172-8.571-5.526-8.571
					c-1.043,0-1.833-0.084-2.622,0.79c-0.818,0.818-3.466,3.101-3.466,7.528c0,4.426,1.494,9.021,5.695,9.021
					C448.197,145.344,449.89,141.199,449.89,136.576z"/>
				<path style="fill:#FFFADE;" d="M456.342,138.493c0,3.298,1.354,5.695,3.186,5.695c1.889,0,2.34-1.466,2.34-2.227
					c0-0.704,0.14-4.285,0.14-6.399c0-1.466,0.142-3.919,0.142-5.723c0-0.845-0.028-1.522-0.114-1.945
					c-0.055-0.225-0.083-0.395-0.083-0.536c0-0.704,0.536-0.563,0.789-0.563c0.309,0.028,1.352,0,2.001,0
					c0.647,0,0.592,0.225,0.619,0.677c0.028,0.31,0.057,0.902,0.057,1.522c0,0.31,0,0.62-0.028,0.902
					c-0.083,0.986,0.254,4.426,0.17,9.754c-0.085,5.272-3.046,6.879-5.78,6.879c-2.705,0-4.002-2.397-4.455-3.862
					c-0.282-0.931-0.394-3.101-0.394-4.821c0-0.959,0.028-1.776,0.085-2.142c0.055-0.395,0.055-1.41,0.055-2.622
					c0-1.945-0.055-4.341-0.112-5.131c-0.028-0.169-0.028-0.311-0.028-0.452c0-0.789,0.339-0.733,0.536-0.648
					c0.112,0,0.197,0.028,0.31,0.028c0.169,0,0.309-0.056,0.507-0.056c0.112,0,0.14,0.113,0.14,0.31
					C456.427,125.102,456.342,134.348,456.342,138.493z"/>
				<path style="fill:#FFFADE;" d="M481.487,145.823c0.282,0.452,0.396,0.677,0.396,0.818c0,0.197-0.254,0.169-0.536,0.169
					c-0.451,0-2.707,0.085-3.186,0.085c-0.479,0-0.536-0.705-1.212-2.03c-0.367-0.677-1.185-2.284-1.946-3.806l-1.437-2.791
					c0.085,1.324,0.14,2.537,0.225,3.637c0.085,1.86,0.197,3.862,0.282,4.172c0.029,0.113,0.029,0.198,0.029,0.282
					c0,0.451-0.282,0.564-0.818,0.479c-0.676-0.084-2.904,0.225-3.637,0.225c-0.536,0-0.619-0.225-0.619-0.62
					c0-0.169,0.026-0.395,0.026-0.648c0-0.648-0.225-4.454-0.225-6.737c0-0.705,0.028-1.27,0.085-1.551
					c0.114-0.564,0.14-2.199,0.14-3.975c0-2.059-0.055-4.285-0.112-5.159c-0.028-0.226-0.028-0.451-0.028-0.621
					c0-0.986,0.339-0.874,0.621-0.874c0.309,0,2.058-0.282,3.72-0.282c4.398,0,6.344,2.565,6.344,5.836
					c0,1.692-0.678,3.017-1.325,3.947c-0.367,0.536-0.818,1.043-1.297,1.466l1.973,3.58
					C479.993,143.286,481.093,145.258,481.487,145.823z M474.158,134.348c0.422-0.197,0.789-0.62,0.789-1.494
					c0-1.184-0.452-1.607-0.903-1.607c-0.197,0-0.394,0.085-0.536,0.225c-0.085,0.085,0.085,0.875,0,1.579
					c-0.085,0.366-0.112,0.677-0.112,0.987c0,0.084-0.028,0.169-0.028,0.254c0,0.084,0.028,0.14,0.028,0.225
					C473.679,134.518,473.933,134.461,474.158,134.348z"/>
				<path style="fill:#FFFADE;" d="M503.222,137.985c0,2.34,0.451,6.485,0.451,7.584c0.083,1.1-0.818,0.874-2.482,0.874
					c-1.691,0-5.807-0.113-6.371-0.113c-0.225,0-0.282-0.225-0.282-0.563c0-0.48,0.114-1.184,0.114-1.889
					c-0.028-0.366-0.057-1.324-0.057-2.565c0-2.932,0.085-7.442,0.254-9.445c0.057-0.733,0.057-1.381,0.057-1.973
					c0-0.875-0.028-1.607-0.085-2.086c-0.311-0.028-0.422-0.028-0.507-0.028c-0.451,0-2.03,0.057-2.34,0.057
					c-0.197,0-0.225-0.198-0.225-0.452c0-0.197,0.029-0.395,0.029-0.62c0-0.31,0.112-0.366,0.31-0.366
					c0.169,0,0.394,0.056,0.676,0.056l6.005-0.027c1.579,0,6.596-0.085,7.274-0.085c0.591,0.028,0.451,0.423,0.451,0.902
					c0.028,0.536-0.225,0.649-0.678,0.649c-0.45,0-1.07,0.057-2.395,0.028h-0.113C503.305,129.923,503.222,136.04,503.222,137.985z"
					/>
				<path style="fill:#FFFADE;" d="M521.654,145.823c0.282,0.452,0.396,0.677,0.396,0.818c0,0.197-0.254,0.169-0.536,0.169
					c-0.451,0-2.707,0.085-3.186,0.085c-0.479,0-0.536-0.705-1.212-2.03c-0.367-0.677-1.185-2.284-1.946-3.806l-1.437-2.791
					c0.085,1.324,0.14,2.537,0.225,3.637c0.085,1.86,0.197,3.862,0.282,4.172c0.028,0.113,0.028,0.198,0.028,0.282
					c0,0.451-0.282,0.564-0.818,0.479c-0.676-0.084-2.904,0.225-3.637,0.225c-0.536,0-0.619-0.225-0.619-0.62
					c0-0.169,0.027-0.395,0.027-0.648c0-0.648-0.225-4.454-0.225-6.737c0-0.705,0.028-1.27,0.085-1.551
					c0.114-0.564,0.14-2.199,0.14-3.975c0-2.059-0.055-4.285-0.112-5.159c-0.028-0.226-0.028-0.451-0.028-0.621
					c0-0.986,0.339-0.874,0.621-0.874c0.309,0,2.058-0.282,3.72-0.282c4.398,0,6.344,2.565,6.344,5.836
					c0,1.692-0.678,3.017-1.325,3.947c-0.367,0.536-0.818,1.043-1.297,1.466l1.973,3.58
					C520.161,143.286,521.261,145.258,521.654,145.823z M514.326,134.348c0.422-0.197,0.79-0.62,0.79-1.494
					c0-1.184-0.453-1.607-0.903-1.607c-0.197,0-0.394,0.085-0.536,0.225c-0.085,0.085,0.085,0.875,0,1.579
					c-0.085,0.366-0.112,0.677-0.112,0.987c0,0.084-0.028,0.169-0.028,0.254c0,0.084,0.028,0.14,0.028,0.225
					C513.847,134.518,514.1,134.461,514.326,134.348z"/>
				<path style="fill:#FFFADE;" d="M524.529,127.808c0-0.902,0.254-1.1,0.564-1.1c0.055,0,0.14,0,0.225,0.028
					c0.479,0.028,1.409-0.056,2.227,0.028c0.479,0.057,0.621,0.197,0.621,0.451c0,0.169-0.057,0.367-0.085,0.621
					c-0.085,0.648-0.311,2.255-0.339,4.933c-0.027,0.734-0.027,1.523-0.027,2.256c0,2.001,0.055,3.806,0.055,4.286
					c0,0.507,0.085,2.283,0.085,3.298c0,0.311,0,0.536-0.028,0.648c-0.028,0.113-0.028,0.366-0.028,0.649
					c0,0.789,0.057,1.974,0.057,2.396c0.028,0.536-0.422,0.564-0.846,0.536h-2.565c-0.648,0.028-0.648-0.395-0.676-0.874
					c-0.085-0.451,0.169-1.41,0.169-2.396c0-1.043,0.367-5.949,0.367-6.71c0-0.734,0.112-4.652,0.112-5.329
					c0-0.338,0.028-0.986,0.057-1.522l0.057-1.015V127.808z"/>
				<path style="fill:#FFFADE;" d="M532.168,127.047c0.704,0,2.423-0.282,3.692-0.282c3.779,0,6.203,0,7.473,1.494
					c0.761,0.931,1.719,1.889,1.719,3.778c0,3.412-2.454,5.075-4.82,5.892c-1.439,0.48-3.046,0.761-4.822,0.79l-0.057,3.073
					l-0.055,3.976c0,0.704-0.339,0.845-0.678,0.845c-0.225,0-0.451-0.057-0.619-0.057c-0.452,0-1.721,0.114-2.172,0.114
					c-0.451,0-0.536-0.367-0.536-0.902c0-0.508,0.114-4.596,0.114-6.09v-7.724c0-0.423,0.028-1.466,0.112-2.453l0.114-1.861
					C531.632,126.99,531.801,127.047,532.168,127.047z M537.552,137.168c1.155-0.084,2.537-0.282,3.412-0.704
					c1.297-0.62,1.973-1.579,1.973-3.44c0-0.62-0.057-1.353-0.225-2.226c-0.311-1.692-2.086-2.368-3.777-2.594
					c-0.564-0.084-1.157-0.113-1.804-0.113c-0.481,0-0.988,0.028-1.524,0.056l-0.168,9.107
					C536.17,137.28,536.876,137.253,537.552,137.168z"/>
			</g>
		</g>
		<g>
			<path style="fill:#593E37;" d="M365.579,155.752l4.554,1.688c0.383,0.142,0.606,0.618,0.5,1.064l-0.404,1.682
				c-0.107,0.446-0.505,0.692-0.888,0.551l-4.554-1.688c-0.383-0.142-0.606-0.618-0.499-1.064l0.404-1.681
				C364.798,155.857,365.195,155.61,365.579,155.752z"/>
			<path style="fill:#593E37;" d="M357.692,157.089l3.534-1.051c0.297-0.088,0.609,0.221,0.697,0.69l0.333,1.771
				c0.088,0.47-0.081,0.922-0.379,1.011l-3.533,1.051c-0.297,0.089-0.609-0.22-0.697-0.69l-0.333-1.771
				C357.225,157.629,357.395,157.177,357.692,157.089z"/>
			<path style="fill:#3E2D34;" d="M358.645,174.46l6.164-1.376c0,0,0.852,2.757-1.735,4.148
				C360.488,178.622,358.645,174.46,358.645,174.46z"/>
			<path style="fill:#F9EDDB;" d="M360.311,176.181c-0.633-0.7-1.005-1.54-1.005-1.54l4.977-1.111c0,0,0.239,0.788-0.003,1.662
				L360.311,176.181z"/>
			<path style="fill:#5A4949;" d="M364.634,164.837c0.197-1.629,1.034-2.861,1.869-2.751c0.835,0.11,1.353,1.519,1.156,3.148
				c-0.197,1.629-1.033,2.861-1.869,2.751C364.955,167.875,364.437,166.466,364.634,164.837z"/>
			<path style="fill:#5A4949;" d="M358.901,164.915c0.031-1.64,0.525-2.944,1.102-2.912c0.577,0.032,1.02,1.388,0.989,3.028
				c-0.031,1.64-0.525,2.944-1.102,2.912C359.312,167.911,358.87,166.555,358.901,164.915z"/>
			<path style="fill:#EDB984;" d="M367.809,166.794c0.048-1.774-0.828-3.215-1.957-3.219c-1.129-0.004-2.083,1.431-2.131,3.205
				c-0.048,1.774,0.828,3.215,1.957,3.219C366.807,170.003,367.761,168.568,367.809,166.794z"/>
			<path style="fill:#EDB984;" d="M361.467,166.37c-0.079-1.771-0.769-3.125-1.54-3.025c-0.771,0.1-1.332,1.617-1.253,3.388
				c0.079,1.771,0.769,3.125,1.54,3.025C360.986,169.658,361.546,168.141,361.467,166.37z"/>
			<path style="fill:#D27558;" d="M361.715,163.501c-1.659,3.637-2.353,5.983-1.41,6.945c0.589,0.601,1.563,0.522,2.351,0.321
				l0.009,0.074c0,0-2.504,1.207-3.55,0.301C358.078,170.245,359.287,167.645,361.715,163.501z"/>
		</g>
	</g>
</g>
</svg>
