<?xml version='1.0' encoding='utf-8'?>
<svg xmlns="http://www.w3.org/2000/svg" version="1.1" viewBox="0 0 365 365"> <g fill="none" stroke-width="2"> <path d="m57.95 57.31c3.38-19.67-25.56-21.79-28.16-2.91a0.42 0.42 0 0 1-0.46 0.37c-6.66-0.52-14.12 3.88-14.34 11.17q-0.01 0.47 0.46 0.48l54.13 0.33a1.52 1.52 0 0 0 1.46-1.96q-2.83-9.3-12.71-7.11-0.46 0.1-0.38-0.37" stroke="#f4e3dd" vector-effect="non-scaling-stroke"/> <path d="m142.7 75.98-7.2 0.31" stroke="#f09688" vector-effect="non-scaling-stroke"/> <path d="m135.5 76.29q-1.1 0.11-2.06-0.29-0.45-0.19-0.92-0.07-1.72 0.43-3.27-0.72" stroke="#eccdb4" vector-effect="non-scaling-stroke"/> <path d="m129.25 75.21c4.52-10.62-10.82-11.35-13.96-6.46q-1.59 2.46-0.5 6" stroke="#838e94" vector-effect="non-scaling-stroke"/> <path d="m114.79 74.75q-1.82 1.31-4.04 1.79" stroke="#eccdb4" vector-effect="non-scaling-stroke"/> <path d="m110.75 76.54q-2.71-0.96-5.35-0.51" stroke="#f09688" vector-effect="non-scaling-stroke"/> <path d="m105.4 76.03q-2.71-3.63-7.74-2.01-0.31 0.09-0.29 0.42l0.09 1.56" stroke="#838e94" vector-effect="non-scaling-stroke"/> <path d="m97.46 76c-11.33-1.28-24.57 3.63-26.25 16.25" stroke="#f2b0a0" vector-effect="non-scaling-stroke"/> <path d="m71.21 92.25q-9.15-2.41-13.9 4.99-0.27 0.42-0.77 0.46-7.24 0.5-8.29 7.57-0.23 1.48 1.28 1.48h21.68" stroke="#f4e3dd" vector-effect="non-scaling-stroke"/> <path d="m71.21 106.75-0.09 65.12" stroke="#f2b0a0" vector-effect="non-scaling-stroke"/> <path d="m71.12 171.87q-5.81 1.25-6.61 7.08-0.08 0.56-0.64 0.47-13.88-2.34-15.13 11.58-0.08 0.84 0.76 0.89 10.61 0.72 21.46 0.11" stroke="#f4e3dd" vector-effect="non-scaling-stroke"/> <path d="m70.96 192 0.08 18.25" stroke="#f09688" vector-effect="non-scaling-stroke"/> <path d="m71.04 210.25q0.01 4.59 0.02 9.18c0.01 3.08 1.24 4.89 2.4 7.57" stroke="#f2b0a0" vector-effect="non-scaling-stroke"/> <path d="m73.46 227q1.27 3.09 4.04 4.96" stroke="#f09688" vector-effect="non-scaling-stroke"/> <path d="m77.5 231.96q-3.8-0.27-6.75 1.89-0.41 0.31-0.66-0.14-0.71-1.26-1.98-1.91-0.45-0.24-0.65-0.71c-5.5-13.05-22.48-12.52-26.74 0.73q-0.17 0.51-0.7 0.47-11.15-0.93-12.72 9.98a1.02 1.02 0 0 0 1 1.16l40.2 0.36" stroke="#f4e3dd" vector-effect="non-scaling-stroke"/> <path d="m68.5 243.79-1.21 1.21" stroke="#f2b0a0" vector-effect="non-scaling-stroke"/> <path d="m67.29 245q-2.39 1.55-1.29 4.04" stroke="#7f868a" vector-effect="non-scaling-stroke"/> <path d="m66 249.04-0.11 4.75" stroke="#f4e3dd" vector-effect="non-scaling-stroke"/> <path d="m65.89 253.79-0.14 39.67" stroke="#f2b0a0" vector-effect="non-scaling-stroke"/> <path d="m65.75 293.46q-2 7.97 2.85 15.37" stroke="#838e94" vector-effect="non-scaling-stroke"/> <path d="m68.6 308.83q-6.02 1.85-12.1 2.57a0.97 0.97 0 0 0-0.11 1.91q10.59 2.46 21.37 2.79c28.79 0.88 57.61 1.72 86.42 1.83 42.81 0.15 85.78 0.78 128.57-0.74q15.55-0.55 30.91-2.87 2.1-0.31 3.01-0.93a1 1 0 0 0-0.43-1.82l-17.54-2.34" stroke="#e4c1b5" vector-effect="non-scaling-stroke"/> <path d="m308.7 309.23c3.56-4.78 3.62-11.07 3.01-16.48" stroke="#7f868a" vector-effect="non-scaling-stroke"/> <path d="m311.71 292.75-0.04-38.07q0-0.61-0.62-0.62l-7.3-0.1" stroke="#e18a7f" vector-effect="non-scaling-stroke"/> <path d="m303.75 253.96q0.83-2 0.37-4.08-0.13-0.57-0.71-0.62l-0.66-0.05" stroke="#f4e3dd" vector-effect="non-scaling-stroke"/> <path d="m302.75 249.21 1-0.5" stroke="#92b9bb" vector-effect="non-scaling-stroke"/> <path d="m303.75 248.71h0.5" stroke="#cd8078" vector-effect="non-scaling-stroke"/> <path d="m304.25 248.71 6.64 0.46q1.58 0.11 1.13-1.41-0.91-3.11-4.02-3.47" stroke="#7f868a" vector-effect="non-scaling-stroke"/> <path d="m308 244.29q-20.47-4.25-41.25-6.58" stroke="#cd8078" vector-effect="non-scaling-stroke"/> <path d="m266.75 237.71 0.03-2.57q0-0.55 0.55-0.58 4.98-0.31 6.42-0.58c12.1-2.32 12.89-14.41 12.21-25.23" stroke="#7f868a" vector-effect="non-scaling-stroke"/> <path d="m285.96 208.75 0.22-2.3" stroke="#f09688" vector-effect="non-scaling-stroke"/> <path d="m286.18 206.45q15.98 1.01 32 0.41 0.48-0.02 0.54-0.49 1.41-10.76-7.66-15c-2.04-0.95-5.03-1.08-7.4-1.47q-0.54-0.09-0.79-0.57-1.34-2.55-3.88-3.85-0.46-0.23-0.62-0.73-2.71-9.05-12.08-10.75" stroke="#f4e3dd" vector-effect="non-scaling-stroke"/> <path d="m286.29 174-0.04-50.21" stroke="#f09688" vector-effect="non-scaling-stroke"/> <path d="m286.25 123.79 53.71-0.03a0.7 0.69-4.9 0 0 0.69-0.81c-1.2-7.26-7.06-14.24-15.23-13.38q-0.49 0.06-0.78-0.36-1.41-2.03-3.69-3.02-0.52-0.22-0.56-0.79c-0.95-15.13-16.15-20.92-28.84-15.59q-2.58 1.08-5.6 3.4" stroke="#f4e3dd" vector-effect="non-scaling-stroke"/> <path d="m285.95 93.21q-2.08-12.33-14.76-12.56-0.57-0.01-0.52-0.58 0.34-3.79-3.16-4.82-3.51-1.04-6.36 0.36" stroke="#838e94" vector-effect="non-scaling-stroke"/> <path d="m261.15 75.61-4.65 0.68" stroke="#f09688" vector-effect="non-scaling-stroke"/> <path d="m256.5 76.29q-2.76 0-5.25-1.33" stroke="#eccdb4" vector-effect="non-scaling-stroke"/> <path d="m251.25 74.96c3.25-12.14-16.63-11.5-15.04-1.46" stroke="#838e94" vector-effect="non-scaling-stroke"/> <path d="m236.21 73.5-2.71 2.46" stroke="#eccdb4" vector-effect="non-scaling-stroke"/> <path d="m233.5 75.96-8.67 0.02" stroke="#f09688" vector-effect="non-scaling-stroke"/> <path d="m224.83 75.98q-0.44-12.82-12.89-14.89-0.52-0.08-0.84-0.49-2.26-2.82-5.9-2.91-0.58-0.02-0.71-0.58-3.26-13.69-17.49-14.8-16.01-1.24-23.43 12.3-0.25 0.46-0.72 0.68-7.04 3.4-7.72 11.33a0.7 0.69 4.6 0 1-0.75 0.63q-9.5-0.71-11.68 8.73" stroke="#f4e3dd" vector-effect="non-scaling-stroke"/> <path d="m224.83 75.98h-82.13" stroke="#f6aba1" vector-effect="non-scaling-stroke"/> <path d="m233.79 82.5-0.79 1.29" stroke="#e3793a" vector-effect="non-scaling-stroke"/> <path d="m233 83.79h-13.75" stroke="#8d6f71" vector-effect="non-scaling-stroke"/> <path d="m219.25 83.79-13.27 0.05" stroke="#e3793a" vector-effect="non-scaling-stroke"/> <path d="m205.98 83.84-63.73-0.05" stroke="#8d6f71" vector-effect="non-scaling-stroke"/> <path d="m142.25 83.79c-1.54-0.24-7.55 0.84-7.04-1.29" stroke="#e3793a" vector-effect="non-scaling-stroke"/> <path d="m259.25 83.29-0.21 1.96" stroke="#859d6c" vector-effect="non-scaling-stroke"/> <path d="m259.04 85.25c-0.28 2.73-1.94 3.51-4.58 3.51-4.06-0.01-16.83 1-19.66-1.1q-0.41-0.3-0.59-0.77l-1.21-3.1" stroke="#7e8b5f" vector-effect="non-scaling-stroke"/> <path d="m273.16 90.37c4.01 2.42 5 5.41 2.64 9.68q-2.74 4.97-5.76 9.79c-2.22 3.55-2.2 5.62-2.24 9.66q-0.48 49.62-0.19 99.25 0.02 3.52 2.43 6.02a0.29 0.29 0 0 1-0.23 0.49c-3.6-0.38-12.82-1.75-13.77 3.24" stroke="#3aa1b4" vector-effect="non-scaling-stroke"/> <path d="m256.04 228.5h-0.75" stroke="#1c5f73" vector-effect="non-scaling-stroke"/> <path d="m255.29 228.5q-3.57-15.41-6.29-31-0.55-3.18-2.5-7.21" stroke="#8f9d69" vector-effect="non-scaling-stroke"/> <path d="m246.5 190.29c10.77 4.52 11.48 17.77 13.43 27.81a0.5 0.49 46 0 0 0.97 0.02q1.04-4.57 1.04-9.62 0.01-48.23 0.62-96.44c0.06-4.45-1.89-6.48-6.49-6.58q-14.13-0.29-28.26-0.58a0.35 0.34-89.2 0 0-0.35 0.35l1.15 78.96" stroke="#3aa1b4" vector-effect="non-scaling-stroke"/> <path d="m228.61 184.21-7.66-0.63" stroke="#8f9d69" vector-effect="non-scaling-stroke"/> <path d="m220.95 183.58-1.41-0.08" stroke="#20687d" vector-effect="non-scaling-stroke"/> <path d="m219.54 183.5q-0.54-4.69-0.54-7.5-0.03-20.39 0.21-84.25" stroke="#93a87b" vector-effect="non-scaling-stroke"/> <path d="m205.98 83.84 0.06 12.16" stroke="#7e8b5f" vector-effect="non-scaling-stroke"/> <path d="m206.04 96-0.29 9.07" stroke="#93a87b" vector-effect="non-scaling-stroke"/> <path d="m205.75 105.07-54.87-1.1a1.13 1.13 0 0 0-1.15 1.13q-0.02 33.01 0.23 66.09 0.03 4.04 0.33 8.06" stroke="#3aa1b4" vector-effect="non-scaling-stroke"/> <path d="m150.29 179.25-1.33 4" stroke="#8f9d69" vector-effect="non-scaling-stroke"/> <path d="m148.96 183.25-6.72-0.54" stroke="#93a87b" vector-effect="non-scaling-stroke"/> <path d="m142.25 83.79-0.01 98.92" stroke="#7e8b5f" vector-effect="non-scaling-stroke"/> <path d="m142.24 182.71q-6.01-0.18-11.08 1.67-0.47 0.17-0.13-0.2c1.54-1.72 5.68-1.97 7.88-2.16q0.49-0.04 0.49-0.54l0.04-80.73" stroke="#e9b243" vector-effect="non-scaling-stroke"/> <path d="m139.44 100.75 0.02-9.61a0.77 0.77 0 0 0-1.05-0.71q-4.32 1.7-8.62 1.82" stroke="#e5a731" vector-effect="non-scaling-stroke"/> <path d="m129.79 92.25-0.21-3.07q-0.05-0.64-0.7-0.61c-7.32 0.4-20.72 2.05-20.88-5.03" stroke="#7e8b5f" vector-effect="non-scaling-stroke"/> <path d="m219.25 83.79-0.04 7.96" stroke="#7e8b5f" vector-effect="non-scaling-stroke"/> <path d="m219.21 91.75q-6.84 1.28-13.17 4.25" stroke="#e9b243" vector-effect="non-scaling-stroke"/> <path d="m256.5 76.29q0.53 3.25-0.29 6.46" stroke="#ee9578" vector-effect="non-scaling-stroke"/> <path d="m256.21 82.75-22.42-0.25" stroke="#dfb165" vector-effect="non-scaling-stroke"/> <path d="m233.79 82.5-0.29-6.54" stroke="#ee9578" vector-effect="non-scaling-stroke"/> <path d="m135.5 76.29q0.62 3.13-0.29 6.21" stroke="#ee9578" vector-effect="non-scaling-stroke"/> <path d="m135.21 82.5q-12.34 0.63-24.67 0" stroke="#dfb165" vector-effect="non-scaling-stroke"/> <path d="m110.54 82.5 0.21-5.96" stroke="#ee9578" vector-effect="non-scaling-stroke"/> <path d="m275.25 87.04q-1.5 1.57-2.09 3.33" stroke="#41b2c1" vector-effect="non-scaling-stroke"/> <path d="m273.16 90.37q-4.25-1.4-9.92-1.19-3.49 0.13-3.56-3.44-0.01-0.3-0.28-0.44-0.2-0.11-0.36-0.05" stroke="#2f93a4" vector-effect="non-scaling-stroke"/> <path d="m262.71 82.75q-1.6 0.82-3.46 0.54" stroke="#94817f" vector-effect="non-scaling-stroke"/> <path d="m259.25 83.29-3.04-0.54" stroke="#e3793a" vector-effect="non-scaling-stroke"/> <path d="m246.5 190.29c-4.27-5.97-11.64-5.48-17.89-6.08" stroke="#a1bc86" vector-effect="non-scaling-stroke"/> <path d="m280.79 120.75q-0.6 44.12-0.16 88.25" stroke="#9f8f8f" vector-effect="non-scaling-stroke"/> <path d="m280.63 209c0.21 6.04 0.72 12.03-2.88 16.04" stroke="#2d7f91" vector-effect="non-scaling-stroke"/> <path d="m277.75 225.04-0.56-0.05q-0.46-0.05-0.46-0.51l0.29-121.99a0.38 0.37 51.7 0 0-0.74-0.09c-0.95 4.07-2.79 7.61-2.79 11.98q0.02 50.31 0 100.62 0 3.12 1.05 12.25" stroke="#3aa1b4" vector-effect="non-scaling-stroke"/> <path d="m274.54 227.25c-5.31 2.1-12.81 1.26-18.5 1.25" stroke="#2d7f91" vector-effect="non-scaling-stroke"/> <path d="m192.51 149.77q11.89 15.25 20.53 32.48" stroke="#96ae76" vector-effect="non-scaling-stroke"/> <path d="m213.04 182.25q0.85 1.48 2.56 0.96 0.44-0.14 0.83 0.12 0.44 0.3 0.3 0.73-0.23 0.71 0.51 0.77 1.94 0.14 3.71-1.25" stroke="#878350" vector-effect="non-scaling-stroke"/> <path d="m255.29 228.5v0.5" stroke="#837b46" vector-effect="non-scaling-stroke"/> <path d="m255.29 229-0.04 0.85q-0.03 0.46-0.31 0.83c-3.95 4.93-12.22 7.95-16.47 2.33q-5.58-7.37-8.33-18.41-1.31-5.26-0.4 0.09 1.58 9.33 3.91 18.5 0.11 0.43-0.04 0.86l-0.15 0.45" stroke="#e5a731" vector-effect="non-scaling-stroke"/> <path d="m233.46 234.5-1.96-0.04" stroke="#e7ce91" vector-effect="non-scaling-stroke"/> <path d="m231.5 234.46q-1.69-0.78-2.79-2.21" stroke="#878350" vector-effect="non-scaling-stroke"/> <path d="m228.71 232.25q-2.5-16.6-5.02-33.19-0.71-4.66-4.3-7.45-0.21-0.17-0.4 0.02-0.12 0.13-0.24 0.24-0.18 0.17 0.03 0.3c3.83 2.43 4.6 8.15 4.98 12.27q0.91 9.59 2.82 19.04c0.46 2.26 0.38 5.47 1.6 8.2q0.19 0.41-0.24 0.58-0.21 0.08-0.44 0.03" stroke="#e5a731" vector-effect="non-scaling-stroke"/> <path d="m227.5 232.29-17.48-3.89" stroke="#878350" vector-effect="non-scaling-stroke"/> <path d="m210.02 228.4q-6.54-3.13-11.93-7.86-0.36-0.31-0.83-0.29l-1.01 0.04" stroke="#e5a731" vector-effect="non-scaling-stroke"/> <path d="m196.25 220.29-0.75-0.58" stroke="#878350" vector-effect="non-scaling-stroke"/> <path d="m195.5 219.71q0.2-1.25-1-1.5" stroke="#f8d899" vector-effect="non-scaling-stroke"/> <path d="m194.5 218.21-4.5-3.75" stroke="#878350" vector-effect="non-scaling-stroke"/> <path d="m155.23 191q1.21-0.84 2.54-0.39 0.74 0.25 0.94-0.52l0.67-2.65q0.15-0.62-0.48-0.64l-3.64-0.15q-0.43-0.01-0.76 0.25l-4.75 3.81" stroke="#e5a731" vector-effect="non-scaling-stroke"/> <path d="m266.75 237.71c0.09 2.98-2.34 1.8-2.5 3.5" stroke="#5e383e" vector-effect="non-scaling-stroke"/> <path d="m264.25 241.21q-5.74 0.11-11.33-1.44" stroke="#1c5f73" vector-effect="non-scaling-stroke"/> <path d="m252.92 239.77c4.18-2.39 3.65-6.5 2.37-10.77" stroke="#72693c" vector-effect="non-scaling-stroke"/> <path d="m219.54 183.5-0.41 0.45q-0.46 0.49-0.93 0.01l-1.99-2.04" stroke="#8b8e62" vector-effect="non-scaling-stroke"/> <path d="m216.21 181.92q-3.25-10.16-10.17-18.69" stroke="#e9b243" vector-effect="non-scaling-stroke"/> <path d="m206.04 163.23-0.29-58.16" stroke="#a4c798" vector-effect="non-scaling-stroke"/> <path d="m148.96 183.25q-0.17 2.1-1.64 3.51-0.38 0.38-0.92 0.38c-5.94 0.04-22.58-0.02-25.53 2.42q-0.42 0.35 0.12 0.26 12.88-2.06 25.95-1.77 0.97 0.03 0.16 0.56-0.75 0.51-1.7 0.43-0.4-0.03-0.4 0.37 0 0.14 0 0.28-0.01 0.48 0.48 0.53l4.27 0.49" stroke="#fac34d" vector-effect="non-scaling-stroke"/> <path d="m149.75 190.71 5.48 0.29" stroke="#e9b243" vector-effect="non-scaling-stroke"/> <path d="m155.23 191q27.7 1.12 43.21 0.87 6.97-0.11 10.43 0.2 0.53 0.05 0.92 0.4c6.62 5.89-12.74 17.76-17.11 19.86-1.15 0.56-2.37 0.4-2.68 2.13" stroke="#fac34d" vector-effect="non-scaling-stroke"/> <path d="m190 214.46-1.25-0.42" stroke="#8b8e62" vector-effect="non-scaling-stroke"/> <path d="m188.75 214.04c-1.75-1.55-22.03-0.57-25.75-0.58" stroke="#fbe3ab" vector-effect="non-scaling-stroke"/> <path d="m163 213.46 12.21-0.57q2.69-0.12 0-0.26c-15.78-0.77-30.14-0.92-46.97-3.81q-4.87-0.84-9.29-3.12a0.54 0.54 0 0 0-0.78 0.58l1.08 5.93" stroke="#fac34d" vector-effect="non-scaling-stroke"/> <path d="m119.25 212.21h-2" stroke="#fbe3ab" vector-effect="non-scaling-stroke"/> <path d="m117.25 212.21q-2.16-9.43-0.88-18.13c1.01-6.8 6.16-7.51 11.95-8.44q1.4-0.22 1.4-1.64l-0.01-81.5" stroke="#a4c798" vector-effect="non-scaling-stroke"/> <path d="m206.04 163.23q0.09 0.47-0.08 1.02" stroke="#90ab7c" vector-effect="non-scaling-stroke"/> <path d="m205.96 164.25q-6.03-7.89-13.45-14.48" stroke="#41b2c1" vector-effect="non-scaling-stroke"/> <path d="m192.51 149.77q-6.66-7.63-16-3.81-0.47 0.19-0.75 0.61c-0.77 1.19-1.5 1.26-2.92 0.97-16.39-3.38-19.2 21.59-22.55 31.71" stroke="#a1bc86" vector-effect="non-scaling-stroke"/> <path d="m110.54 82.5q-0.98 1.12-2.54 1.04" stroke="#e3793a" vector-effect="non-scaling-stroke"/> <path d="m108 83.54-1-0.25" stroke="#8d6f71" vector-effect="non-scaling-stroke"/> <path d="m129.79 92.25v9.5" stroke="#8f9d69" vector-effect="non-scaling-stroke"/> <path d="m129.79 101.75-0.08 0.75" stroke="#93a87b" vector-effect="non-scaling-stroke"/> <path d="m129.71 102.5q-8.55-0.14-17.09 0.26c-5.01 0.23-5.06 4.14-5.07 8.49q-0.05 49.4-0.06 98.8 0 0.51-0.32 0.89-0.96 1.14-0.73 2.12" stroke="#3aa1b4" vector-effect="non-scaling-stroke"/> <path d="m106.44 213.06q-4.39 3.8-4.79 9.61a0.82 0.81 1.1 0 1-0.8 0.76l-13.13 0.24q-0.49 0.01-0.84 0.37-1.54 1.62-0.67 3.96" stroke="#91bdc6" vector-effect="non-scaling-stroke"/> <path d="m86.21 228-0.46 0.29" stroke="#8d6f71" vector-effect="non-scaling-stroke"/> <path d="m85.75 228.29c-3.76-2.65-2.84-13.24-3-17.5" stroke="#1c5f73" vector-effect="non-scaling-stroke"/> <path d="m82.75 210.79 1.43-1.33q0.32-0.3 0.32-0.73v-97.94q0-0.45-0.38-0.69l-0.91-0.6" stroke="#7e6468" vector-effect="non-scaling-stroke"/> <path d="m139.44 100.75-9.65 1" stroke="#fac34d" vector-effect="non-scaling-stroke"/> <path d="m251.25 74.96-2.31 0.14q-0.59 0.03-0.66-0.56l-0.36-3.17q-0.08-0.73-0.81-0.74l-6.06-0.1q-0.7-0.01-0.82 0.67l-0.55 3.12q-0.08 0.46-0.52 0.6-2.1 0.65-2.95-1.42" stroke="#818d84" vector-effect="non-scaling-stroke"/> <path d="m129.25 75.21q-1.05 0.12-2.07-0.32-0.43-0.19-0.43-0.66v-2.98q0-0.75-0.75-0.75h-7.5q-0.75 0-0.75 0.75v2.99q0 0.52-0.49 0.69-1.25 0.42-2.47-0.18" stroke="#818d84" vector-effect="non-scaling-stroke"/> <path d="m285.95 93.21 0.01 27.29" stroke="#89a3ad" vector-effect="non-scaling-stroke"/> <path d="m285.96 120.5-5.17 0.25" stroke="#855658" vector-effect="non-scaling-stroke"/> <path d="m280.79 120.75q-0.05-12.65-0.09-25.29c-0.02-4.38-1.24-7.18-5.45-8.42" stroke="#32879b" vector-effect="non-scaling-stroke"/> <path d="m275.25 87.04q-3.84-0.78-9.5-0.79-3.43-0.01-3.04-3.5" stroke="#27798b" vector-effect="non-scaling-stroke"/> <path d="m262.71 82.75q0.55-3.46-1.56-7.14" stroke="#855658" vector-effect="non-scaling-stroke"/> <path d="m286.29 174-0.11 32.45" stroke="#f6aba1" vector-effect="non-scaling-stroke"/> <path d="m285.96 208.75-5.33 0.25" stroke="#814d4e" vector-effect="non-scaling-stroke"/> <path d="m277.75 225.04q-1.25 1.62-3.21 2.21" stroke="#1c5f73" vector-effect="non-scaling-stroke"/> <path d="m216.21 181.92-1.96-0.21" stroke="#767246" vector-effect="non-scaling-stroke"/> <path d="m205.96 164.25q4.01 7.83 8.02 15.65c0.35 0.7 0.24 1.08 0.27 1.81" stroke="#859d6c" vector-effect="non-scaling-stroke"/> <path d="m214.25 181.71-1.21 0.54" stroke="#27798b" vector-effect="non-scaling-stroke"/> <path d="m185.25 238.04 27.81-0.34" stroke="#e5a19a" vector-effect="non-scaling-stroke"/> <path d="m188.75 214.04c1.29 2.14 3.55 5.94 5.75 4.17" stroke="#89a3ad" vector-effect="non-scaling-stroke"/> <path d="m195.5 219.71q-0.31 3.21 3.46 4.29" stroke="#89a3ad" vector-effect="non-scaling-stroke"/> <path d="m198.96 224q1.32 0.45 1.54 1.71" stroke="#e7c78f" vector-effect="non-scaling-stroke"/> <path d="m200.5 225.71c-4.42 0.85-10.4 1.56-12 6.42" stroke="#89a3ad" vector-effect="non-scaling-stroke"/> <path d="m188.5 232.13q-25.15 0.56-55.56-0.28-23.7-0.66-44.29-2.97c-0.79-0.09-1.73-0.54-2.44-0.88" stroke="#f6aba1" vector-effect="non-scaling-stroke"/> <path d="m252.92 239.77q-12.81 6.41-23.96-2.27" stroke="#7e8b5f" vector-effect="non-scaling-stroke"/> <path d="m228.96 237.5c0.79-0.81 4.64-2.46 4.5-3" stroke="#d6bd87" vector-effect="non-scaling-stroke"/> <path d="m228.71 232.25-1.21 0.04" stroke="#767246" vector-effect="non-scaling-stroke"/> <path d="m196.25 220.29 2.71 3.71" stroke="#767246" vector-effect="non-scaling-stroke"/> <path d="m210.02 228.4q-5.22-0.04-9.52-2.69" stroke="#767246" vector-effect="non-scaling-stroke"/> <path d="m231.5 234.46-3.71 0.29" stroke="#7899a6" vector-effect="non-scaling-stroke"/> <path d="m227.79 234.75-0.62-0.64q-0.37-0.39-0.91-0.41l-37.76-1.57" stroke="#855658" vector-effect="non-scaling-stroke"/> <path d="m172.75 246.54q13.02 1.17 28.32 0.84c6.04-0.14 10.13-0.84 15.74-3.84q5.99-3.2 12.15-6.04" stroke="#80b3bf" vector-effect="non-scaling-stroke"/> <path d="m264.25 241.21 15.25 2.58" stroke="#6a5a61" vector-effect="non-scaling-stroke"/> <path d="m279.5 243.79q-0.53 0.79-1.47 0.74-0.53-0.03-0.79 0.44-0.9 1.68-2.49 2.74" stroke="#2f93a4" vector-effect="non-scaling-stroke"/> <path d="m274.75 247.71q-10.36-1.87-20.79-3.17c-8.66-1.09-17.36 1.08-25.74 4.62" stroke="#3aa1b4" vector-effect="non-scaling-stroke"/> <path d="m228.22 249.16-62.47 0.05" stroke="#91bdc6" vector-effect="non-scaling-stroke"/> <path d="m165.75 249.21q-0.46-0.57-0.56-1.39-0.07-0.55-0.62-0.6c-20.41-1.82-37.88-1.13-56.76-3.51q-6.5-0.82-12.17-3.96-0.81-0.45-0.64 0.46l0.26 1.44a0.82 0.82 0 0 1-0.74 0.96q-6.46 0.53-12.73 2.14" stroke="#3aa1b4" vector-effect="non-scaling-stroke"/> <path d="m81.79 244.75-0.33-4.75" stroke="#7e6468" vector-effect="non-scaling-stroke"/> <path d="m308 244.29q-3.14 1.17-3.75 4.42" stroke="#5e383e" vector-effect="non-scaling-stroke"/> <path d="m303.75 248.71q-11.94-3.36-24.25-4.92" stroke="#716b6e" vector-effect="non-scaling-stroke"/> <path d="m163 213.46-43.75-1.25" stroke="#f8d899" vector-effect="non-scaling-stroke"/> <path d="m117.25 212.21q-5.43-0.48-10.81 0.85" stroke="#a2dce4" vector-effect="non-scaling-stroke"/> <path d="m105.4 76.03 0.94 6.85q0.04 0.32 0.36 0.37 0.15 0.02 0.3 0.04" stroke="#855658" vector-effect="non-scaling-stroke"/> <path d="m107 83.29-1.61 2.17q-0.31 0.42-0.83 0.45c-6.52 0.43-16.99-1.31-20.18 5.92-1.76 3.98-0.76 12.44-1.17 17.67" stroke="#20687d" vector-effect="non-scaling-stroke"/> <path d="m83.21 109.5-5.67-2.25" stroke="#764a4f" vector-effect="non-scaling-stroke"/> <path d="m77.54 107.25c-0.04-5.48-0.97-13.09 1.16-18q4.79-11.03 18.12-10.43 0.5 0.02 0.73-0.43 0.59-1.22-0.09-2.39" stroke="#877070" vector-effect="non-scaling-stroke"/> <path d="m82.75 210.79q-2.32 1.32-5 1.17" stroke="#714245" vector-effect="non-scaling-stroke"/> <path d="m77.75 211.96q2.18-3.3 1.5-5.96-3.88-15.24-4.04-31" stroke="#e35243" vector-effect="non-scaling-stroke"/> <path d="m85.75 228.29 0.21 5.21" stroke="#814d4e" vector-effect="non-scaling-stroke"/> <path d="m85.96 233.5 0.04 1.21" stroke="#72693c" vector-effect="non-scaling-stroke"/> <path d="m86 234.71q-1.99-0.09-3.51-1.38-0.33-0.27-0.67-0.02l-0.32 0.23" stroke="#1c5f73" vector-effect="non-scaling-stroke"/> <path d="m81.5 233.54-0.79-0.79" stroke="#849ba3" vector-effect="non-scaling-stroke"/> <path d="m80.71 232.75c-4.23-4.6-3.55-9.3-3.25-15" stroke="#814d4e" vector-effect="non-scaling-stroke"/> <path d="m227.79 234.75-1.75 0.48" stroke="#e5a19a" vector-effect="non-scaling-stroke"/> <path d="m226.04 235.23c-3.41-0.48-7.41 0.03-10.05-0.03q-42.28-0.82-84.56-1.44c-13.78-0.2-28.79-0.98-43.22-1.26" stroke="#f6aba1" vector-effect="non-scaling-stroke"/> <path d="m88.21 232.5q-1.82-0.34-2.25 1" stroke="#e3793a" vector-effect="non-scaling-stroke"/> <path d="m286.25 123.79-0.29-3.29" stroke="#f6aba1" vector-effect="non-scaling-stroke"/> <path d="m226.04 235.23-12.98 2.47" stroke="#e8eeef" vector-effect="non-scaling-stroke"/> <path d="m213.06 237.7q-3.49-0.7-7.81-0.68c-27.28 0.15-55-2.01-82.49-2.02q-0.13 0-0.23 0.09l-0.24 0.24q-0.45 0.45 0.19 0.47l62.77 2.24" stroke="#f6aba1" vector-effect="non-scaling-stroke"/> <path d="m185.25 238.04c-1.49 5.19-7.36 8.37-12.5 8.5" stroke="#e8eeef" vector-effect="non-scaling-stroke"/> <path d="m172.75 246.54q-39.99-2.45-79.46-8.93" stroke="#91bdc6" vector-effect="non-scaling-stroke"/> <path d="m93.29 237.61q-2.95-2.11-5.08-5.11" stroke="#e7c78f" vector-effect="non-scaling-stroke"/> <path d="m276 248.71-14 0.58" stroke="#9bc6ba" vector-effect="non-scaling-stroke"/> <path d="m262 249.29-33.78-0.13" stroke="#a2dce4" vector-effect="non-scaling-stroke"/> <path d="m81.5 233.54q0.65 3.24-0.04 6.46" stroke="#91bdc6" vector-effect="non-scaling-stroke"/> <path d="m81.46 240-3.21 1.04" stroke="#e69f98" vector-effect="non-scaling-stroke"/> <path d="m78.25 241.04-9.75 2.75" stroke="#f7c5b9" vector-effect="non-scaling-stroke"/> <path d="m302.75 249.21-23.5-0.17" stroke="#98ced4" vector-effect="non-scaling-stroke"/> <path d="m279.25 249.04-3.25-0.33" stroke="#90b8aa" vector-effect="non-scaling-stroke"/> <path d="m276 248.71q-0.08-1.2-1.25-1" stroke="#41b2c1" vector-effect="non-scaling-stroke"/> <path d="m73.29 248.25 0.42-2.75" stroke="#714245" vector-effect="non-scaling-stroke"/> <path d="m73.71 245.5q1.27 0.49 1.7-0.86 0.16-0.49 0.49-0.87l2.35-2.73" stroke="#e46c5b" vector-effect="non-scaling-stroke"/> <path d="m93.29 237.61c-3 0.34-6.32 0.89-7.29-2.9" stroke="#7e8b5f" vector-effect="non-scaling-stroke"/> <path d="m165.75 249.21-43.5 0.08" stroke="#a2dce4" vector-effect="non-scaling-stroke"/> <path d="m122.25 249.29h-16.75" stroke="#9bc6ba" vector-effect="non-scaling-stroke"/> <path d="m105.5 249.29-32.25-0.33" stroke="#a2dce4" vector-effect="non-scaling-stroke"/> <path d="m73.25 248.96 0.04-0.71" stroke="#2d7f91" vector-effect="non-scaling-stroke"/> <path d="m73.29 248.25 8.5-3.5" stroke="#8f8385" vector-effect="non-scaling-stroke"/> <path d="m261 253.71-1 0.33" stroke="#89a3ad" vector-effect="non-scaling-stroke"/> <path d="m260 254.04h-133.5" stroke="#f6aba1" vector-effect="non-scaling-stroke"/> <path d="m126.5 254.04h-2" stroke="#f7c5b9" vector-effect="non-scaling-stroke"/> <path d="m124.5 254.04-1-0.58" stroke="#89a3ad" vector-effect="non-scaling-stroke"/> <path d="m77.54 107.25q-2.3 10.35-2.29 19.25 0.03 24.25-0.04 48.5" stroke="#e46c5b" vector-effect="non-scaling-stroke"/> <path d="m75.21 175q-2.14-0.01-3.92 1" stroke="#f47764" vector-effect="non-scaling-stroke"/> <path d="m71.29 176-0.17-4.13" stroke="#f7c5b9" vector-effect="non-scaling-stroke"/> <path d="m71.21 106.75v-14.5" stroke="#f7c5b9" vector-effect="non-scaling-stroke"/> <path d="m77.75 211.96q-0.12 0.04-0.25 0.08" stroke="#814d4e" vector-effect="non-scaling-stroke"/> <path d="m77.5 212.04-6.46-1.79" stroke="#f47764" vector-effect="non-scaling-stroke"/> <path d="m77.5 212.04-0.04 5.71" stroke="#826766" vector-effect="non-scaling-stroke"/> <path d="m77.46 217.75-3.69 3.89q-0.36 0.38-0.36 0.92l0.05 4.44" stroke="#f47764" vector-effect="non-scaling-stroke"/> <path d="m80.71 232.75-3.21-0.79" stroke="#f6aba1" vector-effect="non-scaling-stroke"/> <path d="m279.25 249.04 0.32 4.14" stroke="#f2e2cd" vector-effect="non-scaling-stroke"/> <path d="m279.57 253.18-0.78 8.08a1.11 1.1 2.9 0 1-1.1 0.99h-14.1a1.85 1.85 0 0 1-1.84-1.65l-0.75-6.89" stroke="#818d84" vector-effect="non-scaling-stroke"/> <path d="m261 253.71 1-4.42" stroke="#f2e2cd" vector-effect="non-scaling-stroke"/> <path d="m73.71 245.5q0.23-0.35 0.25-0.65 0.03-0.59-0.55-0.52l-6.12 0.67" stroke="#826766" vector-effect="non-scaling-stroke"/> <path d="m303.75 253.96-12.25 0.08" stroke="#e69f98" vector-effect="non-scaling-stroke"/> <path d="m291.5 254.04-11-0.25" stroke="#f2e2cd" vector-effect="non-scaling-stroke"/> <path d="m280.5 253.79-0.93-0.61" stroke="#89a3ad" vector-effect="non-scaling-stroke"/> <path d="m73.25 248.96-7.25 0.08" stroke="#849ba3" vector-effect="non-scaling-stroke"/> <path d="m122.25 249.29c0.76 1.27 0.02 3.7 1.25 4.17" stroke="#f2e2cd" vector-effect="non-scaling-stroke"/> <path d="m123.5 253.46c-0.46-0.04-0.81 7.06-1.04 8.17a0.83 0.83 0 0 1-0.81 0.66l-15.2-0.14a0.83 0.83 0 0 1-0.83-0.87q0.2-4.01-0.62-8.07" stroke="#818d84" vector-effect="non-scaling-stroke"/> <path d="m105.5 249.29q0.28 2.05-0.5 3.92" stroke="#f2e2cd" vector-effect="non-scaling-stroke"/> <path d="m105 253.21-0.79 0.54" stroke="#89a3ad" vector-effect="non-scaling-stroke"/> <path d="m104.21 253.75-12.96 0.29" stroke="#f2e2cd" vector-effect="non-scaling-stroke"/> <path d="m91.25 254.04q-10.36-0.62-20.71-0.04" stroke="#e69f98" vector-effect="non-scaling-stroke"/> <path d="m70.54 254-4.65-0.21" stroke="#f7c5b9" vector-effect="non-scaling-stroke"/> <path d="m280.5 253.79c0.7 3.2 1.68 10.14-3.51 10.38q-9.45 0.45-15.81-0.82" stroke="#818d84" vector-effect="non-scaling-stroke"/> <path d="m261.18 263.35q-1.61-4.64-1.18-9.31" stroke="#855658" vector-effect="non-scaling-stroke"/> <path d="m126.5 254.04c-0.27 2.36-0.3 6.17-1.96 6.46" stroke="#f47764" vector-effect="non-scaling-stroke"/> <path d="m262.53 284.15q1.7 2.8 4.46 2.9 11.85 0.46 23.69 0.06c3.82-0.12 5.07-2.31 5.07-5.98q-0.01-11.73 0.01-23.51a0.61 0.61 0 0 1 0.61-0.61l7.89-0.01q0.7 0 0.7 0.69l0.04 36.27" stroke="#e35243" vector-effect="non-scaling-stroke"/> <path d="m305 293.96c-6.21 1.57-6.87 5.95-8.04 11.29" stroke="#814d4e" vector-effect="non-scaling-stroke"/> <path d="m296.96 305.25c-38.53 0.38-77.2 1.14-115.72 0.57q-31.12-0.46-62.28-0.1-0.57 0-0.56 0.57l0.1 5.92" stroke="#e35243" vector-effect="non-scaling-stroke"/> <path d="m118.5 312.21-37.96 0.04" stroke="#e68879" vector-effect="non-scaling-stroke"/> <path d="m80.54 312.25c-0.17-3.8 0.52-9.37-1.23-12.57q-2.66-4.87-8.56-6.22" stroke="#855658" vector-effect="non-scaling-stroke"/> <path d="m95 283.79q0.47 3.38 4.77 3.42 12.88 0.13 25.77 0.03c2.45-0.02 3.62-1.18 3.66-3.56q0.13-9 0.01-17.99c-0.02-1.71-0.47-3.9-2.7-3.17" stroke="#e35243" vector-effect="non-scaling-stroke"/> <path d="m124.5 254.04 0.04 6.46" stroke="#877070" vector-effect="non-scaling-stroke"/> <path d="m124.54 260.5v1.5" stroke="#855658" vector-effect="non-scaling-stroke"/> <path d="m124.54 262q-0.89 3-4.01 3.04" stroke="#818d84" vector-effect="non-scaling-stroke"/> <path d="m120.53 265.04q-4.63-1.35-9.31-0.6-0.5 0.08-0.94-0.14-1.91-0.98-4.33 0.62" stroke="#624048" vector-effect="non-scaling-stroke"/> <path d="m105.95 264.92q-3.23-4.96-1.74-11.17" stroke="#818d84" vector-effect="non-scaling-stroke"/> <path d="m71.29 176-0.33 16" stroke="#f6aba1" vector-effect="non-scaling-stroke"/> <path d="m311.71 292.75-6.71 1.21" stroke="#714245" vector-effect="non-scaling-stroke"/> <path d="m291.5 254.04q0.16 12.6 0.47 25.21 0.11 4.73-4.47 4.74-18.7 0.04-24.97 0.16" stroke="#df896e" vector-effect="non-scaling-stroke"/> <path d="m262.53 284.15q-3.08-10.13-1.35-20.8" stroke="#ee9578" vector-effect="non-scaling-stroke"/> <path d="m91.25 254.04 0.01 2.87" stroke="#df896e" vector-effect="non-scaling-stroke"/> <path d="m91.26 256.91q-10.21 0.83-20.47 0.59" stroke="#e35243" vector-effect="non-scaling-stroke"/> <path d="m70.54 254 0.25 3.5" stroke="#e46c5b" vector-effect="non-scaling-stroke"/> <path d="m70.79 257.5-0.04 35.96" stroke="#f47764" vector-effect="non-scaling-stroke"/> <path d="m70.75 293.46h-5" stroke="#877070" vector-effect="non-scaling-stroke"/> <path d="m105.95 264.92q7.69 1.28 14.58 0.12" stroke="#cb7f67" vector-effect="non-scaling-stroke"/> <path d="m124.54 262 1.97 0.52" stroke="#ee9578" vector-effect="non-scaling-stroke"/> <path d="m126.51 262.52 0.18 19.41a1.98 1.98 0 0 1-1.99 2l-29.7-0.14" stroke="#df896e" vector-effect="non-scaling-stroke"/> <path d="m95 283.79q-4.05 0.36-4.08-3.54-0.08-12.19 0.34-23.34" stroke="#ee9578" vector-effect="non-scaling-stroke"/> <path d="m308.7 309.23q-4.77 4.1-11.41 3.93-0.49-0.01-0.54-0.5l-0.04-0.44" stroke="#74787b" vector-effect="non-scaling-stroke"/> <path d="m296.71 312.22 0.25-6.97" stroke="#714245" vector-effect="non-scaling-stroke"/> <path d="m80.54 312.25q0.04 0.4-0.15 0.72-0.25 0.43-0.76 0.43-6.74-0.09-11.03-4.57" stroke="#798185" vector-effect="non-scaling-stroke"/> <path d="m296.71 312.22-178.21-0.01" stroke="#d67d70" vector-effect="non-scaling-stroke"/> <path d="m181.96 152c6.48 9.68 9.45 20.31 13.54 31.04" stroke="#8f9d69" vector-effect="non-scaling-stroke"/> <path d="m195.5 183.04q0.05 2.88 1.94 4.73 0.36 0.36 0.87 0.34c5.44-0.18 11.47-0.69 16.73 0.71q3.15 0.85 6.5 1.95" stroke="#e5a731" vector-effect="non-scaling-stroke"/> <path d="m221.54 190.77q6.11 7.34 7.56 16.58a0.71 0.71 0 0 0 1.16 0.43c4.48-3.87 12.58-17.43 1.72-19.52q-8.66-1.67-18.5-0.89" stroke="#fac34d" vector-effect="non-scaling-stroke"/> <path d="m213.48 187.37-11.54-0.42q-0.5-0.01-0.81-0.4-1.21-1.48-1.63-3.34" stroke="#e5a731" vector-effect="non-scaling-stroke"/> <path d="m199.5 183.21q4.09-0.37 6.3 0.22 3.39 0.91 1.41-1.99l-7.96-11.65" stroke="#a1bc86" vector-effect="non-scaling-stroke"/> <path d="m199.25 169.79q0.45-0.12 0.62-0.48 0.22-0.46-0.07-0.89-6.73-9.99-15.7-18.04-0.36-0.32-0.83-0.42l-3.26-0.71q-0.47-0.1-0.16 0.27l2.11 2.48" stroke="#e5a731" vector-effect="non-scaling-stroke"/> <path d="m199.25 169.79-2.5-3.08" stroke="#90ab7c" vector-effect="non-scaling-stroke"/> <path d="m196.75 166.71q-6.3-8.06-13.78-15.02-0.34-0.32-0.74-0.07-0.19 0.13-0.27 0.38" stroke="#7e8b5f" vector-effect="non-scaling-stroke"/> <path d="m199.5 183.21-1-0.25" stroke="#90ab7c" vector-effect="non-scaling-stroke"/> <path d="m196.75 166.71q-3.57 1.51-2 5.29 1.58 3.81 3.75 10.96" stroke="#3aa1b4" vector-effect="non-scaling-stroke"/> <path d="m198.5 182.96-3 0.08" stroke="#7e8b5f" vector-effect="non-scaling-stroke"/> <path d="m213.48 187.37 8.06 3.4" stroke="#e9b243" vector-effect="non-scaling-stroke"/> <path d="m164.96 157.1c-2.44 8.6-4.15 17.63-7.47 25.83q-0.17 0.41 0.28 0.39l7.23-0.36" stroke="#8f9d69" vector-effect="non-scaling-stroke"/> <path d="m165 182.96 4.17-0.05q0.67-0.01 0.48-0.65-0.41-1.37 0.35-2.55" stroke="#a1bc86" vector-effect="non-scaling-stroke"/> <path d="m170 179.71 5.46 0.04" stroke="#e5a731" vector-effect="non-scaling-stroke"/> <path d="m175.46 179.75 0.66 2.26q0.16 0.52 0.71 0.51l3.67-0.06" stroke="#8f9d69" vector-effect="non-scaling-stroke"/> <path d="m180.5 182.46 5.47-0.04q0.63 0 0.45-0.61l-4.96-16.06" stroke="#a1bc86" vector-effect="non-scaling-stroke"/> <path d="m181.46 165.75-1.67-5.25" stroke="#96ae76" vector-effect="non-scaling-stroke"/> <path d="m179.79 160.5-2.29-4.79" stroke="#8f9d69" vector-effect="non-scaling-stroke"/> <path d="m177.5 155.71q-2.69-4.27-7.46-4.99c-5.18-0.78-11.13 7.84-12.97 11.87q-0.45 1 0.28 0.18 3.26-3.61 7.61-5.67" stroke="#e5a731" vector-effect="non-scaling-stroke"/> <path d="m177.5 155.71q-5.36 11.66-2.04 24.04" stroke="#7e8b5f" vector-effect="non-scaling-stroke"/> <path d="m170 179.71-0.11-10.23" stroke="#90ab7c" vector-effect="non-scaling-stroke"/> <path d="m169.89 169.48q1.19-8.34 3.34-16.28a0.58 0.58 0 0 0-0.65-0.72q-4.91 0.83-7.62 4.62" stroke="#7e8b5f" vector-effect="non-scaling-stroke"/> <path d="m179.79 160.5q-1.68 2.36-1 5.25" stroke="#2f93a4" vector-effect="non-scaling-stroke"/> <path d="m178.79 165.75q-0.12 8.46 1.71 16.71" stroke="#3aa1b4" vector-effect="non-scaling-stroke"/> <path d="m169.89 169.48q-1.95 6.22-2.67 12.72-0.07 0.59-0.67 0.55-0.86-0.06-1.55 0.21" stroke="#3aa1b4" vector-effect="non-scaling-stroke"/> <path d="m181.46 165.75h-2.67" stroke="#41b2c1" vector-effect="non-scaling-stroke"/> <path d="m166.68 159.19a0.26 0.26 0 0 0-0.214-0.299l-0.217-0.0359a0.26 0.26 0 0 0-0.299 0.214l-3.6552 22.08a0.26 0.26 0 0 0 0.214 0.299l0.217 0.0359a0.26 0.26 0 0 0 0.299-0.214l3.6552-22.08" stroke="#3aa1b4" vector-effect="non-scaling-stroke"/> <path d="m140.09 214.58-22.83-0.65a0.73 0.73 0 0 0-0.73 0.9c0.4 1.59 1.37 2.31 3.05 2.43 3.15 0.22 20.56 1.86 21.05-2.06q0.07-0.6-0.54-0.62" stroke="#e8eeef" vector-effect="non-scaling-stroke"/> <path d="m190.83 218.21a0.22 0.22 0 0 1-0.07-0.05l-3.47-3.79a0.22 0.22 0 0 0-0.22-0.06l-10.05 2.78a0.22 0.22 0 0 0-0.12 0.33l2.55 3.79a0.22 0.22 0 0 0 0.22 0.09l11.8-2.38a0.22 0.22 0 0 0 0.04-0.42l-0.68-0.29" stroke="#89a3ad" vector-effect="non-scaling-stroke"/> <path d="m148.01 219.71a0.91 0.91 0 0 0-0.8843-0.9351l-2.6389-0.0737a0.91 0.91 0 0 0-0.9351 0.8843l-0.0335 1.1995a0.91 0.91 0 0 0 0.8843 0.9351l2.6389 0.0737a0.91 0.91 0 0 0 0.9351-0.8843l0.0335-1.1995" stroke="#89a3ad" vector-effect="non-scaling-stroke"/> <path d="m154.24 219.33a0.63 0.63 0 0 0-0.6398-0.62l-3.7395 0.0588a0.63 0.63 0 0 0-0.6201 0.6398l0.0274 1.7398a0.63 0.63 0 0 0 0.6398 0.62l3.7395-0.0588a0.63 0.63 0 0 0 0.6201-0.6398l-0.0274-1.7398" stroke="#89a3ad" vector-effect="non-scaling-stroke"/> <path d="m161.08 219.19a0.42 0.42 0 0 0-0.4163-0.4237l-4.4798-0.0391a0.42 0.42 0 0 0-0.4237 0.4163l-0.0186 2.1399a0.42 0.42 0 0 0 0.4163 0.4237l4.4798 0.0391a0.42 0.42 0 0 0 0.4237-0.4163l0.0186-2.1399" stroke="#89a3ad" vector-effect="non-scaling-stroke"/> <path d="m168.25 219.17a0.44 0.44 0 0 0-0.4431-0.4369l-4.2799 0.0299a0.44 0.44 0 0 0-0.4369 0.443l0.0165 2.36a0.44 0.44 0 0 0 0.4431 0.4369l4.2799-0.0299a0.44 0.44 0 0 0 0.4369-0.443l-0.0165-2.36" stroke="#89a3ad" vector-effect="non-scaling-stroke"/> <path d="m175.14 222.07c2.57 1.55 2.41-1.32 1.14-2.13q-0.67-0.42-0.92 0.33l-0.42 1.26a0.46 0.46 0 0 0 0.2 0.54" stroke="#89a3ad" vector-effect="non-scaling-stroke"/> <path d="m110.89 220a0.62 0.62 0 0 0-0.6 0.47l-1.01 4.01a0.62 0.62 0 0 0 0.61 0.77h3.27a0.62 0.62 0 0 0 0.6-0.48l0.94-4.01a0.62 0.62 0 0 0-0.6-0.76h-3.21" stroke="#89a3ad" vector-effect="non-scaling-stroke"/> <path d="m120.92 225.69 0.49-5.02a0.22 0.22 0 0 0-0.2-0.24l-4.31-0.42a1.34 1.12 5.6 0 0-1.45 0.98l-0.31 3.22a1.34 1.12 5.6 0 0 1.22 1.25l4.32 0.42a0.22 0.22 0 0 0 0.24-0.19" stroke="#89a3ad" vector-effect="non-scaling-stroke"/> <path d="m123.41 220.25a0.61 0.61 0 0 0-0.6 0.52l-0.65 4.28a0.61 0.61 0 0 0 0.6 0.7h3.79a0.61 0.61 0 0 0 0.6-0.52l0.67-4.28a0.61 0.61 0 0 0-0.6-0.7h-3.81" stroke="#89a3ad" vector-effect="non-scaling-stroke"/> <path d="m135.25 225.71h0.5" stroke="#e8eeef" vector-effect="non-scaling-stroke"/> <path d="m135.75 225.71q0.86 0.5 1.72 0.27 0.51-0.14 0.67-0.64l1.31-3.98q0.18-0.55-0.39-0.55l-3.06-0.02" stroke="#89a3ad" vector-effect="non-scaling-stroke"/> <path d="m136 220.79h-0.75" stroke="#e8eeef" vector-effect="non-scaling-stroke"/> <path d="m135.25 220.79-4.59-0.53q-0.55-0.06-0.66 0.48l-0.88 4.35q-0.11 0.52 0.42 0.53l5.71 0.09" stroke="#89a3ad" vector-effect="non-scaling-stroke"/> <path d="m135.25 220.79v4.92" stroke="#7899a6" vector-effect="non-scaling-stroke"/> <path d="m136 220.79-0.25 4.92" stroke="#7899a6" vector-effect="non-scaling-stroke"/> <path d="m117.07 229 0.05-1.24a0.41 0.41 0 0 0-0.39-0.43l-6.9-0.29a1.3 1.03 2.4 0 0-1.35 0.98 1.3 1.03 2.4 0 0 1.26 1.08l6.9 0.29a0.41 0.41 0 0 0 0.43-0.39" stroke="#89a3ad" vector-effect="non-scaling-stroke"/> <path d="m107.6 228.16a1.95 0.96 0.9 0 0-1.9347-0.9905 1.95 0.96 0.9 0 0-1.9649 0.9293 1.95 0.96 0.9 0 0 1.9347 0.9905 1.95 0.96 0.9 0 0 1.9649-0.9293" stroke="#89a3ad" vector-effect="non-scaling-stroke"/> <path d="m121 229.21 0.71 0.04" stroke="#e8eeef" vector-effect="non-scaling-stroke"/> <path d="m121.71 229.25q2.59 1.06 5.29 0.21" stroke="#89a3ad" vector-effect="non-scaling-stroke"/> <path d="m127 229.46 0.46 0.04" stroke="#98ced4" vector-effect="non-scaling-stroke"/> <path d="m127.46 229.5q1.91 0.65 3.79-0.04" stroke="#89a3ad" vector-effect="non-scaling-stroke"/> <path d="m131.25 229.46h0.5" stroke="#e8eeef" vector-effect="non-scaling-stroke"/> <path d="m131.75 229.46q1.36 0.87 2.96 0.45 0.54-0.15 0.54-0.7v-0.93q0-0.46-0.43-0.62-1.64-0.6-3.11 0.34" stroke="#89a3ad" vector-effect="non-scaling-stroke"/> <path d="m131.71 228h-0.67" stroke="#e8eeef" vector-effect="non-scaling-stroke"/> <path d="m131.04 228q-4.61-0.92-9.29-0.46" stroke="#89a3ad" vector-effect="non-scaling-stroke"/> <path d="m121.75 227.54h-0.75" stroke="#e8eeef" vector-effect="non-scaling-stroke"/> <path d="m121 227.54c-1-0.42-3.62-0.84-3.22 1.19q0.09 0.49 0.55 0.65 1.3 0.47 2.67-0.17" stroke="#89a3ad" vector-effect="non-scaling-stroke"/> <path d="m121 227.54v1.67" stroke="#7899a6" vector-effect="non-scaling-stroke"/> <path d="m131.04 228 0.21 1.46" stroke="#7899a6" vector-effect="non-scaling-stroke"/> <path d="m127.46 229.5 0.02-1.09q0.01-0.44-0.41-0.33c-0.82 0.21-0.78 1.08-0.07 1.38" stroke="#27798b" vector-effect="non-scaling-stroke"/> <path d="m121.71 229.25 0.04-1.71" stroke="#7899a6" vector-effect="non-scaling-stroke"/> <path d="m131.75 229.46-0.04-1.46" stroke="#7899a6" vector-effect="non-scaling-stroke"/> <path d="m140.23 228.64a0.83 0.83 0 0 0-0.8035-0.8557l-2.3388-0.0735a0.83 0.83 0 0 0-0.8557 0.8035l-0.0188 0.5997a0.83 0.83 0 0 0 0.8035 0.8557l2.3388 0.0735a0.83 0.83 0 0 0 0.8557-0.8035l0.0188-0.5997" stroke="#89a3ad" vector-effect="non-scaling-stroke"/> <path d="m144.25 229.71 0.71 0.04" stroke="#e8eeef" vector-effect="non-scaling-stroke"/> <path d="m144.96 229.75q1.83 1.02 3.79 0.21" stroke="#89a3ad" vector-effect="non-scaling-stroke"/> <path d="m148.75 229.96h1" stroke="#e8eeef" vector-effect="non-scaling-stroke"/> <path d="m149.75 229.96q1.62 0.51 3.34 0.23 0.41-0.07 0.41-0.49v-0.93q0-0.45-0.43-0.6-1.77-0.62-3.36 0.33" stroke="#89a3ad" vector-effect="non-scaling-stroke"/> <path d="m149.71 228.5h-0.92" stroke="#e8eeef" vector-effect="non-scaling-stroke"/> <path d="m148.79 228.5q-1.63-0.91-3.54-0.46" stroke="#89a3ad" vector-effect="non-scaling-stroke"/> <path d="m145.25 228.04-1 0.25" stroke="#e8eeef" vector-effect="non-scaling-stroke"/> <path d="m144.25 228.29q-1.27-0.8-2.68-0.4-0.5 0.15-0.57 0.66l-0.08 0.6q-0.08 0.61 0.49 0.86 1.53 0.67 2.84-0.3" stroke="#89a3ad" vector-effect="non-scaling-stroke"/> <path d="m144.25 228.29v1.42" stroke="#7899a6" vector-effect="non-scaling-stroke"/> <path d="m145.25 228.04-0.29 1.71" stroke="#7899a6" vector-effect="non-scaling-stroke"/> <path d="m148.79 228.5-0.04 1.46" stroke="#7899a6" vector-effect="non-scaling-stroke"/> <path d="m149.75 229.96-0.04-1.46" stroke="#7899a6" vector-effect="non-scaling-stroke"/> <path d="m158.13 230v-1.52a0.46 0.46 0 0 0-0.46-0.47h-1.47a1.71 0.8 0.2 0 0-1.71 0.79v0.84a1.71 0.8 0.2 0 0 1.71 0.81h1.47a0.46 0.46 0 0 0 0.46-0.45" stroke="#89a3ad" vector-effect="non-scaling-stroke"/> <path d="m162.5 230.21h0.75" stroke="#98ced4" vector-effect="non-scaling-stroke"/> <path d="m163.25 230.21 3.5 0.25" stroke="#89a3ad" vector-effect="non-scaling-stroke"/> <path d="m166.75 230.46h0.5" stroke="#e8eeef" vector-effect="non-scaling-stroke"/> <path d="m167.25 230.46q1.96 0.66 3.75-0.17" stroke="#89a3ad" vector-effect="non-scaling-stroke"/> <path d="m171 230.29 0.71-0.04" stroke="#e8eeef" vector-effect="non-scaling-stroke"/> <path d="m171.71 230.25q1.56 1.19 3.08 0" stroke="#89a3ad" vector-effect="non-scaling-stroke"/> <path d="m174.79 230.25h0.92" stroke="#e8eeef" vector-effect="non-scaling-stroke"/> <path d="m175.71 230.25q1.32 0.95 2.85 0.37 0.44-0.17 0.44-0.64v-0.73q0-0.51-0.5-0.65-1.39-0.38-2.75 0.19" stroke="#89a3ad" vector-effect="non-scaling-stroke"/> <path d="m175.75 228.79h-0.75" stroke="#e8eeef" vector-effect="non-scaling-stroke"/> <path d="m175 228.79q-1.51-0.69-3.04-0.04" stroke="#89a3ad" vector-effect="non-scaling-stroke"/> <path d="m171.96 228.75-0.96 0.04" stroke="#e8eeef" vector-effect="non-scaling-stroke"/> <path d="m171 228.79-3.75-0.25" stroke="#89a3ad" vector-effect="non-scaling-stroke"/> <path d="m167.25 228.54h-1" stroke="#e8eeef" vector-effect="non-scaling-stroke"/> <path d="m166.25 228.54-6.62-0.23q-0.63-0.02-0.63 0.61v0.82q0 0.49 0.47 0.63 1.53 0.46 3.03-0.16" stroke="#89a3ad" vector-effect="non-scaling-stroke"/> <path d="m166.25 228.54 0.5 1.92" stroke="#7899a6" vector-effect="non-scaling-stroke"/> <path d="m163.25 230.21 0.01-0.98q0-0.73-0.56-0.27-0.47 0.38-0.2 1.25" stroke="#27798b" vector-effect="non-scaling-stroke"/> <path d="m167.25 228.54v1.92" stroke="#7899a6" vector-effect="non-scaling-stroke"/> <path d="m171 228.79v1.5" stroke="#7899a6" vector-effect="non-scaling-stroke"/> <path d="m175 228.79-0.21 1.46" stroke="#7899a6" vector-effect="non-scaling-stroke"/> <path d="m171.71 230.25 0.25-1.5" stroke="#7899a6" vector-effect="non-scaling-stroke"/> <path d="m175.71 230.25 0.04-1.46" stroke="#7899a6" vector-effect="non-scaling-stroke"/> <path d="m183.04 228.55-2.77-0.04a0.46 0.46 0 0 0-0.47 0.46l-0.01 1.11a1.77 0.87 0.7 0 0 1.76 0.89h0.16a1.77 0.87 0.7 0 0 1.78-0.85l0.01-1.11a0.46 0.46 0 0 0-0.46-0.46" stroke="#89a3ad" vector-effect="non-scaling-stroke"/> <path d="m185.06 230.99c1.97 0.05 3.49 0.97 3.99-1.87q0.12-0.68-0.57-0.61l-3.15 0.33q-0.54 0.06-0.67 0.57l-0.2 0.79q-0.21 0.78 0.6 0.79" stroke="#89a3ad" vector-effect="non-scaling-stroke"/> <path d="m286.54 258.79a1.24 0.98 84.9 0 0 0.8659-1.3222 1.24 0.98 84.9 0 0-1.0863-1.148 1.24 0.98 84.9 0 0-0.8659 1.3222 1.24 0.98 84.9 0 0 1.0863 1.148" stroke="#eccdb4" vector-effect="non-scaling-stroke"/> <path d="m275.82 266.83-9.12 0.14a2.9 2.9 0 0 0-2.85 2.95v0.11a12.13 4.15 89.1 0 0 4.34 12.06l6.62-0.1a12.13 4.15 89.1 0 0 3.96-12.2v-0.11a2.9 2.9 0 0 0-2.95-2.85" stroke="#818d84" vector-effect="non-scaling-stroke"/> <path d="m107.92 280.31a2.22 2.22 0 0 0 2.16 1.75l7.76 0.06a2.22 2.22 0 0 0 2.22-1.93l1.32-10.19a2.22 2.22 0 0 0-2.21-2.5h-11.26a2.22 2.22 0 0 0-2.17 2.69l2.18 10.12" stroke="#818d84" vector-effect="non-scaling-stroke"/> <path d="m221.29 270.75q-0.6 1.35 0.08 2.39 0.3 0.44 0.83 0.53 3.15 0.48 2.34 4.08" stroke="#e35243" vector-effect="non-scaling-stroke"/> <path d="m224.54 277.75c-1.42 7.75-10.4 8.09-17.29 8.09-11.13 0-22.73 0.5-33.75-1.13" stroke="#94817f" vector-effect="non-scaling-stroke"/> <path d="m173.5 284.71-0.75-0.25" stroke="#855658" vector-effect="non-scaling-stroke"/> <path d="m172.75 284.46-1.11-9.34q-0.06-0.56 0.41-0.86c4.01-2.58 0.71-7.47-2.26-9.01" stroke="#e35243" vector-effect="non-scaling-stroke"/> <path d="m169.79 265.25c-2.45-5.79-11.06-4.04-16.2-3.99-6.45 0.06-6.28 4.61-5.28 9.97" stroke="#855658" vector-effect="non-scaling-stroke"/> <path d="m148.31 271.23q2.24 3.45 6.65 3.77" stroke="#e35243" vector-effect="non-scaling-stroke"/> <path d="m154.96 275q-0.24 8.86 4.98 16.23" stroke="#855658" vector-effect="non-scaling-stroke"/> <path d="m159.94 291.23q3.09 4.39 7.7 7.41" stroke="#814d4e" vector-effect="non-scaling-stroke"/> <path d="m167.64 298.64q1.1 2.56 4.93 3.31 24.75 4.81 47.14 1.59c17.14-2.46 17.92-13.92 17.53-28.34q-0.02-0.55 0.52-0.65c2.29-0.45 5.6-1.04 4.95-3.8" stroke="#e35243" vector-effect="non-scaling-stroke"/> <path d="m242.71 270.75 0.5-2.5" stroke="#814d4e" vector-effect="non-scaling-stroke"/> <path d="m243.21 268.25q0.64-4.43-2.86-6.76-0.42-0.28-0.93-0.27-6.69 0.11-13.36-0.02c-5.42-0.1-6.48 5.65-4.77 9.55" stroke="#855658" vector-effect="non-scaling-stroke"/> <path d="m243.21 268.25-6.62 0.46" stroke="#14465a" vector-effect="non-scaling-stroke"/> <path d="m236.59 268.71q-1.1-1.24-2.13 0.29" stroke="#764a4f" vector-effect="non-scaling-stroke"/> <path d="m234.46 269q-0.42-1.73-1.82-0.85-0.44 0.28-0.41 0.79c0.48 10.82-0.94 23.1-14.26 24.86q-29.24 3.87-58.03-2.57" stroke="#14465a" vector-effect="non-scaling-stroke"/> <path d="m154.96 275-0.27-3.29q-0.04-0.49-0.53-0.58-2.72-0.47-5.85 0.1" stroke="#764a4f" vector-effect="non-scaling-stroke"/> <path d="m169.79 265.25q1.19 3.38-0.33 6.5" stroke="#764a4f" vector-effect="non-scaling-stroke"/> <path d="m169.46 271.75q-2.03 0.29-3.44-1.04-0.49-0.46-0.61 0.2-0.35 1.81 0.38 3.59" stroke="#624048" vector-effect="non-scaling-stroke"/> <path d="m165.79 274.5q0.25 7.35 6.96 9.96" stroke="#764a4f" vector-effect="non-scaling-stroke"/> <path d="m173.5 284.71c-10.53 0.78-11.09-7.79-11.46-15.57-0.03-0.66-0.35-0.93-0.87-1.21a0.65 0.65 0 0 0-0.95 0.59c0.34 12.35 0.72 17.43 14.41 18.68q22.2 2.03 41.12 0.31c9.83-0.9 11.28-9.68 11.27-18.73 0-0.88-0.54-1.56-1.46-1.21q-0.51 0.19-0.52 0.74l-0.08 3.69" stroke="#27798b" vector-effect="non-scaling-stroke"/> <path d="m224.96 272-3.67-1.25" stroke="#764a4f" vector-effect="non-scaling-stroke"/> <path d="m224.54 277.75 0.42-5.75" stroke="#857575" vector-effect="non-scaling-stroke"/> <path d="m234.46 269q0.29 9.82-1.05 17.66c-2.1 12.22-12.36 14.4-22.91 15.06-14.35 0.91-29.82 1.09-42.86-3.08" stroke="#714245" vector-effect="non-scaling-stroke"/> <path d="m165.79 274.5q2.64-0.46 3.67-2.75" stroke="#c03c32" vector-effect="non-scaling-stroke"/> <path d="m236.59 268.71q1.36 3.97 6.12 2.04" stroke="#714245" vector-effect="non-scaling-stroke"/> <path d="m149.88 266.6q-0.45 0.9 0.09 1.76 0.74 1.18 0.56-0.2-0.23-1.81 0.81-3.18 0.61-0.8-0.36-0.55-1.12 0.28-0.98 1.46 0.05 0.37-0.12 0.71" stroke="#818d84" vector-effect="non-scaling-stroke"/> <path d="m239.41 264.85 0.75 1.78q0.36 0.86 0.76 0.01c0.37-0.78-0.06-2.36-1.1-2.39a0.43 0.43 0 0 0-0.41 0.6" stroke="#27798b" vector-effect="non-scaling-stroke"/> <path d="m276.91 270.39a0.6 0.6 0 0 0-0.5873-0.6124l-10.118-0.2119a0.6 0.6 0 0 0-0.6124 0.5873l-0.0013 0.06a0.6 0.6 0 0 0 0.5873 0.6124l10.118 0.2119a0.6 0.6 0 0 0 0.6124-0.5873l0.0013-0.06" stroke="#798185" vector-effect="non-scaling-stroke"/> <path d="m119.92 270.7a0.66 0.66 0 0 0-0.6566-0.6634l-11.56-0.0606a0.66 0.66 0 0 0-0.6635 0.6566l-3e-4 0.06a0.66 0.66 0 0 0 0.6566 0.6634l11.56 0.0606a0.66 0.66 0 0 0 0.6635-0.6566l3e-4 -0.06" stroke="#798185" vector-effect="non-scaling-stroke"/> </g> <path d="m0 0h365v365h-365v-365zm57.95 57.31c3.38-19.67-25.56-21.79-28.16-2.91a0.42 0.42 0 0 1-0.46 0.37c-6.66-0.52-14.12 3.88-14.34 11.17q-0.01 0.47 0.46 0.48l54.13 0.33a1.52 1.52 0 0 0 1.46-1.96q-2.83-9.3-12.71-7.11-0.46 0.1-0.38-0.37zm84.75 18.67-7.2 0.31q-1.1 0.11-2.06-0.29-0.45-0.19-0.92-0.07-1.72 0.43-3.27-0.72c4.52-10.62-10.82-11.35-13.96-6.46q-1.59 2.46-0.5 6-1.82 1.31-4.04 1.79-2.71-0.96-5.35-0.51-2.71-3.63-7.74-2.01-0.31 0.09-0.29 0.42l0.09 1.56c-11.33-1.28-24.57 3.63-26.25 16.25q-9.15-2.41-13.9 4.99-0.27 0.42-0.77 0.46-7.24 0.5-8.29 7.57-0.23 1.48 1.28 1.48h21.68l-0.09 65.12q-5.81 1.25-6.61 7.08-0.08 0.56-0.64 0.47-13.88-2.34-15.13 11.58-0.08 0.84 0.76 0.89 10.61 0.72 21.46 0.11l0.08 18.25q0.01 4.59 0.02 9.18c0.01 3.08 1.24 4.89 2.4 7.57q1.27 3.09 4.04 4.96-3.8-0.27-6.75 1.89-0.41 0.31-0.66-0.14-0.71-1.26-1.98-1.91-0.45-0.24-0.65-0.71c-5.5-13.05-22.48-12.52-26.74 0.73q-0.17 0.51-0.7 0.47-11.15-0.93-12.72 9.98a1.02 1.02 0 0 0 1 1.16l40.2 0.36-1.21 1.21q-2.39 1.55-1.29 4.04l-0.11 4.75-0.14 39.67q-2 7.97 2.85 15.37-6.02 1.85-12.1 2.57a0.97 0.97 0 0 0-0.11 1.91q10.59 2.46 21.37 2.79c28.79 0.88 57.61 1.72 86.42 1.83 42.81 0.15 85.78 0.78 128.57-0.74q15.55-0.55 30.91-2.87 2.1-0.31 3.01-0.93a1 1 0 0 0-0.43-1.82l-17.54-2.34c3.56-4.78 3.62-11.07 3.01-16.48l-0.04-38.07q0-0.61-0.62-0.62l-7.3-0.1q0.83-2 0.37-4.08-0.13-0.57-0.71-0.62l-0.66-0.05 1-0.5h0.5l6.64 0.46q1.58 0.11 1.13-1.41-0.91-3.11-4.02-3.47-20.47-4.25-41.25-6.58l0.03-2.57q0-0.55 0.55-0.58 4.98-0.31 6.42-0.58c12.1-2.32 12.89-14.41 12.21-25.23l0.22-2.3q15.98 1.01 32 0.41 0.48-0.02 0.54-0.49 1.41-10.76-7.66-15c-2.04-0.95-5.03-1.08-7.4-1.47q-0.54-0.09-0.79-0.57-1.34-2.55-3.88-3.85-0.46-0.23-0.62-0.73-2.71-9.05-12.08-10.75l-0.04-50.21 53.71-0.03a0.7 0.69-4.9 0 0 0.69-0.81c-1.2-7.26-7.06-14.24-15.23-13.38q-0.49 0.06-0.78-0.36-1.41-2.03-3.69-3.02-0.52-0.22-0.56-0.79c-0.95-15.13-16.15-20.92-28.84-15.59q-2.58 1.08-5.6 3.4-2.08-12.33-14.76-12.56-0.57-0.01-0.52-0.58 0.34-3.79-3.16-4.82-3.51-1.04-6.36 0.36l-4.65 0.68q-2.76 0-5.25-1.33c3.25-12.14-16.63-11.5-15.04-1.46l-2.71 2.46-8.67 0.02q-0.44-12.82-12.89-14.89-0.52-0.08-0.84-0.49-2.26-2.82-5.9-2.91-0.58-0.02-0.71-0.58-3.26-13.69-17.49-14.8-16.01-1.24-23.43 12.3-0.25 0.46-0.72 0.68-7.04 3.4-7.72 11.33a0.7 0.69 4.6 0 1-0.75 0.63q-9.5-0.71-11.68 8.73z" fill="#eecec4"/> <path d="m58.33 57.68q9.88-2.19 12.71 7.11a1.52 1.52 0 0 1-1.46 1.96l-54.13-0.33q-0.47-0.01-0.46-0.48c0.22-7.29 7.68-11.69 14.34-11.17a0.42 0.42 0 0 0 0.46-0.37c2.6-18.88 31.54-16.76 28.16 2.91q-0.08 0.47 0.38 0.37z" fill="#f9f8f6"/> <path d="m224.83 75.98h-82.13q2.18-9.44 11.68-8.73a0.7 0.69 4.6 0 0 0.75-0.63q0.68-7.93 7.72-11.33 0.47-0.22 0.72-0.68 7.42-13.54 23.43-12.3 14.23 1.11 17.49 14.8 0.13 0.56 0.71 0.58 3.64 0.09 5.9 2.91 0.32 0.41 0.84 0.49 12.45 2.07 12.89 14.89z" fill="#f9f8f6"/> <path d="m129.25 75.21q-1.05 0.12-2.07-0.32-0.43-0.19-0.43-0.66v-2.98q0-0.75-0.75-0.75h-7.5q-0.75 0-0.75 0.75v2.99q0 0.52-0.49 0.69-1.25 0.42-2.47-0.18-1.09-3.54 0.5-6c3.14-4.89 18.48-4.16 13.96 6.46z" fill="#184e64"/> <path d="m251.25 74.96-2.31 0.14q-0.59 0.03-0.66-0.56l-0.36-3.17q-0.08-0.73-0.81-0.74l-6.06-0.1q-0.7-0.01-0.82 0.67l-0.55 3.12q-0.08 0.46-0.52 0.6-2.1 0.65-2.95-1.42c-1.59-10.04 18.29-10.68 15.04 1.46z" fill="#184e64"/> <path d="m129.25 75.21q1.55 1.15 3.27 0.72 0.47-0.12 0.92 0.07 0.96 0.4 2.06 0.29 0.62 3.13-0.29 6.21-12.34 0.63-24.67 0l0.21-5.96q2.22-0.48 4.04-1.79 1.22 0.6 2.47 0.18 0.49-0.17 0.49-0.69v-2.99q0-0.75 0.75-0.75h7.5q0.75 0 0.75 0.75v2.98q0 0.47 0.43 0.66 1.02 0.44 2.07 0.32z" fill="#eacca3"/> <path d="m251.25 74.96q2.49 1.33 5.25 1.33 0.53 3.25-0.29 6.46l-22.42-0.25-0.29-6.54 2.71-2.46q0.85 2.07 2.95 1.42 0.44-0.14 0.52-0.6l0.55-3.12q0.12-0.68 0.82-0.67l6.06 0.1q0.73 0.01 0.81 0.74l0.36 3.17q0.07 0.59 0.66 0.56l2.31-0.14z" fill="#eacca3"/> <path d="m105.4 76.03 0.94 6.85q0.04 0.32 0.36 0.37 0.15 0.02 0.3 0.04l-1.61 2.17q-0.31 0.42-0.83 0.45c-6.52 0.43-16.99-1.31-20.18 5.92-1.76 3.98-0.76 12.44-1.17 17.67l-5.67-2.25c-0.04-5.48-0.97-13.09 1.16-18q4.79-11.03 18.12-10.43 0.5 0.02 0.73-0.43 0.59-1.22-0.09-2.39l-0.09-1.56q-0.02-0.33 0.29-0.42 5.03-1.62 7.74 2.01z" fill="#184e64"/> <path d="m285.95 93.21 0.01 27.29-5.17 0.25q-0.05-12.65-0.09-25.29c-0.02-4.38-1.24-7.18-5.45-8.42q-3.84-0.78-9.5-0.79-3.43-0.01-3.04-3.5 0.55-3.46-1.56-7.14 2.85-1.4 6.36-0.36 3.5 1.03 3.16 4.82-0.05 0.57 0.52 0.58 12.68 0.23 14.76 12.56z" fill="#184e64"/> <path d="m97.46 76q0.68 1.17 0.09 2.39-0.23 0.45-0.73 0.43-13.33-0.6-18.12 10.43c-2.13 4.91-1.2 12.52-1.16 18q-2.3 10.35-2.29 19.25 0.03 24.25-0.04 48.5-2.14-0.01-3.92 1l-0.17-4.13 0.09-65.12v-14.5c1.68-12.62 14.92-17.53 26.25-16.25z" fill="#f5917c"/> <path d="m110.75 76.54-0.21 5.96q-0.98 1.12-2.54 1.04l-1-0.25q-0.15-0.02-0.3-0.04-0.32-0.05-0.36-0.37l-0.94-6.85q2.64-0.45 5.35 0.51z" fill="#f25d4c"/> <path d="m142.7 75.98h82.13l8.67-0.02 0.29 6.54-0.79 1.29h-13.75l-13.27 0.05-63.73-0.05c-1.54-0.24-7.55 0.84-7.04-1.29q0.91-3.08 0.29-6.21l7.2-0.31z" fill="#f25d4c"/> <path d="m261.15 75.61q2.11 3.68 1.56 7.14-1.6 0.82-3.46 0.54l-3.04-0.54q0.82-3.21 0.29-6.46l4.65-0.68z" fill="#f25d4c"/> <path d="m110.54 82.5q12.33 0.63 24.67 0c-0.51 2.13 5.5 1.05 7.04 1.29l-0.01 98.92q-6.01-0.18-11.08 1.67-0.47 0.17-0.13-0.2c1.54-1.72 5.68-1.97 7.88-2.16q0.49-0.04 0.49-0.54l0.04-80.73 0.02-9.61a0.77 0.77 0 0 0-1.05-0.71q-4.32 1.7-8.62 1.82l-0.21-3.07q-0.05-0.64-0.7-0.61c-7.32 0.4-20.72 2.05-20.88-5.03q1.56 0.08 2.54-1.04z" fill="#d49527"/> <path d="m233.79 82.5 22.42 0.25 3.04 0.54-0.21 1.96c-0.28 2.73-1.94 3.51-4.58 3.51-4.06-0.01-16.83 1-19.66-1.1q-0.41-0.3-0.59-0.77l-1.21-3.1 0.79-1.29z" fill="#d49527"/> <path d="m262.71 82.75q-0.39 3.49 3.04 3.5 5.66 0.01 9.5 0.79-1.5 1.57-2.09 3.33-4.25-1.4-9.92-1.19-3.49 0.13-3.56-3.44-0.01-0.3-0.28-0.44-0.2-0.11-0.36-0.05l0.21-1.96q1.86 0.28 3.46-0.54z" fill="#36a4b1"/> <path d="m107 83.29 1 0.25c0.16 7.08 13.56 5.43 20.88 5.03q0.65-0.03 0.7 0.61l0.21 3.07v9.5l-0.08 0.75q-8.55-0.14-17.09 0.26c-5.01 0.23-5.06 4.14-5.07 8.49q-0.05 49.4-0.06 98.8 0 0.51-0.32 0.89-0.96 1.14-0.73 2.12-4.39 3.8-4.79 9.61a0.82 0.81 1.1 0 1-0.8 0.76l-13.13 0.24q-0.49 0.01-0.84 0.37-1.54 1.62-0.67 3.96l-0.46 0.29c-3.76-2.65-2.84-13.24-3-17.5l1.43-1.33q0.32-0.3 0.32-0.73v-97.94q0-0.45-0.38-0.69l-0.91-0.6c0.41-5.23-0.59-13.69 1.17-17.67 3.19-7.23 13.66-5.49 20.18-5.92q0.52-0.03 0.83-0.45l1.61-2.17z" fill="#288196"/> <path d="m142.25 83.79 63.73 0.05 0.06 12.16-0.29 9.07-54.87-1.1a1.13 1.13 0 0 0-1.15 1.13q-0.02 33.01 0.23 66.09 0.03 4.04 0.33 8.06l-1.33 4-6.72-0.54 0.01-98.92z" fill="#288196"/> <path d="m219.25 83.79-0.04 7.96q-6.84 1.28-13.17 4.25l-0.06-12.16 13.27-0.05z" fill="#d49527"/> <path d="m219.25 83.79h13.75l1.21 3.1q0.18 0.47 0.59 0.77c2.83 2.1 15.6 1.09 19.66 1.1 2.64 0 4.3-0.78 4.58-3.51q0.16-0.06 0.36 0.05 0.27 0.14 0.28 0.44 0.07 3.57 3.56 3.44 5.67-0.21 9.92 1.19c4.01 2.42 5 5.41 2.64 9.68q-2.74 4.97-5.76 9.79c-2.22 3.55-2.2 5.62-2.24 9.66q-0.48 49.62-0.19 99.25 0.02 3.52 2.43 6.02a0.29 0.29 0 0 1-0.23 0.49c-3.6-0.38-12.82-1.75-13.77 3.24h-0.75q-3.57-15.41-6.29-31-0.55-3.18-2.5-7.21c10.77 4.52 11.48 17.77 13.43 27.81a0.5 0.49 46 0 0 0.97 0.02q1.04-4.57 1.04-9.62 0.01-48.23 0.62-96.44c0.06-4.45-1.89-6.48-6.49-6.58q-14.13-0.29-28.26-0.58a0.35 0.34-89.2 0 0-0.35 0.35l1.15 78.96-7.66-0.63-1.41-0.08q-0.54-4.69-0.54-7.5-0.03-20.39 0.21-84.25l0.04-7.96z" fill="#288196"/> <path d="m275.25 87.04c4.21 1.24 5.43 4.04 5.45 8.42q0.04 12.64 0.09 25.29-0.6 44.12-0.16 88.25c0.21 6.04 0.72 12.03-2.88 16.04l-0.56-0.05q-0.46-0.05-0.46-0.51l0.29-121.99a0.38 0.37 51.7 0 0-0.74-0.09c-0.95 4.07-2.79 7.61-2.79 11.98q0.02 50.31 0 100.62 0 3.12 1.05 12.25c-5.31 2.1-12.81 1.26-18.5 1.25 0.95-4.99 10.17-3.62 13.77-3.24a0.29 0.29 0 0 0 0.23-0.49q-2.41-2.5-2.43-6.02-0.29-49.63 0.19-99.25c0.04-4.04 0.02-6.11 2.24-9.66q3.02-4.82 5.76-9.79c2.36-4.27 1.37-7.26-2.64-9.68q0.59-1.76 2.09-3.33z" fill="#4bc0d1"/> <path d="m286.25 123.79-0.29-3.29-0.01-27.29q3.02-2.32 5.6-3.4c12.69-5.33 27.89 0.46 28.84 15.59q0.04 0.57 0.56 0.79 2.28 0.99 3.69 3.02 0.29 0.42 0.78 0.36c8.17-0.86 14.03 6.12 15.23 13.38a0.7 0.69-4.9 0 1-0.69 0.81l-53.71 0.03z" fill="#f9f8f6"/> <path d="m139.44 100.75-9.65 1v-9.5q4.3-0.12 8.62-1.82a0.77 0.77 0 0 1 1.05 0.71l-0.02 9.61z" fill="#f6b83b"/> <path d="m71.21 92.25v14.5h-21.68q-1.51 0-1.28-1.48 1.05-7.07 8.29-7.57 0.5-0.04 0.77-0.46 4.75-7.4 13.9-4.99z" fill="#f9f8f6"/> <path d="m219.21 91.75q-0.24 63.86-0.21 84.25 0 2.81 0.54 7.5l-0.41 0.45q-0.46 0.49-0.93 0.01l-1.99-2.04q-3.25-10.16-10.17-18.69l-0.29-58.16 0.29-9.07q6.33-2.97 13.17-4.25z" fill="#fdce5f"/> <path d="m139.44 100.75-0.04 80.73q0 0.5-0.49 0.54c-2.2 0.19-6.34 0.44-7.88 2.16q-0.34 0.37 0.13 0.2 5.07-1.85 11.08-1.67l6.72 0.54q-0.17 2.1-1.64 3.51-0.38 0.38-0.92 0.38c-5.94 0.04-22.58-0.02-25.53 2.42q-0.42 0.35 0.12 0.26 12.88-2.06 25.95-1.77 0.97 0.03 0.16 0.56-0.75 0.51-1.7 0.43-0.4-0.03-0.4 0.37 0 0.14 0 0.28-0.01 0.48 0.48 0.53l4.27 0.49 5.48 0.29q27.7 1.12 43.21 0.87 6.97-0.11 10.43 0.2 0.53 0.05 0.92 0.4c6.62 5.89-12.74 17.76-17.11 19.86-1.15 0.56-2.37 0.4-2.68 2.13l-1.25-0.42c-1.75-1.55-22.03-0.57-25.75-0.58l12.21-0.57q2.69-0.12 0-0.26c-15.78-0.77-30.14-0.92-46.97-3.81q-4.87-0.84-9.29-3.12a0.54 0.54 0 0 0-0.78 0.58l1.08 5.93h-2q-2.16-9.43-0.88-18.13c1.01-6.8 6.16-7.51 11.95-8.44q1.4-0.22 1.4-1.64l-0.01-81.5 0.08-0.75 9.65-1z" fill="#fdce5f"/> <path d="m277.75 225.04q-1.25 1.62-3.21 2.21-1.05-9.13-1.05-12.25 0.02-50.31 0-100.62c0-4.37 1.84-7.91 2.79-11.98a0.38 0.37 51.7 0 1 0.74 0.09l-0.29 121.99q0 0.46 0.46 0.51l0.56 0.05z" fill="#288196"/> <path d="m129.71 102.5 0.01 81.5q0 1.42-1.4 1.64c-5.79 0.93-10.94 1.64-11.95 8.44q-1.28 8.7 0.88 18.13-5.43-0.48-10.81 0.85-0.23-0.98 0.73-2.12 0.32-0.38 0.32-0.89 0.01-49.4 0.06-98.8c0.01-4.35 0.06-8.26 5.07-8.49q8.54-0.4 17.09-0.26z" fill="#4bc0d1"/> <path d="m205.75 105.07 0.29 58.16q0.09 0.47-0.08 1.02-6.03-7.89-13.45-14.48-6.66-7.63-16-3.81-0.47 0.19-0.75 0.61c-0.77 1.19-1.5 1.26-2.92 0.97-16.39-3.38-19.2 21.59-22.55 31.71q-0.3-4.02-0.33-8.06-0.25-33.08-0.23-66.09a1.13 1.13 0 0 1 1.15-1.13l54.87 1.1z" fill="#4bc0d1"/> <path d="m246.5 190.29c-4.27-5.97-11.64-5.48-17.89-6.08l-1.15-78.96a0.35 0.34-89.2 0 1 0.35-0.35q14.13 0.29 28.26 0.58c4.6 0.1 6.55 2.13 6.49 6.58q-0.61 48.21-0.62 96.44 0 5.05-1.04 9.62a0.5 0.49 46 0 1-0.97-0.02c-1.95-10.04-2.66-23.29-13.43-27.81z" fill="#4bc0d1"/> <path d="m77.54 107.25 5.67 2.25 0.91 0.6q0.38 0.24 0.38 0.69v97.94q0 0.43-0.32 0.73l-1.43 1.33q-2.32 1.32-5 1.17 2.18-3.3 1.5-5.96-3.88-15.24-4.04-31 0.07-24.25 0.04-48.5-0.01-8.9 2.29-19.25z" fill="#d34639"/> <path d="m285.96 120.5 0.29 3.29 0.04 50.21-0.11 32.45-0.22 2.3-5.33 0.25q-0.44-44.13 0.16-88.25l5.17-0.25z" fill="#f25d4c"/> <path d="m192.51 149.77q11.89 15.25 20.53 32.48 0.85 1.48 2.56 0.96 0.44-0.14 0.83 0.12 0.44 0.3 0.3 0.73-0.23 0.71 0.51 0.77 1.94 0.14 3.71-1.25l7.66 0.63c6.25 0.6 13.62 0.11 17.89 6.08q1.95 4.03 2.5 7.21 2.72 15.59 6.29 31v0.5l-0.04 0.85q-0.03 0.46-0.31 0.83c-3.95 4.93-12.22 7.95-16.47 2.33q-5.58-7.37-8.33-18.41-1.31-5.26-0.4 0.09 1.58 9.33 3.91 18.5 0.11 0.43-0.04 0.86l-0.15 0.45-1.96-0.04q-1.69-0.78-2.79-2.21-2.5-16.6-5.02-33.19-0.71-4.66-4.3-7.45-0.21-0.17-0.4 0.02-0.12 0.13-0.24 0.24-0.18 0.17 0.03 0.3c3.83 2.43 4.6 8.15 4.98 12.27q0.91 9.59 2.82 19.04c0.46 2.26 0.38 5.47 1.6 8.2q0.19 0.41-0.24 0.58-0.21 0.08-0.44 0.03l-17.48-3.89q-6.54-3.13-11.93-7.86-0.36-0.31-0.83-0.29l-1.01 0.04-0.75-0.58q0.2-1.25-1-1.5l-4.5-3.75c0.31-1.73 1.53-1.57 2.68-2.13 4.37-2.1 23.73-13.97 17.11-19.86q-0.39-0.35-0.92-0.4-3.46-0.31-10.43-0.2-15.51 0.25-43.21-0.87 1.21-0.84 2.54-0.39 0.74 0.25 0.94-0.52l0.67-2.65q0.15-0.62-0.48-0.64l-3.64-0.15q-0.43-0.01-0.76 0.25l-4.75 3.81-4.27-0.49q-0.49-0.05-0.48-0.53 0-0.14 0-0.28 0-0.4 0.4-0.37 0.95 0.08 1.7-0.43 0.81-0.53-0.16-0.56-13.07-0.29-25.95 1.77-0.54 0.09-0.12-0.26c2.95-2.44 19.59-2.38 25.53-2.42q0.54 0 0.92-0.38 1.47-1.41 1.64-3.51l1.33-4c3.35-10.12 6.16-35.09 22.55-31.71 1.42 0.29 2.15 0.22 2.92-0.97q0.28-0.42 0.75-0.61 9.34-3.82 16 3.81zm-10.55 2.23c6.48 9.68 9.45 20.31 13.54 31.04q0.05 2.88 1.94 4.73 0.36 0.36 0.87 0.34c5.44-0.18 11.47-0.69 16.73 0.71q3.15 0.85 6.5 1.95 6.11 7.34 7.56 16.58a0.71 0.71 0 0 0 1.16 0.43c4.48-3.87 12.58-17.43 1.72-19.52q-8.66-1.67-18.5-0.89l-11.54-0.42q-0.5-0.01-0.81-0.4-1.21-1.48-1.63-3.34 4.09-0.37 6.3 0.22 3.39 0.91 1.41-1.99l-7.96-11.65q0.45-0.12 0.62-0.48 0.22-0.46-0.07-0.89-6.73-9.99-15.7-18.04-0.36-0.32-0.83-0.42l-3.26-0.71q-0.47-0.1-0.16 0.27l2.11 2.48zm-17 5.1c-2.44 8.6-4.15 17.63-7.47 25.83q-0.17 0.41 0.28 0.39l7.23-0.36 4.17-0.05q0.67-0.01 0.48-0.65-0.41-1.37 0.35-2.55l5.46 0.04 0.66 2.26q0.16 0.52 0.71 0.51l3.67-0.06 5.47-0.04q0.63 0 0.45-0.61l-4.96-16.06-1.67-5.25-2.29-4.79q-2.69-4.27-7.46-4.99c-5.18-0.78-11.13 7.84-12.97 11.87q-0.45 1 0.28 0.18 3.26-3.61 7.61-5.67z" fill="#f6b83b"/> <path d="m199.25 169.79-2.5-3.08q-6.3-8.06-13.78-15.02-0.34-0.32-0.74-0.07-0.19 0.13-0.27 0.38l-2.11-2.48q-0.31-0.37 0.16-0.27l3.26 0.71q0.47 0.1 0.83 0.42 8.97 8.05 15.7 18.04 0.29 0.43 0.07 0.89-0.17 0.36-0.62 0.48z" fill="#d49527"/> <path d="m192.51 149.77q7.42 6.59 13.45 14.48 4.01 7.83 8.02 15.65c0.35 0.7 0.24 1.08 0.27 1.81l-1.21 0.54q-8.64-17.23-20.53-32.48z" fill="#36a4b1"/> <path d="m177.5 155.71q-5.36 11.66-2.04 24.04l-5.46-0.04-0.11-10.23q1.19-8.34 3.34-16.28a0.58 0.58 0 0 0-0.65-0.72q-4.91 0.83-7.62 4.62-4.35 2.06-7.61 5.67-0.73 0.82-0.28-0.18c1.84-4.03 7.79-12.65 12.97-11.87q4.77 0.72 7.46 4.99z" fill="#d49527"/> <path d="m196.75 166.71q-3.57 1.51-2 5.29 1.58 3.81 3.75 10.96l-3 0.08c-4.09-10.73-7.06-21.36-13.54-31.04q0.08-0.25 0.27-0.38 0.4-0.25 0.74 0.07 7.48 6.96 13.78 15.02z" fill="#288196"/> <path d="m169.89 169.48q-1.95 6.22-2.67 12.72-0.07 0.59-0.67 0.55-0.86-0.06-1.55 0.21l-7.23 0.36q-0.45 0.02-0.28-0.39c3.32-8.2 5.03-17.23 7.47-25.83q2.71-3.79 7.62-4.62a0.58 0.58 0 0 1 0.65 0.72q-2.15 7.94-3.34 16.28zm-3.2074-10.289a0.26 0.26 0 0 0-0.214-0.299l-0.217-0.0359a0.26 0.26 0 0 0-0.299 0.214l-3.6552 22.08a0.26 0.26 0 0 0 0.214 0.299l0.217 0.0359a0.26 0.26 0 0 0 0.299-0.214l3.6552-22.08z" fill="#288196"/> <path d="m177.5 155.71 2.29 4.79q-1.68 2.36-1 5.25-0.12 8.46 1.71 16.71l-3.67 0.06q-0.55 0.01-0.71-0.51l-0.66-2.26q-3.32-12.38 2.04-24.04z" fill="#288196"/> <rect transform="translate(164.49,170.17) rotate(9.4)" x="-.37" y="-11.45" width=".74" height="22.9" rx=".26" fill="#4bc0d1"/> <path d="m179.79 160.5 1.67 5.25h-2.67q-0.68-2.89 1-5.25z" fill="#36a4b1"/> <path d="m206.04 163.23q6.92 8.53 10.17 18.69l-1.96-0.21c-0.03-0.73 0.08-1.11-0.27-1.81q-4.01-7.82-8.02-15.65 0.17-0.55 0.08-1.02z" fill="#d49527"/> <path d="m178.79 165.75h2.67l4.96 16.06q0.18 0.61-0.45 0.61l-5.47 0.04q-1.83-8.25-1.71-16.71z" fill="#4bc0d1"/> <path d="m196.75 166.71 2.5 3.08 7.96 11.65q1.98 2.9-1.41 1.99-2.21-0.59-6.3-0.22l-1-0.25q-2.17-7.15-3.75-10.96-1.57-3.78 2-5.29z" fill="#4bc0d1"/> <path d="m169.89 169.48 0.11 10.23q-0.76 1.18-0.35 2.55 0.19 0.64-0.48 0.65l-4.17 0.05q0.69-0.27 1.55-0.21 0.6 0.04 0.67-0.55 0.72-6.5 2.67-12.72z" fill="#4bc0d1"/> <path d="m71.12 171.87 0.17 4.13-0.33 16q-10.85 0.61-21.46-0.11-0.84-0.05-0.76-0.89 1.25-13.92 15.13-11.58 0.56 0.09 0.64-0.47 0.8-5.83 6.61-7.08z" fill="#f9f8f6"/> <path d="m286.29 174q9.37 1.7 12.08 10.75 0.16 0.5 0.62 0.73 2.54 1.3 3.88 3.85 0.25 0.48 0.79 0.57c2.37 0.39 5.36 0.52 7.4 1.47q9.07 4.24 7.66 15-0.06 0.47-0.54 0.49-16.02 0.6-32-0.41l0.11-32.45z" fill="#f9f8f6"/> <path d="m75.21 175q0.16 15.76 4.04 31 0.68 2.66-1.5 5.96-0.12 0.04-0.25 0.08l-6.46-1.79-0.08-18.25 0.33-16q1.78-1.01 3.92-1z" fill="#f25d4c"/> <path d="m214.25 181.71 1.96 0.21 1.99 2.04q0.47 0.48 0.93-0.01l0.41-0.45 1.41 0.08q-1.77 1.39-3.71 1.25-0.74-0.06-0.51-0.77 0.14-0.43-0.3-0.73-0.39-0.26-0.83-0.12-1.71 0.52-2.56-0.96l1.21-0.54z" fill="#184e64"/> <path d="m195.5 183.04 3-0.08 1 0.25q0.42 1.86 1.63 3.34 0.31 0.39 0.81 0.4l11.54 0.42 8.06 3.4q-3.35-1.1-6.5-1.95c-5.26-1.4-11.29-0.89-16.73-0.71q-0.51 0.02-0.87-0.34-1.89-1.85-1.94-4.73z" fill="#d49527"/> <path d="m155.23 191-5.48-0.29 4.75-3.81q0.33-0.26 0.76-0.25l3.64 0.15q0.63 0.02 0.48 0.64l-0.67 2.65q-0.2 0.77-0.94 0.52-1.33-0.45-2.54 0.39z" fill="#d49527"/> <path d="m221.54 190.77-8.06-3.4q9.84-0.78 18.5 0.89c10.86 2.09 2.76 15.65-1.72 19.52a0.71 0.71 0 0 1-1.16-0.43q-1.45-9.24-7.56-16.58z" fill="#fdce5f"/> <path d="m228.71 232.25-1.21 0.04q0.23 0.05 0.44-0.03 0.43-0.17 0.24-0.58c-1.22-2.73-1.14-5.94-1.6-8.2q-1.91-9.45-2.82-19.04c-0.38-4.12-1.15-9.84-4.98-12.27q-0.21-0.13-0.03-0.3 0.12-0.11 0.24-0.24 0.19-0.19 0.4-0.02 3.59 2.79 4.3 7.45 2.52 16.59 5.02 33.19z" fill="#d49527"/> <path d="m163 213.46-43.75-1.25-1.08-5.93a0.54 0.54 0 0 1 0.78-0.58q4.42 2.28 9.29 3.12c16.83 2.89 31.19 3.04 46.97 3.81q2.69 0.14 0 0.26l-12.21 0.57z" fill="#f6b83b"/> <path d="m285.96 208.75c0.68 10.82-0.11 22.91-12.21 25.23q-1.44 0.27-6.42 0.58-0.55 0.03-0.55 0.58l-0.03 2.57c0.09 2.98-2.34 1.8-2.5 3.5q-5.74 0.11-11.33-1.44c4.18-2.39 3.65-6.5 2.37-10.77v-0.5h0.75c5.69 0.01 13.19 0.85 18.5-1.25q1.96-0.59 3.21-2.21c3.6-4.01 3.09-10 2.88-16.04l5.33-0.25z" fill="#0f3d50"/> <path d="m71.04 210.25 6.46 1.79-0.04 5.71-3.69 3.89q-0.36 0.38-0.36 0.92l0.05 4.44c-1.16-2.68-2.39-4.49-2.4-7.57q-0.01-4.59-0.02-9.18z" fill="#f5917c"/> <path d="m82.75 210.79c0.16 4.26-0.76 14.85 3 17.5l0.21 5.21 0.04 1.21q-1.99-0.09-3.51-1.38-0.33-0.27-0.67-0.02l-0.32 0.23-0.79-0.79c-4.23-4.6-3.55-9.3-3.25-15l0.04-5.71q0.13-0.04 0.25-0.08 2.68 0.15 5-1.17z" fill="#0f3d50"/> <path d="m117.25 212.21h2l43.75 1.25c3.72 0.01 24-0.97 25.75 0.58 1.29 2.14 3.55 5.94 5.75 4.17q1.2 0.25 1 1.5-0.31 3.21 3.46 4.29 1.32 0.45 1.54 1.71c-4.42 0.85-10.4 1.56-12 6.42q-25.15 0.56-55.56-0.28-23.7-0.66-44.29-2.97c-0.79-0.09-1.73-0.54-2.44-0.88q-0.87-2.34 0.67-3.96 0.35-0.36 0.84-0.37l13.13-0.24a0.82 0.81 1.1 0 0 0.8-0.76q0.4-5.81 4.79-9.61 5.38-1.33 10.81-0.85zm22.84 2.37-22.83-0.65a0.73 0.73 0 0 0-0.73 0.9c0.4 1.59 1.37 2.31 3.05 2.43 3.15 0.22 20.56 1.86 21.05-2.06q0.07-0.6-0.54-0.62zm50.74 3.63a0.22 0.22 0 0 1-0.07-0.05l-3.47-3.79a0.22 0.22 0 0 0-0.22-0.06l-10.05 2.78a0.22 0.22 0 0 0-0.12 0.33l2.55 3.79a0.22 0.22 0 0 0 0.22 0.09l11.8-2.38a0.22 0.22 0 0 0 0.04-0.42l-0.68-0.29zm-42.824 1.5025a0.91 0.91 0 0 0-0.8843-0.9351l-2.6389-0.0737a0.91 0.91 0 0 0-0.9351 0.8843l-0.0335 1.1995a0.91 0.91 0 0 0 0.8843 0.9351l2.6389 0.0737a0.91 0.91 0 0 0 0.9351-0.8843l0.0335-1.1995zm6.2301-0.3817a0.63 0.63 0 0 0-0.6398-0.62l-3.7395 0.0588a0.63 0.63 0 0 0-0.6201 0.6398l0.0274 1.7398a0.63 0.63 0 0 0 0.6398 0.62l3.7395-0.0588a0.63 0.63 0 0 0 0.6201-0.6398l-0.0274-1.7398zm6.8432-0.1375a0.42 0.42 0 0 0-0.4163-0.4237l-4.4798-0.0391a0.42 0.42 0 0 0-0.4237 0.4163l-0.0186 2.1399a0.42 0.42 0 0 0 0.4163 0.4237l4.4798 0.0391a0.42 0.42 0 0 0 0.4237-0.4163l0.0186-2.1399zm7.1725-0.0213a0.44 0.44 0 0 0-0.4431-0.4369l-4.2799 0.0299a0.44 0.44 0 0 0-0.4369 0.443l0.0165 2.36a0.44 0.44 0 0 0 0.4431 0.4369l4.2799-0.0299a0.44 0.44 0 0 0 0.4369-0.443l-0.0165-2.36zm6.8883 2.898c2.57 1.55 2.41-1.32 1.14-2.13q-0.67-0.42-0.92 0.33l-0.42 1.26a0.46 0.46 0 0 0 0.2 0.54zm-64.25-2.07a0.62 0.62 0 0 0-0.6 0.47l-1.01 4.01a0.62 0.62 0 0 0 0.61 0.77h3.27a0.62 0.62 0 0 0 0.6-0.48l0.94-4.01a0.62 0.62 0 0 0-0.6-0.76h-3.21zm10.03 5.69 0.49-5.02a0.22 0.22 0 0 0-0.2-0.24l-4.31-0.42a1.34 1.12 5.6 0 0-1.45 0.98l-0.31 3.22a1.34 1.12 5.6 0 0 1.22 1.25l4.32 0.42a0.22 0.22 0 0 0 0.24-0.19zm2.49-5.44a0.61 0.61 0 0 0-0.6 0.52l-0.65 4.28a0.61 0.61 0 0 0 0.6 0.7h3.79a0.61 0.61 0 0 0 0.6-0.52l0.67-4.28a0.61 0.61 0 0 0-0.6-0.7h-3.81zm11.84 5.46h0.5q0.86 0.5 1.72 0.27 0.51-0.14 0.67-0.64l1.31-3.98q0.18-0.55-0.39-0.55l-3.06-0.02h-0.75l-4.59-0.53q-0.55-0.06-0.66 0.48l-0.88 4.35q-0.11 0.52 0.42 0.53l5.71 0.09zm-18.18 3.29 0.05-1.24a0.41 0.41 0 0 0-0.39-0.43l-6.9-0.29a1.3 1.03 2.4 0 0-1.35 0.98 1.3 1.03 2.4 0 0 1.26 1.08l6.9 0.29a0.41 0.41 0 0 0 0.43-0.39zm-9.4702-0.8394a1.95 0.96 0.9 0 0-1.9347-0.9905 1.95 0.96 0.9 0 0-1.9649 0.9293 1.95 0.96 0.9 0 0 1.9347 0.9905 1.95 0.96 0.9 0 0 1.9649-0.9293zm13.4 1.0494 0.71 0.04q2.59 1.06 5.29 0.21l0.46 0.04q1.91 0.65 3.79-0.04h0.5q1.36 0.87 2.96 0.45 0.54-0.15 0.54-0.7v-0.93q0-0.46-0.43-0.62-1.64-0.6-3.11 0.34h-0.67q-4.61-0.92-9.29-0.46h-0.75c-1-0.42-3.62-0.84-3.22 1.19q0.09 0.49 0.55 0.65 1.3 0.47 2.67-0.17zm19.228-0.567a0.83 0.83 0 0 0-0.8035-0.8557l-2.3388-0.0735a0.83 0.83 0 0 0-0.8557 0.8035l-0.0188 0.5997a0.83 0.83 0 0 0 0.8035 0.8557l2.3388 0.0735a0.83 0.83 0 0 0 0.8557-0.8035l0.0188-0.5997zm4.0216 1.067 0.71 0.04q1.83 1.02 3.79 0.21h1q1.62 0.51 3.34 0.23 0.41-0.07 0.41-0.49v-0.93q0-0.45-0.43-0.6-1.77-0.62-3.36 0.33h-0.92q-1.63-0.91-3.54-0.46l-1 0.25q-1.27-0.8-2.68-0.4-0.5 0.15-0.57 0.66l-0.08 0.6q-0.08 0.61 0.49 0.86 1.53 0.67 2.84-0.3zm13.88 0.29v-1.52a0.46 0.46 0 0 0-0.46-0.47h-1.47a1.71 0.8 0.2 0 0-1.71 0.79v0.84a1.71 0.8 0.2 0 0 1.71 0.81h1.47a0.46 0.46 0 0 0 0.46-0.45zm4.37 0.21h0.75l3.5 0.25h0.5q1.96 0.66 3.75-0.17l0.71-0.04q1.56 1.19 3.08 0h0.92q1.32 0.95 2.85 0.37 0.44-0.17 0.44-0.64v-0.73q0-0.51-0.5-0.65-1.39-0.38-2.75 0.19h-0.75q-1.51-0.69-3.04-0.04l-0.96 0.04-3.75-0.25h-1l-6.62-0.23q-0.63-0.02-0.63 0.61v0.82q0 0.49 0.47 0.63 1.53 0.46 3.03-0.16zm20.54-1.66-2.77-0.04a0.46 0.46 0 0 0-0.47 0.46l-0.01 1.11a1.77 0.87 0.7 0 0 1.76 0.89h0.16a1.77 0.87 0.7 0 0 1.78-0.85l0.01-1.11a0.46 0.46 0 0 0-0.46-0.46zm2.02 2.44c1.97 0.05 3.49 0.97 3.99-1.87q0.12-0.68-0.57-0.61l-3.15 0.33q-0.54 0.06-0.67 0.57l-0.2 0.79q-0.21 0.78 0.6 0.79z" fill="#f9f8f6"/> <path d="m117.26 213.93 22.83 0.65q0.61 0.02 0.54 0.62c-0.49 3.92-17.9 2.28-21.05 2.06-1.68-0.12-2.65-0.84-3.05-2.43a0.73 0.73 0 0 1 0.73-0.9z" fill="#d7e4e7"/> <path d="m188.75 214.04 1.25 0.42 4.5 3.75c-2.2 1.77-4.46-2.03-5.75-4.17z" fill="#184e64"/> <path d="m255.29 229c1.28 4.27 1.81 8.38-2.37 10.77q-12.81 6.41-23.96-2.27c0.79-0.81 4.64-2.46 4.5-3l0.15-0.45q0.15-0.43 0.04-0.86-2.33-9.17-3.91-18.5-0.91-5.35 0.4-0.09 2.75 11.04 8.33 18.41c4.25 5.62 12.52 2.6 16.47-2.33q0.28-0.37 0.31-0.83l0.04-0.85z" fill="#d49527"/> <path d="m190.83 218.21 0.68 0.29a0.22 0.22 0 0 1-0.04 0.42l-11.8 2.38a0.22 0.22 0 0 1-0.22-0.09l-2.55-3.79a0.22 0.22 0 0 1 0.12-0.33l10.05-2.78a0.22 0.22 0 0 1 0.22 0.06l3.47 3.79a0.22 0.22 0 0 0 0.07 0.05z" fill="#184e64"/> <path d="m77.46 217.75c-0.3 5.7-0.98 10.4 3.25 15l-3.21-0.79q-2.77-1.87-4.04-4.96l-0.05-4.44q0-0.54 0.36-0.92l3.69-3.89z" fill="#f25d4c"/> <rect transform="translate(145.76,220.25) rotate(1.6)" x="-2.23" y="-1.51" width="4.46" height="3.02" rx=".91" fill="#184e64"/> <rect transform="translate(151.75 220.24) rotate(-.9)" x="-2.5" y="-1.5" width="5" height="3" rx=".63" fill="#184e64"/> <rect transform="translate(158.41 220.24) rotate(.5)" x="-2.66" y="-1.49" width="5.32" height="2.98" rx=".42" fill="#184e64"/> <rect transform="translate(165.68 220.37) rotate(-.4)" x="-2.58" y="-1.62" width="5.16" height="3.24" rx=".44" fill="#184e64"/> <path d="m175.14 222.07a0.46 0.46 0 0 1-0.2-0.54l0.42-1.26q0.25-0.75 0.92-0.33c1.27 0.81 1.43 3.68-1.14 2.13z" fill="#184e64"/> <path d="m195.5 219.71 0.75 0.58 2.71 3.71q-3.77-1.08-3.46-4.29z" fill="#184e64"/> <path d="m110.89 220h3.21a0.62 0.62 0 0 1 0.6 0.76l-0.94 4.01a0.62 0.62 0 0 1-0.6 0.48h-3.27a0.62 0.62 0 0 1-0.61-0.77l1.01-4.01a0.62 0.62 0 0 1 0.6-0.47z" fill="#184e64"/> <path d="m120.92 225.69a0.22 0.22 0 0 1-0.24 0.19l-4.32-0.42a1.34 1.12 5.6 0 1-1.22-1.25l0.31-3.22a1.34 1.12 5.6 0 1 1.45-0.98l4.31 0.42a0.22 0.22 0 0 1 0.2 0.24l-0.49 5.02z" fill="#184e64"/> <path d="m123.41 220.25h3.81a0.61 0.61 0 0 1 0.6 0.7l-0.67 4.28a0.61 0.61 0 0 1-0.6 0.52h-3.79a0.61 0.61 0 0 1-0.6-0.7l0.65-4.28a0.61 0.61 0 0 1 0.6-0.52z" fill="#184e64"/> <path d="m135.25 220.79v4.92l-5.71-0.09q-0.53-0.01-0.42-0.53l0.88-4.35q0.11-0.54 0.66-0.48l4.59 0.53z" fill="#184e64"/> <path d="m196.25 220.29 1.01-0.04q0.47-0.02 0.83 0.29 5.39 4.73 11.93 7.86-5.22-0.04-9.52-2.69-0.22-1.26-1.54-1.71l-2.71-3.71z" fill="#d49527"/> <path d="m135.25 220.79h0.75l-0.25 4.92h-0.5v-4.92z" fill="#d7e4e7"/> <path d="m136 220.79 3.06 0.02q0.57 0 0.39 0.55l-1.31 3.98q-0.16 0.5-0.67 0.64-0.86 0.23-1.72-0.27l0.25-4.92z" fill="#184e64"/> <path d="m77.5 231.96 3.21 0.79 0.79 0.79q0.65 3.24-0.04 6.46l-3.21 1.04-9.75 2.75-40.2-0.36a1.02 1.02 0 0 1-1-1.16q1.57-10.91 12.72-9.98 0.53 0.04 0.7-0.47c4.26-13.25 21.24-13.78 26.74-0.73q0.2 0.47 0.65 0.71 1.27 0.65 1.98 1.91 0.25 0.45 0.66 0.14 2.95-2.16 6.75-1.89z" fill="#f9f8f6"/> <path d="m200.5 225.71q4.3 2.65 9.52 2.69l17.48 3.89 1.21-0.04q1.1 1.43 2.79 2.21l-3.71 0.29-0.62-0.64q-0.37-0.39-0.91-0.41l-37.76-1.57c1.6-4.86 7.58-5.57 12-6.42z" fill="#184e64"/> <path d="m117.07 229a0.41 0.41 0 0 1-0.43 0.39l-6.9-0.29a1.3 1.03 2.4 0 1-1.26-1.08 1.3 1.03 2.4 0 1 1.35-0.98l6.9 0.29a0.41 0.41 0 0 1 0.39 0.43l-0.05 1.24z" fill="#184e64"/> <ellipse transform="translate(105.65 228.13) rotate(.9)" rx="1.95" ry=".96" fill="#184e64"/> <path d="m121 227.54v1.67q-1.37 0.64-2.67 0.17-0.46-0.16-0.55-0.65c-0.4-2.03 2.22-1.61 3.22-1.19z" fill="#184e64"/> <path d="m131.04 228 0.21 1.46q-1.88 0.69-3.79 0.04l0.02-1.09q0.01-0.44-0.41-0.33c-0.82 0.21-0.78 1.08-0.07 1.38q-2.7 0.85-5.29-0.21l0.04-1.71q4.68-0.46 9.29 0.46z" fill="#184e64"/> <path d="m121 227.54h0.75l-0.04 1.71-0.71-0.04v-1.67z" fill="#d7e4e7"/> <path d="m131.75 229.46-0.04-1.46q1.47-0.94 3.11-0.34 0.43 0.16 0.43 0.62v0.93q0 0.55-0.54 0.7-1.6 0.42-2.96-0.45z" fill="#184e64"/> <rect transform="translate(138.22,228.88) rotate(1.8)" x="-2" y="-1.13" width="4" height="2.26" rx=".83" fill="#184e64"/> <path d="m144.25 228.29v1.42q-1.31 0.97-2.84 0.3-0.57-0.25-0.49-0.86l0.08-0.6q0.07-0.51 0.57-0.66 1.41-0.4 2.68 0.4z" fill="#184e64"/> <path d="m86.21 228c0.71 0.34 1.65 0.79 2.44 0.88q20.59 2.31 44.29 2.97 30.41 0.84 55.56 0.28l37.76 1.57q0.54 0.02 0.91 0.41l0.62 0.64-1.75 0.48c-3.41-0.48-7.41 0.03-10.05-0.03q-42.28-0.82-84.56-1.44c-13.78-0.2-28.79-0.98-43.22-1.26q-1.82-0.34-2.25 1l-0.21-5.21 0.46-0.29z" fill="#f25d4c"/> <path d="m127.46 229.5-0.46-0.04c-0.71-0.3-0.75-1.17 0.07-1.38q0.42-0.11 0.41 0.33l-0.02 1.09z" fill="#36a4b1"/> <path d="m131.04 228h0.67l0.04 1.46h-0.5l-0.21-1.46z" fill="#d7e4e7"/> <path d="m145.25 228.04-0.29 1.71-0.71-0.04v-1.42l1-0.25z" fill="#d7e4e7"/> <path d="m145.25 228.04q1.91-0.45 3.54 0.46l-0.04 1.46q-1.96 0.81-3.79-0.21l0.29-1.71z" fill="#184e64"/> <path d="m149.75 229.96-0.04-1.46q1.59-0.95 3.36-0.33 0.43 0.15 0.43 0.6v0.93q0 0.42-0.41 0.49-1.72 0.28-3.34-0.23z" fill="#184e64"/> <path d="m158.13 230a0.46 0.46 0 0 1-0.46 0.45h-1.47a1.71 0.8 0.2 0 1-1.71-0.81v-0.84a1.71 0.8 0.2 0 1 1.71-0.79h1.47a0.46 0.46 0 0 1 0.46 0.47v1.52z" fill="#184e64"/> <path d="m166.25 228.54 0.5 1.92-3.5-0.25 0.01-0.98q0-0.73-0.56-0.27-0.47 0.38-0.2 1.25-1.5 0.62-3.03 0.16-0.47-0.14-0.47-0.63v-0.82q0-0.63 0.63-0.61l6.62 0.23z" fill="#184e64"/> <path d="m148.79 228.5h0.92l0.04 1.46h-1l0.04-1.46z" fill="#d7e4e7"/> <path d="m166.25 228.54h1v1.92h-0.5l-0.5-1.92z" fill="#d7e4e7"/> <path d="m167.25 228.54 3.75 0.25v1.5q-1.79 0.83-3.75 0.17v-1.92z" fill="#184e64"/> <path d="m175 228.79-0.21 1.46q-1.52 1.19-3.08 0l0.25-1.5q1.53-0.65 3.04 0.04z" fill="#184e64"/> <path d="m175.71 230.25 0.04-1.46q1.36-0.57 2.75-0.19 0.5 0.14 0.5 0.65v0.73q0 0.47-0.44 0.64-1.53 0.58-2.85-0.37z" fill="#184e64"/> <path d="m183.04 228.55a0.46 0.46 0 0 1 0.46 0.46l-0.01 1.11a1.77 0.87 0.7 0 1-1.78 0.85h-0.16a1.77 0.87 0.7 0 1-1.76-0.89l0.01-1.11a0.46 0.46 0 0 1 0.47-0.46l2.77 0.04z" fill="#184e64"/> <path d="m189.05 229.12c-0.5 2.84-2.02 1.92-3.99 1.87q-0.81-0.01-0.6-0.79l0.2-0.79q0.13-0.51 0.67-0.57l3.15-0.33q0.69-0.07 0.57 0.61z" fill="#184e64"/> <path d="m163.25 230.21h-0.75q-0.27-0.87 0.2-1.25 0.56-0.46 0.56 0.27l-0.01 0.98z" fill="#36a4b1"/> <path d="m171 228.79 0.96-0.04-0.25 1.5-0.71 0.04v-1.5z" fill="#d7e4e7"/> <path d="m175 228.79h0.75l-0.04 1.46h-0.92l0.21-1.46z" fill="#d7e4e7"/> <path d="m226.04 235.23-12.98 2.47q-3.49-0.7-7.81-0.68c-27.28 0.15-55-2.01-82.49-2.02q-0.13 0-0.23 0.09l-0.24 0.24q-0.45 0.45 0.19 0.47l62.77 2.24c-1.49 5.19-7.36 8.37-12.5 8.5q-39.99-2.45-79.46-8.93-2.95-2.11-5.08-5.11c14.43 0.28 29.44 1.06 43.22 1.26q42.28 0.62 84.56 1.44c2.64 0.06 6.64-0.45 10.05 0.03z" fill="#f9f8f6"/> <path d="m88.21 232.5q2.13 3 5.08 5.11c-3 0.34-6.32 0.89-7.29-2.9l-0.04-1.21q0.43-1.34 2.25-1z" fill="#d49527"/> <path d="m86 234.71c0.97 3.79 4.29 3.24 7.29 2.9q39.47 6.48 79.46 8.93 13.02 1.17 28.32 0.84c6.04-0.14 10.13-0.84 15.74-3.84q5.99-3.2 12.15-6.04 11.15 8.68 23.96 2.27 5.59 1.55 11.33 1.44l15.25 2.58q-0.53 0.79-1.47 0.74-0.53-0.03-0.79 0.44-0.9 1.68-2.49 2.74-10.36-1.87-20.79-3.17c-8.66-1.09-17.36 1.08-25.74 4.62l-62.47 0.05q-0.46-0.57-0.56-1.39-0.07-0.55-0.62-0.6c-20.41-1.82-37.88-1.13-56.76-3.51q-6.5-0.82-12.17-3.96-0.81-0.45-0.64 0.46l0.26 1.44a0.82 0.82 0 0 1-0.74 0.96q-6.46 0.53-12.73 2.14l-0.33-4.75q0.69-3.22 0.04-6.46l0.32-0.23q0.34-0.25 0.67 0.02 1.52 1.29 3.51 1.38z" fill="#288196"/> <path d="m231.5 234.46 1.96 0.04c0.14 0.54-3.71 2.19-4.5 3q-6.16 2.84-12.15 6.04c-5.61 3-9.7 3.7-15.74 3.84q-15.3 0.33-28.32-0.84c5.14-0.13 11.01-3.31 12.5-8.5l27.81-0.34 12.98-2.47 1.75-0.48 3.71-0.29z" fill="#d7e4e7"/> <path d="m213.06 237.7-27.81 0.34-62.77-2.24q-0.64-0.02-0.19-0.47l0.24-0.24q0.1-0.09 0.23-0.09c27.49 0.01 55.21 2.17 82.49 2.02q4.32-0.02 7.81 0.68z" fill="#f25d4c"/> <path d="m266.75 237.71q20.78 2.33 41.25 6.58-3.14 1.17-3.75 4.42h-0.5q-11.94-3.36-24.25-4.92l-15.25-2.58c0.16-1.7 2.59-0.52 2.5-3.5z" fill="#ac322b"/> <path d="m165.75 249.21-43.5 0.08h-16.75l-32.25-0.33 0.04-0.71 8.5-3.5q6.27-1.61 12.73-2.14a0.82 0.82 0 0 0 0.74-0.96l-0.26-1.44q-0.17-0.91 0.64-0.46 5.67 3.14 12.17 3.96c18.88 2.38 36.35 1.69 56.76 3.51q0.55 0.05 0.62 0.6 0.1 0.82 0.56 1.39z" fill="#4bc0d1"/> <path d="m81.46 240 0.33 4.75-8.5 3.5 0.42-2.75q1.27 0.49 1.7-0.86 0.16-0.49 0.49-0.87l2.35-2.73 3.21-1.04z" fill="#d34639"/> <path d="m78.25 241.04-2.35 2.73q-0.33 0.38-0.49 0.87-0.43 1.35-1.7 0.86 0.23-0.35 0.25-0.65 0.03-0.59-0.55-0.52l-6.12 0.67 1.21-1.21 9.75-2.75z" fill="#f5917c"/> <path d="m279.5 243.79q12.31 1.56 24.25 4.92l-1 0.5-23.5-0.17-3.25-0.33q-0.08-1.2-1.25-1 1.59-1.06 2.49-2.74 0.26-0.47 0.79-0.44 0.94 0.05 1.47-0.74z" fill="#36a4b1"/> <path d="m73.71 245.5-0.42 2.75-0.04 0.71-7.25 0.08q-1.1-2.49 1.29-4.04l6.12-0.67q0.58-0.07 0.55 0.52-0.02 0.3-0.25 0.65z" fill="#0f3d50"/> <path d="m274.75 247.71q1.17-0.2 1.25 1l-14 0.58-33.78-0.13c8.38-3.54 17.08-5.71 25.74-4.62q10.43 1.3 20.79 3.17z" fill="#4bc0d1"/> <path d="m308 244.29q3.11 0.36 4.02 3.47 0.45 1.52-1.13 1.41l-6.64-0.46q0.61-3.25 3.75-4.42z" fill="#0f3d50"/> <path d="m276 248.71 3.25 0.33 0.32 4.14-0.78 8.08a1.11 1.1 2.9 0 1-1.1 0.99h-14.1a1.85 1.85 0 0 1-1.84-1.65l-0.75-6.89 1-4.42 14-0.58z" fill="#eacca3"/> <path d="m66 249.04 7.25-0.08 32.25 0.33q0.28 2.05-0.5 3.92l-0.79 0.54-12.96 0.29q-10.36-0.62-20.71-0.04l-4.65-0.21 0.11-4.75z" fill="#f9f8f6"/> <path d="m279.25 249.04 23.5 0.17 0.66 0.05q0.58 0.05 0.71 0.62 0.46 2.08-0.37 4.08l-12.25 0.08-11-0.25-0.93-0.61-0.32-4.14z" fill="#f9f8f6"/> <path d="m105.5 249.29h16.75c0.76 1.27 0.02 3.7 1.25 4.17-0.46-0.04-0.81 7.06-1.04 8.17a0.83 0.83 0 0 1-0.81 0.66l-15.2-0.14a0.83 0.83 0 0 1-0.83-0.87q0.2-4.01-0.62-8.07 0.78-1.87 0.5-3.92z" fill="#eacca3"/> <path d="m122.25 249.29 43.5-0.08 62.47-0.05 33.78 0.13-1 4.42-1 0.33h-133.5-2l-1-0.58c-1.23-0.47-0.49-2.9-1.25-4.17z" fill="#f9f8f6"/> <path d="m105 253.21q0.82 4.06 0.62 8.07a0.83 0.83 0 0 0 0.83 0.87l15.2 0.14a0.83 0.83 0 0 0 0.81-0.66c0.23-1.11 0.58-8.21 1.04-8.17l1 0.58 0.04 6.46v1.5q-0.89 3-4.01 3.04-4.63-1.35-9.31-0.6-0.5 0.08-0.94-0.14-1.91-0.98-4.33 0.62-3.23-4.96-1.74-11.17l0.79-0.54z" fill="#184e64"/> <path d="m279.57 253.18 0.93 0.61c0.7 3.2 1.68 10.14-3.51 10.38q-9.45 0.45-15.81-0.82-1.61-4.64-1.18-9.31l1-0.33 0.75 6.89a1.85 1.85 0 0 0 1.84 1.65h14.1a1.11 1.1 2.9 0 0 1.1-0.99l0.78-8.08z" fill="#184e64"/> <path d="m291.5 254.04q0.16 12.6 0.47 25.21 0.11 4.73-4.47 4.74-18.7 0.04-24.97 0.16-3.08-10.13-1.35-20.8 6.36 1.27 15.81 0.82c5.19-0.24 4.21-7.18 3.51-10.38l11 0.25zm-4.9598 4.7451a1.24 0.98 84.9 0 0 0.8659-1.3222 1.24 0.98 84.9 0 0-1.0863-1.148 1.24 0.98 84.9 0 0-0.8659 1.3222 1.24 0.98 84.9 0 0 1.0863 1.148zm-10.72 8.0449-9.12 0.14a2.9 2.9 0 0 0-2.85 2.95v0.11a12.13 4.15 89.1 0 0 4.34 12.06l6.62-0.1a12.13 4.15 89.1 0 0 3.96-12.2v-0.11a2.9 2.9 0 0 0-2.95-2.85z" fill="#eacca3"/> <path d="m65.89 253.79 4.65 0.21 0.25 3.5-0.04 35.96h-5l0.14-39.67z" fill="#f5917c"/> <path d="m91.25 254.04 0.01 2.87q-10.21 0.83-20.47 0.59l-0.25-3.5q10.35-0.58 20.71 0.04z" fill="#d34639"/> <path d="m104.21 253.75q-1.49 6.21 1.74 11.17 7.69 1.28 14.58 0.12 3.12-0.04 4.01-3.04l1.97 0.52 0.18 19.41a1.98 1.98 0 0 1-1.99 2l-29.7-0.14q-4.05 0.36-4.08-3.54-0.08-12.19 0.34-23.34l-0.01-2.87 12.96-0.29zm3.71 26.56a2.22 2.22 0 0 0 2.16 1.75l7.76 0.06a2.22 2.22 0 0 0 2.22-1.93l1.32-10.19a2.22 2.22 0 0 0-2.21-2.5h-11.26a2.22 2.22 0 0 0-2.17 2.69l2.18 10.12z" fill="#eacca3"/> <path d="m126.5 254.04c-0.27 2.36-0.3 6.17-1.96 6.46l-0.04-6.46h2z" fill="#f5917c"/> <path d="m126.5 254.04h133.5q-0.43 4.67 1.18 9.31-1.73 10.67 1.35 20.8 1.7 2.8 4.46 2.9 11.85 0.46 23.69 0.06c3.82-0.12 5.07-2.31 5.07-5.98q-0.01-11.73 0.01-23.51a0.61 0.61 0 0 1 0.61-0.61l7.89-0.01q0.7 0 0.7 0.69l0.04 36.27c-6.21 1.57-6.87 5.95-8.04 11.29-38.53 0.38-77.2 1.14-115.72 0.57q-31.12-0.46-62.28-0.1-0.57 0-0.56 0.57l0.1 5.92-37.96 0.04c-0.17-3.8 0.52-9.37-1.23-12.57q-2.66-4.87-8.56-6.22l0.04-35.96q10.26 0.24 20.47-0.59-0.42 11.15-0.34 23.34 0.03 3.9 4.08 3.54 0.47 3.38 4.77 3.42 12.88 0.13 25.77 0.03c2.45-0.02 3.62-1.18 3.66-3.56q0.13-9 0.01-17.99c-0.02-1.71-0.47-3.9-2.7-3.17l-1.97-0.52v-1.5c1.66-0.29 1.69-4.1 1.96-6.46zm94.79 16.71q-0.6 1.35 0.08 2.39 0.3 0.44 0.83 0.53 3.15 0.48 2.34 4.08c-1.42 7.75-10.4 8.09-17.29 8.09-11.13 0-22.73 0.5-33.75-1.13l-0.75-0.25-1.11-9.34q-0.06-0.56 0.41-0.86c4.01-2.58 0.71-7.47-2.26-9.01-2.45-5.79-11.06-4.04-16.2-3.99-6.45 0.06-6.28 4.61-5.28 9.97q2.24 3.45 6.65 3.77-0.24 8.86 4.98 16.23 3.09 4.39 7.7 7.41 1.1 2.56 4.93 3.31 24.75 4.81 47.14 1.59c17.14-2.46 17.92-13.92 17.53-28.34q-0.02-0.55 0.52-0.65c2.29-0.45 5.6-1.04 4.95-3.8l0.5-2.5q0.64-4.43-2.86-6.76-0.42-0.28-0.93-0.27-6.69 0.11-13.36-0.02c-5.42-0.1-6.48 5.65-4.77 9.55z" fill="#f25d4c"/> <path d="m291.5 254.04 12.25-0.08 7.3 0.1q0.62 0.01 0.62 0.62l0.04 38.07-6.71 1.21-0.04-36.27q0-0.69-0.7-0.69l-7.89 0.01a0.61 0.61 0 0 0-0.61 0.61q-0.02 11.78-0.01 23.51c0 3.67-1.25 5.86-5.07 5.98q-11.84 0.4-23.69-0.06-2.76-0.1-4.46-2.9 6.27-0.12 24.97-0.16 4.58-0.01 4.47-4.74-0.31-12.61-0.47-25.21z" fill="#d34639"/> <ellipse transform="translate(286.43,257.55) rotate(84.9)" rx="1.24" ry=".98" fill="#eecec4"/> <path d="m243.21 268.25-6.62 0.46q-1.1-1.24-2.13 0.29-0.42-1.73-1.82-0.85-0.44 0.28-0.41 0.79c0.48 10.82-0.94 23.1-14.26 24.86q-29.24 3.87-58.03-2.57-5.22-7.37-4.98-16.23l-0.27-3.29q-0.04-0.49-0.53-0.58-2.72-0.47-5.85 0.1c-1-5.36-1.17-9.91 5.28-9.97 5.14-0.05 13.75-1.8 16.2 3.99q1.19 3.38-0.33 6.5-2.03 0.29-3.44-1.04-0.49-0.46-0.61 0.2-0.35 1.81 0.38 3.59 0.25 7.35 6.96 9.96l0.75 0.25c-10.53 0.78-11.09-7.79-11.46-15.57-0.03-0.66-0.35-0.93-0.87-1.21a0.65 0.65 0 0 0-0.95 0.59c0.34 12.35 0.72 17.43 14.41 18.68q22.2 2.03 41.12 0.31c9.83-0.9 11.28-9.68 11.27-18.73 0-0.88-0.54-1.56-1.46-1.21q-0.51 0.19-0.52 0.74l-0.08 3.69-3.67-1.25c-1.71-3.9-0.65-9.65 4.77-9.55q6.67 0.13 13.36 0.02 0.51-0.01 0.93 0.27 3.5 2.33 2.86 6.76zm-93.33-1.65q-0.45 0.9 0.09 1.76 0.74 1.18 0.56-0.2-0.23-1.81 0.81-3.18 0.61-0.8-0.36-0.55-1.12 0.28-0.98 1.46 0.05 0.37-0.12 0.71zm89.53-1.75 0.75 1.78q0.36 0.86 0.76 0.01c0.37-0.78-0.06-2.36-1.1-2.39a0.43 0.43 0 0 0-0.41 0.6z" fill="#184e64"/> <path d="m95 283.79 29.7 0.14a1.98 1.98 0 0 0 1.99-2l-0.18-19.41c2.23-0.73 2.68 1.46 2.7 3.17q0.12 8.99-0.01 17.99c-0.04 2.38-1.21 3.54-3.66 3.56q-12.89 0.1-25.77-0.03-4.3-0.04-4.77-3.42z" fill="#d34639"/> <path d="m120.53 265.04q-6.89 1.16-14.58-0.12 2.42-1.6 4.33-0.62 0.44 0.22 0.94 0.14 4.68-0.75 9.31 0.6z" fill="#ac322b"/> <path d="m150 265.89q-0.14-1.18 0.98-1.46 0.97-0.25 0.36 0.55-1.04 1.37-0.81 3.18 0.18 1.38-0.56 0.2-0.54-0.86-0.09-1.76 0.17-0.34 0.12-0.71z" fill="#eacca3"/> <path d="m239.41 264.85a0.43 0.43 0 0 1 0.41-0.6c1.04 0.03 1.47 1.61 1.1 2.39q-0.4 0.85-0.76-0.01l-0.75-1.78z" fill="#36a4b1"/> <path d="m169.79 265.25c2.97 1.54 6.27 6.43 2.26 9.01q-0.47 0.3-0.41 0.86l1.11 9.34q-6.71-2.61-6.96-9.96 2.64-0.46 3.67-2.75 1.52-3.12 0.33-6.5z" fill="#d34639"/> <path d="m275.82 266.83a2.9 2.9 0 0 1 2.95 2.85v0.11a12.13 4.15 89.1 0 1-3.96 12.2l-6.62 0.1a12.13 4.15 89.1 0 1-4.34-12.06v-0.11a2.9 2.9 0 0 1 2.85-2.95l9.12-0.14zm1.0894 3.5585a0.6 0.6 0 0 0-0.5873-0.6124l-10.118-0.2119a0.6 0.6 0 0 0-0.6124 0.5873l-0.0013 0.06a0.6 0.6 0 0 0 0.5873 0.6124l10.118 0.2119a0.6 0.6 0 0 0 0.6124-0.5873l0.0013-0.06z" fill="#184e64"/> <path d="m107.92 280.31-2.18-10.12a2.22 2.22 0 0 1 2.17-2.69h11.26a2.22 2.22 0 0 1 2.21 2.5l-1.32 10.19a2.22 2.22 0 0 1-2.22 1.93l-7.76-0.06a2.22 2.22 0 0 1-2.16-1.75zm12-9.6063a0.66 0.66 0 0 0-0.6566-0.6634l-11.56-0.0606a0.66 0.66 0 0 0-0.6635 0.6566l-3e-4 0.06a0.66 0.66 0 0 0 0.6566 0.6634l11.56 0.0606a0.66 0.66 0 0 0 0.6635-0.6566l3e-4 -0.06z" fill="#184e64"/> <path d="m173.5 284.71c11.02 1.63 22.62 1.13 33.75 1.13 6.89 0 15.87-0.34 17.29-8.09l0.42-5.75 0.08-3.69q0.01-0.55 0.52-0.74c0.92-0.35 1.46 0.33 1.46 1.21 0.01 9.05-1.44 17.83-11.27 18.73q-18.92 1.72-41.12-0.31c-13.69-1.25-14.07-6.33-14.41-18.68a0.65 0.65 0 0 1 0.95-0.59c0.52 0.28 0.84 0.55 0.87 1.21 0.37 7.78 0.93 16.35 11.46 15.57z" fill="#36a4b1"/> <path d="m234.46 269q0.29 9.82-1.05 17.66c-2.1 12.22-12.36 14.4-22.91 15.06-14.35 0.91-29.82 1.09-42.86-3.08q-4.61-3.02-7.7-7.41 28.79 6.44 58.03 2.57c13.32-1.76 14.74-14.04 14.26-24.86q-0.03-0.51 0.41-0.79 1.4-0.88 1.82 0.85z" fill="#0f3d50"/> <path d="m236.59 268.71q1.36 3.97 6.12 2.04c0.65 2.76-2.66 3.35-4.95 3.8q-0.54 0.1-0.52 0.65c0.39 14.42-0.39 25.88-17.53 28.34q-22.39 3.22-47.14-1.59-3.83-0.75-4.93-3.31c13.04 4.17 28.51 3.99 42.86 3.08 10.55-0.66 20.81-2.84 22.91-15.06q1.34-7.84 1.05-17.66 1.03-1.53 2.13-0.29z" fill="#d34639"/> <path d="m243.21 268.25-0.5 2.5q-4.76 1.93-6.12-2.04l6.62-0.46z" fill="#0f3d50"/> <rect transform="translate(271.25 270.3) rotate(1.2)" x="-5.66" y="-.63" width="11.32" height="1.26" rx=".6" fill="#d9b3a6"/> <rect transform="translate(113.48 270.7) rotate(.3)" x="-6.44" y="-.69" width="12.88" height="1.38" rx=".66" fill="#d9b3a6"/> <path d="m169.46 271.75q-1.03 2.29-3.67 2.75-0.73-1.78-0.38-3.59 0.12-0.66 0.61-0.2 1.41 1.33 3.44 1.04z" fill="#ac322b"/> <path d="m221.29 270.75 3.67 1.25-0.42 5.75q0.81-3.6-2.34-4.08-0.53-0.09-0.83-0.53-0.68-1.04-0.08-2.39z" fill="#d34639"/> <path d="m148.31 271.23q3.13-0.57 5.85-0.1 0.49 0.09 0.53 0.58l0.27 3.29q-4.41-0.32-6.65-3.77z" fill="#d34639"/> <path d="m311.71 292.75c0.61 5.41 0.55 11.7-3.01 16.48q-4.77 4.1-11.41 3.93-0.49-0.01-0.54-0.5l-0.04-0.44 0.25-6.97c1.17-5.34 1.83-9.72 8.04-11.29l6.71-1.21z" fill="#0f3d50"/> <path d="m65.75 293.46h5q5.9 1.35 8.56 6.22c1.75 3.2 1.06 8.77 1.23 12.57q0.04 0.4-0.15 0.72-0.25 0.43-0.76 0.43-6.74-0.09-11.03-4.57-4.85-7.4-2.85-15.37z" fill="#184e64"/> <path d="m296.96 305.25-0.25 6.97-178.21-0.01-0.1-5.92q-0.01-0.57 0.56-0.57 31.16-0.36 62.28 0.1c38.52 0.57 77.19-0.19 115.72-0.57z" fill="#d34639"/> <path d="m68.6 308.83q4.29 4.48 11.03 4.57 0.51 0 0.76-0.43 0.19-0.32 0.15-0.72l37.96-0.04 178.21 0.01 0.04 0.44q0.05 0.49 0.54 0.5 6.64 0.17 11.41-3.93l17.54 2.34a1 1 0 0 1 0.43 1.82q-0.91 0.62-3.01 0.93-15.36 2.32-30.91 2.87c-42.79 1.52-85.76 0.89-128.57 0.74-28.81-0.11-57.63-0.95-86.42-1.83q-10.78-0.33-21.37-2.79a0.97 0.97 0 0 1 0.11-1.91q6.08-0.72 12.1-2.57z" fill="#d9b3a6"/> </svg>